<?xml version="1.0" encoding="utf-8"?>
<!-- Generator: Adobe Illustrator 21.0.0, SVG Export Plug-In . SVG Version: 6.00 Build 0)  -->
<svg version="1.1" id="Layer_1" xmlns="http://www.w3.org/2000/svg" xmlns:xlink="http://www.w3.org/1999/xlink" x="0px" y="0px"
	 viewBox="0 0 34 33.6" style="enable-background:new 0 0 34 33.6;" xml:space="preserve">
<style type="text/css">
	.st0{fill:#007EC5;}
	.st1{fill:none;}
	.st2{fill:#FFFFFF;}
</style>
<g>
	<path class="st0" d="M34,16.8c0,9.3-7.6,16.8-17,16.8c-9.4,0-17-7.5-17-16.8S7.6,0,17,0C26.4,0,34,7.5,34,16.8"/>
	<path class="st1" d="M34,16.8c0,9.3-7.6,16.8-17,16.8c-9.4,0-17-7.5-17-16.8S7.6,0,17,0C26.4,0,34,7.5,34,16.8"/>
	<path class="st2" d="M19.5,13.1l-0.7,0.1c0,0-0.1,0-0.1,0.1v6.3c0,0.1,0,0.1,0.1,0.1h0.7c0.1,0,0.1,0,0.1-0.1L19.5,13.1
		C19.6,13.1,19.6,13.1,19.5,13.1C19.5,13.1,19.5,13.1,19.5,13.1"/>
	<path class="st2" d="M19.1,10.9c-0.4,0-0.6,0.2-0.6,0.5c0,0.5,0.3,0.5,0.6,0.5c0.4,0,0.6-0.2,0.6-0.5
		C19.7,11.1,19.5,10.9,19.1,10.9"/>
	<path class="st2" d="M32,16.3C32,16.3,32,16.3,32,16.3c0-0.3,0-0.8-0.1-1.1c-0.2-1.3-0.9-2.1-2.1-2.2c-1.5-0.2-2.5,0.5-2.9,1.9
		c-0.2,0.9-0.2,1.9,0,2.9c0.1,0.6,0.4,1.1,0.9,1.4c0.5,0.4,1.1,0.5,1.5,0.5c0.6,0.1,1.3,0,1.8-0.3c0,0.3,0,0.8-0.1,1.3
		c-0.1,0.4-0.5,1-1.1,1.1C29.7,22,29.4,22,29.2,22v0c-0.7,0-1.3-0.1-1.8-0.4c0,0-0.1,0-0.1,0c0,0,0,0,0,0.1l-0.1,0.6
		c0,0,0,0.1,0.1,0.1c0.6,0.3,1.3,0.4,2,0.4l0,0c0.2,0,0.5,0,0.7-0.1c0.9-0.2,1.6-0.7,1.8-1.6c0.1-0.4,0.2-0.8,0.2-1.3L32,16.3z
		 M31.1,18.7c-0.5,0.2-1.1,0.3-1.7,0.3c-0.4,0-0.9-0.1-1.3-0.5c-0.2-0.3-0.4-0.6-0.5-0.9c-0.2-0.7-0.1-1.4-0.1-1.9
		c0.1-1.2,0.7-1.8,1.7-1.8c0,0,0,0,0,0c1.4,0,1.7,1.2,1.7,2.3V18.7z"/>
	<path class="st2" d="M17.9,13.1c-0.7-0.2-1.4-0.1-2.3,0.2c-0.7,0.3-1.2,0.8-1.2,1.5v2.8v2c0,0.1,0,0.1,0.1,0.1h0.7
		c0.1,0,0.1,0,0.1-0.1v-2c0-0.9,0-1.8,0-2.8c0-0.2,0-0.3,0.2-0.4c0.5-0.5,1.2-0.7,2-0.6c0.1,0,0.2,0,0.3,0.1c0,0,0.1,0,0.1,0
		c0,0,0,0,0-0.1l0.1-0.7C18,13.2,17.9,13.1,17.9,13.1"/>
	<path class="st2" d="M25.8,15.5c0-0.2,0-0.4,0-0.6c0-0.8-0.4-1.3-1.1-1.6c-0.8-0.3-1.6-0.3-2.6,0.1c-0.7,0.3-1.2,0.8-1.2,1.5v4.3
		v0.5c0,0,0,0.1,0.1,0.1h0.7c0.1,0,0.1,0,0.1-0.1l0-4.7c0-0.2,0-0.3,0.2-0.4c0.5-0.5,1.2-0.7,2-0.6c0.6,0.1,0.9,0.4,1.1,1
		c0,0.1,0,0.3,0,0.4l0,4.2c0,0,0,0.1,0.1,0.1h0.7c0.1,0,0.1,0,0.1-0.1V15.5z"/>
	<path class="st2" d="M5.6,19.9c-2.5,0-3.6-1.4-3.6-4.5c0-2.9,1.1-4.3,3.6-4.3c0.8,0,1.6,0.2,2,0.4l0.1,0l-0.1,0.9l-0.1-0.1
		c-0.5-0.2-1.1-0.4-1.8-0.4C3.7,12.1,3,13,3,15.4c0,2.6,0.7,3.5,2.7,3.5c0.6,0,1.2-0.1,1.7-0.4l0.1-0.1l0.2,0.9l-0.1,0
		C7.2,19.6,6.4,19.9,5.6,19.9"/>
	<path class="st2" d="M10.5,19.8c-1.4,0-2.1-0.8-2.1-2.1c0-0.9,0.4-2,2.5-2c0.5,0,1,0.1,1.5,0.2v-0.6c0-1.1-0.4-1.5-1.5-1.5
		c-0.7,0-1.3,0.1-1.8,0.4l-0.1,0.1l-0.1-0.8l0.1,0c0.6-0.3,1.3-0.4,2.1-0.4c1.7,0,2.4,0.7,2.4,2.4v4.4h-0.7L12.5,19
		C12,19.5,11.3,19.8,10.5,19.8 M11,16.4c-1.1,0-1.7,0.4-1.7,1.3c0,0.9,0.5,1.3,1.4,1.3c0.9,0,1.7-0.6,1.7-1.2v-1.2
		C12.2,16.5,11.7,16.4,11,16.4"/>
</g>
</svg>
