<?xml version="1.0" encoding="UTF-8" standalone="no"?><!DOCTYPE svg PUBLIC "-//W3C//DTD SVG 1.1//EN" "http://www.w3.org/Graphics/SVG/1.1/DTD/svg11.dtd"><svg width="100%" height="100%" viewBox="0 0 1249 394" version="1.1" xmlns="http://www.w3.org/2000/svg" xmlns:xlink="http://www.w3.org/1999/xlink" xml:space="preserve" xmlns:serif="http://www.serif.com/" style="fill-rule:evenodd;clip-rule:evenodd;stroke-linejoin:round;stroke-miterlimit:2;"><rect id="Artboard1" x="0" y="0" width="1249" height="394" style="fill:none;"/><clipPath id="_clip1"><rect x="0" y="0" width="1249" height="394"/></clipPath><g clip-path="url(#_clip1)"><rect x="0.5" y="0.5" width="1249" height="394" style="fill:none;fill-rule:nonzero;stroke:#712b82;stroke-width:10px;"/><path d="M546.147,161.776c6.331,0 15.931,-1.813 21.829,0.603c4.132,1.693 7.088,7.041 9.771,10.397c6.629,8.289 13.253,16.607 19.749,25c5.551,7.171 12.898,20.939 21.652,24.257c3.232,1.225 6.738,0.348 9.999,-0.257c-0.526,-7.839 -6.661,-13.182 -11.389,-19c-8.101,-9.969 -16.044,-20.064 -24.187,-30c-3.524,-4.3 -9.464,-9.583 -11.407,-14.83c-1.658,-4.478 6.275,-10.448 8.984,-13.17c8.185,-8.225 16.188,-16.515 24.088,-25c2.565,-2.754 8.275,-6.662 8.275,-10.852c0,-2.422 -2.466,-2.928 -4.383,-3.089c-5.128,-0.429 -8.368,1.504 -11.981,4.96c-9.315,8.912 -18.125,18.55 -26.911,27.981c-3.853,4.136 -7.563,10.359 -13.089,12.397c-5.935,2.188 -14.718,0.603 -21,0.603l0,-38c0,-16.116 1.401,-32.937 -0.059,-48.981c-0.469,-5.161 -7.852,-7.289 -10.913,-2.701c-1.711,2.564 -1.028,6.765 -1.028,9.682l0,140c0.001,3.118 -0.746,7.713 2.318,9.681c3.766,2.42 8.793,0.741 9.534,-3.725c1.625,-9.794 0.148,-21.025 0.148,-30.956l0,-25Z" style="fill:#712b82;"/><path d="M372.147,103.201c-6.919,0.942 -13.697,2.223 -20,5.385c-16.923,8.489 -23.15,32.249 -7.907,45.722c14.369,12.7 35.686,13.738 51.907,23.149c7.215,4.185 13.763,11.417 11.442,20.319c-5.711,21.907 -38.056,18.016 -53.442,11.793c-5.081,-2.055 -13.31,-9.649 -18.941,-6.75c-10.353,5.331 4.471,12.999 8.941,15.201c13.352,6.576 30.293,8.632 45,6.317c9.033,-1.422 18.399,-4.906 24.815,-11.654c9.576,-10.074 9.899,-27.818 0.08,-37.814c-12.859,-13.091 -34.049,-14.928 -49.895,-22.852c-7.401,-3.701 -16.242,-9.791 -15.606,-19.241c1.45,-21.538 33.177,-21.001 47.606,-16.251c4.738,1.56 11.898,7.761 16.941,5.205c8.508,-4.313 -0.117,-10.967 -4.941,-13.078c-10.847,-4.748 -24.228,-7.053 -36,-5.451Z" style="fill:#712b82;"/><path d="M1042.15,122.776c11.58,24.759 20.48,50.881 31.28,76c3,6.974 5.8,22.78 14.72,23.796c10.9,1.241 13.06,-11.949 16.2,-19.796c9.07,-22.684 18.19,-45.369 27.4,-68c2.58,-6.337 5.41,-12.58 7.78,-19c0.89,-2.395 2.4,-6.048 0.59,-8.397c-2.01,-2.609 -7.44,-1.777 -9.69,0c-4.36,3.443 -6.07,12.384 -8.08,17.397l-21.2,53c-3.85,9.635 -9.23,19.742 -11,30c-11.34,-24.256 -20.25,-50.12 -30.2,-75l-7.2,-18c-1.27,-3.148 -2.33,-6.664 -5.71,-8.106c-12.52,-5.35 -16.33,10.708 -19.69,19.106c-5.87,14.663 -11.51,29.437 -17.62,44c-5.16,12.289 -11.5,25.005 -14.58,38c-6.07,-13.697 -11.03,-28.07 -16.6,-42l-10.8,-27c-2.79,-6.979 -5.41,-14.021 -8.2,-21c-1.23,-3.081 -2.2,-7.011 -4.39,-9.566c-2.42,-2.809 -10.63,-4.133 -11.6,0.714c-0.52,2.595 0.88,5.503 1.79,7.852c2.23,5.704 4.72,11.311 7,17c8.41,21.024 16.99,41.978 25.4,63c3.53,8.816 6.66,28.18 19.38,25.652c8.51,-1.69 11.32,-17.72 14.3,-24.652c10.65,-24.771 19.3,-50.584 30.72,-75Z" style="fill:#712b82;"/><path d="M121.147,162.776l90,0c4.053,0 12.025,1.491 15.397,-1.179c2.876,-2.278 1.753,-9.62 1.432,-12.821c-1.339,-13.395 -7.387,-26.046 -17.829,-34.671c-34.842,-28.779 -98.939,-3.084 -100.961,42.671c-0.507,11.49 0.046,22.369 4.826,33c12.825,28.527 49.066,39.758 78.135,34.195c8.406,-1.608 16.441,-4.447 24,-8.457c2.918,-1.548 7.364,-3.868 7.364,-7.737c0,-3.733 -4.041,-6.034 -7.364,-5.243c-4.813,1.146 -9.477,4.893 -14,6.93c-7.116,3.206 -15.201,4.968 -23,5.272c-31.072,1.211 -55.595,-21.532 -58,-51.96Zm1,-10l94,0c-2.578,-10.702 -3.895,-20.45 -12.289,-28.56c-18.287,-17.667 -51.562,-13.509 -68.671,3.6c-7.03,7.031 -10.381,15.592 -13.04,24.96Z" style="fill:#712b82;"/><path d="M739.147,162.776l89,0c4.211,0 11.943,1.466 15.566,-1.028c3.923,-2.7 1.915,-9.144 1.484,-12.972c-1.397,-12.399 -6.278,-25.309 -16.065,-33.535c-34.764,-29.224 -95.02,-6.598 -102.231,37.535c-1.868,11.429 -1.219,24.325 3.558,35c13.013,29.075 47.393,41.738 77.688,36.385c8.967,-1.584 18.131,-4.141 25.999,-8.839c2.794,-1.668 6.732,-3.826 6.624,-7.581c-0.117,-4.109 -3.894,-6.33 -7.624,-5.244c-3.934,1.146 -7.296,4.223 -10.999,5.956c-7.488,3.504 -15.801,5.373 -24,6.153c-30.431,2.896 -58.98,-21.2 -59,-51.83Zm1,-10l93,0c-0.873,-10.963 -4.527,-22.22 -13.04,-29.674c-25.835,-22.621 -76.852,-5.917 -79.96,29.674Z" style="fill:#712b82;"/><path d="M157.147,320.776l-5,0c-0.32,2.869 -0.796,5.374 -3.228,7.272c-4.918,3.839 -14.507,2.666 -15.624,-4.287c-0.858,-5.345 -1.958,-18.051 0.88,-22.76c4.993,-8.285 16.44,-2.79 17.972,4.775l5,0c-0.009,-3.15 0.402,-6.976 -1.742,-9.581c-4.435,-5.388 -22.082,-5.388 -26.516,0c-1.95,2.37 -1.726,5.702 -1.741,8.581c-0.034,6.33 -0.086,12.671 0.003,19c0.141,10.073 7.415,11.038 15.996,10.999c3.841,-0.017 8.521,0.072 11.566,-2.702c3.062,-2.789 2.432,-7.553 2.434,-11.297Z" style="fill:#bf1e2d;"/><path d="M351.147,292.776l0,31c0,5.685 -0.778,10.472 6,11l0,-30c4.915,6.394 9.194,13.291 13.667,20c3.506,5.26 5.552,9.775 12.333,10l0,-42l-6,0l0,30c-4.481,-6.642 -8.889,-13.334 -13.333,-20c-3.599,-5.397 -5.726,-9.773 -12.667,-10Z" style="fill:#bf1e2d;"/><path d="M465.147,320.776c0.003,3.637 -0.482,7.775 2.318,10.581c5.915,5.928 25.617,5.727 28.248,-3.596c3.139,-11.123 -4.707,-14.694 -13.566,-17.652c-3.235,-1.079 -9.337,-2.214 -9.94,-6.383c-0.644,-4.456 5.397,-6.848 8.94,-6.667c5.244,0.269 8.041,3.979 9,8.717l6,0c-0.08,-3.756 -0.205,-7.687 -3.279,-10.347c-5.593,-4.842 -22.603,-4.582 -26.403,2.452c-0.798,1.477 -1.139,3.23 -1.18,4.895c-0.356,14.386 18.862,8.679 23.819,18.108c4.346,8.267 -8.648,10.8 -13.898,8.238c-5.104,-2.489 -3.572,-7.841 -10.059,-8.346Z" style="fill:#bf1e2d;"/><path d="M577.147,292.776l0,25c0,3.73 -0.717,8.505 1.179,11.892c4.277,7.64 25.293,7.725 29.503,0c1.892,-3.472 1.318,-8.088 1.318,-11.892l0,-25l-6,0l0,21c0,3.46 0.592,7.68 -0.742,10.956c-2.649,6.503 -13.544,7.427 -17.655,1.897c-2.224,-2.993 -1.603,-7.351 -1.603,-10.853l0,-23l-6,0Z" style="fill:#bf1e2d;"/><path d="M692.147,292.776l0,42l26,0l0,-5l-20,0l0,-37l-6,0Z" style="fill:#bf1e2d;"/><path d="M787.147,292.776l0,5l13,0l0,37l6,0l0,-37l13,0l0,-5l-32,0Z" style="fill:#bf1e2d;"/><rect x="898.147" y="292.776" width="5" height="42" style="fill:#bf1e2d;"/><path d="M987.147,292.776l0,42c1.76,-0.137 3.77,-0.025 4.98,-1.603c1.62,-2.136 1.02,-5.892 1.02,-8.397l0,-20c4.39,6.63 8.59,13.381 13,20c3.33,5.001 5.57,9.512 12,10l0,-42l-5,0l0,31c-4.59,-7.466 -9.36,-14.846 -14.42,-22c-3.3,-4.658 -5.57,-8.543 -11.58,-9Z" style="fill:#bf1e2d;"/><path d="M1126.15,318.776c-0.04,3.54 -0.07,7.036 -3.15,9.41c-5.49,4.23 -14.92,1.799 -15.74,-5.414c-0.62,-5.497 -2.05,-18.104 1.63,-22.577c5.64,-6.853 16.09,-1.988 17.26,5.581l6,0c-0.07,-3.367 -0.1,-6.953 -2.51,-9.606c-4.85,-5.33 -21.25,-5.325 -26.17,-0.115c-3.63,3.839 -2.32,10.878 -2.32,15.721c0,5.178 -1.5,13.265 1.03,17.945c3.78,7 19.87,6.868 25.84,2.965c3.97,-2.602 6.87,-14.442 2.53,-17.882c-2.26,-1.791 -12.51,-2.194 -14.22,0.517c-2.6,4.097 8.18,3.455 9.82,3.455Z" style="fill:#bf1e2d;"/><path d="M245.148,293.309c-11.09,2.71 -8.004,16.757 -8.001,25.467c0.001,3.824 -0.504,8.482 1.858,11.775c4.069,5.673 16.097,5.171 22.141,3.692c10.971,-2.684 8.002,-16.873 8.001,-25.467c0,-3.787 0.667,-8.542 -1.742,-11.775c-4.196,-5.634 -16.14,-5.187 -22.257,-3.692Zm5,3.954c-8.07,1.677 -7.001,8.965 -7.001,15.513c0,9.183 0.238,20.124 12.996,17.301c7.893,-1.746 7.004,-8.787 7.004,-15.301c0,-9.363 -0.037,-20.207 -12.999,-17.513Z" style="fill:#bf1e2d;"/></g></svg>