<?xml version="1.0" encoding="utf-8"?>
<!-- Generator: Adobe Illustrator 19.0.1, SVG Export Plug-In . SVG Version: 6.00 Build 0)  -->
<svg version="1.1" id="Layer_1" xmlns="http://www.w3.org/2000/svg" xmlns:xlink="http://www.w3.org/1999/xlink" x="0px" y="0px"
	 viewBox="-261 183.8 115.4 115.2" style="enable-background:new -261 183.8 115.4 115.2;" xml:space="preserve">
<style type="text/css">
	.st0{fill:#6F3417;}
	.st1{fill:#F1693C;}
	.st2{fill:#FFFFFF;}
</style>
<g>
	<g>
		<ellipse class="st0" cx="-203.1" cy="240.5" rx="54.1" ry="54"/>
		<ellipse class="st1" cx="-203.3" cy="241.4" rx="57.7" ry="57.6"/>
	</g>
	<g>
		<g>
			<g>
				<g>
					<g>
						<rect x="-230" y="224.4" class="st2" width="16.6" height="1.2"/>
					</g>
				</g>
			</g>
			<g>
				<g>
					<g>
						<polygon class="st2" points="-214.7,227.4 -215.5,226.7 -213.7,225 -215.5,223.4 -214.7,222.5 -212.2,225 						"/>
					</g>
				</g>
			</g>
			<g>
				<g>
					<g>
						<polygon class="st2" points="-228.9,222.5 -228.1,223.4 -229.8,225 -228.1,226.7 -228.9,227.4 -231.2,225 						"/>
					</g>
				</g>
			</g>
		</g>
		<g>
			<g>
				<g>
					<path class="st2" d="M-223.6,209.5l1.5,4c0.2,0.4,0.3,1,0.4,1.4l0,0c0.1-0.4,0.3-0.9,0.4-1.4l1.4-4h1.3l-1.9,4.9
						c-0.9,2.3-1.5,3.5-2.3,4.3c-0.6,0.5-1.2,0.7-1.5,0.8l-0.3-1c0.3-0.1,0.7-0.3,1.1-0.6c0.3-0.3,0.8-0.7,1-1.4
						c0.1-0.1,0.1-0.2,0.1-0.3s0-0.2-0.1-0.3l-2.5-6.3L-223.6,209.5L-223.6,209.5L-223.6,209.5z"/>
				</g>
			</g>
		</g>
		<g>
			<g>
				<g>
					<rect x="-180" y="229.9" class="st2" width="1.2" height="44.5"/>
				</g>
			</g>
			<g>
				<g>
					<polygon class="st2" points="-181.7,273.2 -180.9,272.5 -179.4,274.3 -177.6,272.5 -177,273.2 -179.4,275.6 					"/>
				</g>
			</g>
			<g>
				<g>
					<polygon class="st2" points="-177,231.1 -177.6,231.8 -179.4,230.2 -180.9,231.8 -181.7,231.1 -179.4,228.7 					"/>
				</g>
			</g>
		</g>
		<g>
			<g>
				<g>
					<path class="st2" d="M-174.2,247.2l1,1.5c0.3,0.4,0.5,0.7,0.7,1.1l0,0c0.2-0.4,0.5-0.8,0.7-1.1l1-1.5h1.3l-2.3,3.3l2.4,3.5
						h-1.4l-1-1.5c-0.3-0.4-0.5-0.8-0.7-1.2l0,0c-0.2,0.4-0.5,0.8-0.7,1.2l-1,1.5h-1.4l2.4-3.5l-2.3-3.3H-174.2z"/>
				</g>
			</g>
		</g>
		<g>
			<g>
				<path class="st2" d="M-211.7,254.2l-13.8-19.5h-5.7v-5.8h19.1v5.8h-5.8l10.2,14.3l9.4-14.3h-5.9v-5.8h18.5v5.8h-6.2l-12.9,19.5
					v15.4h6.4v5.8h-19.6v-5.8h6.2V254.2L-211.7,254.2z"/>
			</g>
		</g>
		<g>
			<rect x="-234.6" y="253.9" class="st2" width="49.5" height="0.5"/>
		</g>
		<g>
			<rect x="-185.8" y="209.3" class="st2" width="0.5" height="67"/>
		</g>
		<g>
			<rect x="-234.7" y="234.6" class="st2" width="66.6" height="0.5"/>
		</g>
		<g>
			<rect x="-234.6" y="228.8" class="st2" width="66.6" height="0.5"/>
		</g>
	</g>
</g>
</svg>
