<?xml version="1.0" encoding="utf-8"?>
<!-- Generator: Adobe Illustrator 19.0.1, SVG Export Plug-In . SVG Version: 6.00 Build 0)  -->
<svg version="1.1" id="Layer_1" xmlns="http://www.w3.org/2000/svg" xmlns:xlink="http://www.w3.org/1999/xlink" x="0px" y="0px"
	 viewBox="-261 183.8 115.4 115.2" style="enable-background:new -261 183.8 115.4 115.2;" xml:space="preserve">
<style type="text/css">
	.st0{fill:#6F3417;}
	.st1{fill:#F1693C;}
	.st2{fill:#FFFFFF;}
</style>
<g>
	<g>
		<ellipse class="st0" cx="-203" cy="240.8" rx="54.3" ry="54.2"/>
		<ellipse class="st1" cx="-203.3" cy="241.4" rx="57.7" ry="57.6"/>
	</g>
	<g>
		<g>
			<rect x="-224" y="258.8" class="st2" width="10.7" height="5.2"/>
		</g>
		<g>
			<rect x="-208.5" y="258.8" class="st2" width="30.8" height="5.2"/>
		</g>
		<g>
			<g>
				<path class="st2" d="M-208.1,243.9h-16.3v-16.3h16.3V243.9z M-223.5,243h14.5v-14.5h-14.5V243z"/>
			</g>
			<g>
				<polygon class="st2" points="-198.7,209.8 -214,209.8 -214,213.4 -214,217.1 -214,220.7 -188.5,220.7 -188.5,217.1 
					-188.5,213.4 -188.5,209.8 				"/>
			</g>
			<g>
				<path class="st2" d="M-178.1,275.8h-46.8c-5.7,0-10.2-5.9-10.2-13.5v-35.8c0-7.6,4.5-13.5,10.2-13.5h6.7v6h-6.7
					c-2,0-4.2,3.2-4.2,7.5v35.8c0,4.3,2.2,7.5,4.2,7.5h46.8c2,0,4.2-3.2,4.2-7.5v-35.8c0-4.3-2.2-7.5-4.2-7.5h-6.3v-6h6.3
					c5.7,0,10.2,5.9,10.2,13.5v35.8C-167.8,269.8-172.3,275.8-178.1,275.8z M-224.8,213.9c-5.2,0-9.3,5.5-9.3,12.6v35.8
					c0,7.1,4.1,12.6,9.3,12.6h46.8c5.2,0,9.3-5.5,9.3-12.6v-35.8c0-7.1-4.1-12.6-9.3-12.6h-5.3v4.2h5.3c2.5,0,5.2,3.4,5.2,8.4v35.8
					c0,5.2-2.7,8.4-5.2,8.4h-46.8c-2.5,0-5.2-3.4-5.2-8.4v-35.8c0-5.2,2.7-8.4,5.2-8.4h5.8v-4.2L-224.8,213.9L-224.8,213.9z"/>
			</g>
			<g>
				<polygon class="st2" points="-189.2,237.6 -189.2,242.6 -203,242.6 -203,228.9 -189.2,228.9 -189.2,230.1 -188.3,229.2 
					-188.3,228 -203.9,228 -203.9,243.5 -188.3,243.5 -188.3,236.7 				"/>
			</g>
			<g>
				<polygon class="st2" points="-181.5,223.7 -193.8,235.9 -198.7,231 -201.2,233.5 -196.2,238.4 -193.8,240.9 -191.2,238.4 
					-179.1,226.2 				"/>
			</g>
			<g>
				<rect x="-224" y="248.6" class="st2" width="10.7" height="5.2"/>
			</g>
			<g>
				<rect x="-208.5" y="248.6" class="st2" width="30.8" height="5.2"/>
			</g>
		</g>
	</g>
</g>
</svg>
