<?xml version="1.0" encoding="utf-8"?>
<!-- Generator: Adobe Illustrator 19.0.0, SVG Export Plug-In . SVG Version: 6.00 Build 0)  -->
<svg version="1.1" xmlns="http://www.w3.org/2000/svg" xmlns:xlink="http://www.w3.org/1999/xlink" x="0px" y="0px"
	 viewBox="0 0 120 120" enable-background="new 0 0 120 120" xml:space="preserve">
<g id="Layer_1">
	<g>
		<g>
			<ellipse fill="#6F3417" cx="-358.6" cy="-144.5" rx="57.7" ry="57.6"/>
			<ellipse fill="#F1693C" cx="-362.3" cy="-147.3" rx="57.7" ry="57.6"/>
		</g>
		<g>
			<g id="images_5_">
				<g>
					<path fill="#6F3417" d="M-376.2-158.9l-5.3,10.5l-3.5-5.2l-5.2,8.7l20.8,0L-376.2-158.9z M-393.5-167.5l-0.1,27.8h27.9v-27.9
						L-393.5-167.5z M-367.5-141.4h-24.3v-24.3h24.3V-141.4z M-385.7-157.1c1.5,0,2.6-1.2,2.6-2.6c0-1.5-1.2-2.6-2.6-2.6
						c-1.5,0-2.6,1.2-2.6,2.6C-388.3-158.3-387.2-157.1-385.7-157.1z"/>
				</g>
			</g>
			<g id="mail_5_">
				<g>
					<path fill="#6F3417" d="M-355.1-131.2v14.2l7-7.1L-355.1-131.2z M-327.4-134.6h-27.7l13.9,14L-327.4-134.6z M-327.3-117.1l0-14
						l-6.9,7L-327.3-117.1z M-341.2-116.6l-5.2-5.8l-7.9,8.7h26.3l-8-8.7L-341.2-116.6z"/>
				</g>
			</g>
			<g>
				<polygon fill="#6F3417" points="-346.8,-174.4 -346.8,-167.2 -339.6,-167.2 -339.6,-136.4 -335.9,-136.4 -335.9,-169.8 
					-343.2,-178.1 -379.5,-178.1 -379.5,-169.4 -375.8,-169.4 -375.8,-174.4 				"/>
			</g>
			<g>
				<polygon fill="#6F3417" points="-375.8,-123.7 -375.8,-137.9 -379.5,-137.9 -379.5,-120.1 -357,-120.1 -357,-123.7 				"/>
			</g>
		</g>
	</g>
</g>
<g id="newsletters" display="none">
	<g display="inline">
		<g>
			<ellipse fill="#6F3417" cx="61.8" cy="61.4" rx="57.7" ry="57.6"/>
			<ellipse fill="#F1693C" cx="58.2" cy="58.6" rx="57.7" ry="57.6"/>
		</g>
		<g>
			<g>
				<path fill="#6F3417" d="M90.2,89.8h-31c0,0.4,0.3,0.7,0.6,0.8c0.6,0.4,7,0.7,14.9,0.7c8,0,14.6-0.3,14.9-0.7
					C90,90.5,90.2,90.2,90.2,89.8z"/>
				<polygon fill="#6F3417" points="78.9,70.6 78.9,37.5 71,28.4 31.5,28.4 31.5,35.6 31.5,37.8 31.5,72.2 31.5,73.8 31.5,91.6 
					56,91.6 56,87.6 35.5,87.6 35.5,73.8 35.5,72.2 35.5,37.8 35.5,35.6 35.5,32.4 67,32.4 67,40.3 74.9,40.3 74.9,70.6 				"/>
				<g>
					<path fill="#6F3417" d="M86.9,73.1c-0.4-0.3-0.9-0.6-1.5-0.6H63.6c-0.6,0-1.1,0.2-1.5,0.6c-0.2,0.3-0.3,0.7-0.4,1h25.6
						C87.2,73.8,87.1,73.5,86.9,73.1z"/>
					<path fill="#6F3417" d="M92.5,73.6c-0.3-0.1-0.7-0.2-1.1-0.2c-1.4,0-2.8,1-3.7,2.5c0-0.2-0.1-0.4-0.1-0.6c0-0.1,0-0.1,0-0.1
						H61.5c0,0,0,0.1,0,0.1c-0.1,0.7-0.2,1.3-0.2,2c0,6.3,6,11.4,13.3,11.4c5.9,0,10.9-3.3,12.7-7.9c0.3,0.8,0.9,1.3,1.6,1.7
						c0.3,0.1,0.7,0.2,1.1,0.2c1.6,0,3.3-1.3,4.1-3.3C95,77,94.4,74.4,92.5,73.6z M93.1,79.1c-0.8,1.9-2.6,3.1-3.9,2.5
						C87.8,81,87.4,79,88.2,77c0.7-1.6,2-2.7,3.2-2.7c0.2,0,0.5,0,0.7,0.1C93.5,75.1,93.9,77.1,93.1,79.1z"/>
				</g>
				<rect x="59.2" y="88.9" fill="#6F3417" width="31" height="0.6"/>
			</g>
			<g>
				<rect x="39.9" y="44.5" fill="#6F3417" width="27.6" height="3"/>
			</g>
			<g>
				<rect x="39.9" y="67.6" fill="#6F3417" width="20.5" height="3"/>
			</g>
			<g>
				<rect x="39.9" y="59.9" fill="#6F3417" width="20.5" height="3"/>
			</g>
			<g>
				<rect x="39.9" y="52.2" fill="#6F3417" width="20.5" height="3"/>
			</g>
		</g>
	</g>
</g>
<g id="seo" display="none">
	<g display="inline">
		<g>
			<ellipse fill="#6F3417" cx="61.8" cy="61.4" rx="57.7" ry="57.6"/>
			<ellipse fill="#F1693C" cx="58.2" cy="58.6" rx="57.7" ry="57.6"/>
		</g>
		<g>
			<g>
				<rect x="53.9" y="79.1" fill="#6F3417" width="12.5" height="5.3"/>
			</g>
			<g>
				<rect x="43.6" y="85.4" fill="#6F3417" width="33" height="5.1"/>
			</g>
			<g>
				<g>
					<path fill="#6F3417" d="M37.2,50.9l15.2-7.8v2.3l-12.8,6.4v0.1l12.8,6.4v2.3l-15.2-7.8V50.9z"/>
				</g>
				<g>
					<path fill="#6F3417" d="M54.5,61.8l9.1-23.7h2.2l-9.2,23.7H54.5z"/>
				</g>
				<g>
					<path fill="#6F3417" d="M83.1,52.7l-15.2,7.8v-2.3l12.9-6.4v-0.1l-12.9-6.4v-2.3l15.2,7.8V52.7z"/>
				</g>
			</g>
			<g>
				<path fill="#6F3417" d="M84.8,31.4H35.2c-3.6,0-6.5,2.2-6.5,4.8v32.2h62.7V36.2C91.4,33.6,88.4,31.4,84.8,31.4z M89.5,66.6h-59
					V36.2c0-1.6,2.2-3,4.7-3h49.6c2.5,0,4.7,1.4,4.7,3V66.6z"/>
			</g>
			<g>
				<path fill="#6F3417" d="M84.8,29.6H35.2c-4.6,0-8.3,3-8.3,6.6v38.4c0,3.7,3.7,6.6,8.3,6.6h49.6c4.6,0,8.3-3,8.3-6.6V36.2
					C93.1,32.6,89.4,29.6,84.8,29.6z M32.7,74.4c-0.6,0-1.1-0.5-1.1-1.1c0-0.6,0.5-1.1,1.1-1.1c0.6,0,1.1,0.5,1.1,1.1
					C33.8,73.9,33.3,74.4,32.7,74.4z M36.5,74.4c-0.6,0-1.1-0.5-1.1-1.1c0-0.6,0.5-1.1,1.1-1.1c0.6,0,1.1,0.5,1.1,1.1
					C37.6,73.9,37.1,74.4,36.5,74.4z M91.4,68.5H28.6V36.2c0-2.7,2.9-4.8,6.5-4.8h49.6c3.6,0,6.5,2.2,6.5,4.8V68.5z"/>
			</g>
		</g>
	</g>
</g>
<g id="media_kits" display="none">
	<g display="inline">
		<g>
			<ellipse fill="#6F3417" cx="61.8" cy="61.4" rx="57.7" ry="57.6"/>
			<ellipse fill="#F1693C" cx="58.2" cy="58.6" rx="57.7" ry="57.6"/>
		</g>
		<g>
			<g>
				<g>
					<rect x="66.5" y="60.4" fill="#6F3417" width="16.1" height="2"/>
				</g>
				<g>
					<rect x="66.5" y="54.4" fill="#6F3417" width="8" height="2"/>
				</g>
				<g>
					<rect x="66.5" y="50.4" fill="#6F3417" width="4" height="2"/>
				</g>
				<g>
					<polygon fill="#6F3417" points="80.8,52.4 80.8,48.3 64.7,48.3 64.7,63.3 84.8,63.3 84.8,52.4 					"/>
				</g>
				<g>
					<polygon fill="#6F3417" points="64.7,48.3 80.8,48.3 80.8,52.4 84.8,52.4 84.8,63.3 86.8,63.3 86.8,50.9 82.8,46.3 62.7,46.3 
						62.7,63.3 64.7,63.3 					"/>
				</g>
				<g>
					<polygon fill="#6F3417" points="90.1,47.6 86.1,43 66,43 66,45.4 68,45.4 68,45 84.1,45 84.1,46.5 86.4,49 88.1,49 88.1,63.3 
						90.1,63.3 					"/>
				</g>
			</g>
			<g>
				<rect x="36.4" y="60.4" fill="#6F3417" width="16.1" height="2"/>
			</g>
			<g>
				<rect x="36.4" y="54.4" fill="#6F3417" width="8" height="2"/>
			</g>
			<g>
				<polygon fill="#6F3417" points="50.6,52.4 50.6,48.3 34.6,48.3 34.6,63.3 54.7,63.3 54.7,52.4 				"/>
			</g>
			<g>
				<polygon fill="#6F3417" points="34.6,48.3 50.6,48.3 50.6,52.4 54.7,52.4 54.7,63.3 56.7,63.3 56.7,50.9 52.7,46.3 32.5,46.3 
					32.5,63.3 34.6,63.3 				"/>
			</g>
			<g>
				<g>
					<path fill="#6F3417" d="M93.2,85.1H26.8V34.9h66.4V85.1z M28.7,82.9h62.6V37.1H28.7V82.9z"/>
				</g>
			</g>
			<g>
				<rect x="29.8" y="65.2" fill="#6F3417" width="29.7" height="1.8"/>
			</g>
			<g>
				<rect x="61.3" y="65.2" fill="#6F3417" width="28.9" height="1.8"/>
			</g>
		</g>
	</g>
</g>
<g id="brand_strategy" display="none">
	<g display="inline">
		<g>
			<ellipse fill="#6F3417" cx="61.8" cy="61.4" rx="57.7" ry="57.6"/>
			<ellipse fill="#F1693C" cx="58.2" cy="58.6" rx="57.7" ry="57.6"/>
		</g>
		<g>
			<g>
				<g>
					<g>
						<g>
							<rect x="31.4" y="41.7" fill="#6F3417" width="16.6" height="1.2"/>
						</g>
					</g>
				</g>
				<g>
					<g>
						<g>
							<polygon fill="#6F3417" points="46.8,44.7 46,44 47.7,42.3 46,40.6 46.8,39.9 49.2,42.3 							"/>
						</g>
					</g>
				</g>
				<g>
					<g>
						<g>
							<polygon fill="#6F3417" points="32.6,39.9 33.3,40.6 31.6,42.3 33.3,44 32.6,44.7 30.2,42.3 							"/>
						</g>
					</g>
				</g>
			</g>
			<g>
				<g>
					<g>
						<path fill="#6F3417" d="M37.8,26.8l1.5,4c0.2,0.4,0.3,1,0.4,1.4h0c0.1-0.4,0.3-0.9,0.4-1.4l1.4-4h1.3L41,31.6
							c-0.9,2.3-1.5,3.5-2.3,4.3c-0.6,0.5-1.2,0.7-1.5,0.8l-0.3-1c0.3-0.1,0.7-0.3,1.1-0.6c0.3-0.3,0.8-0.7,1-1.4
							c0.1-0.1,0.1-0.2,0.1-0.3c0-0.1,0-0.2-0.1-0.3l-2.5-6.3H37.8z"/>
					</g>
				</g>
			</g>
			<g>
				<g>
					<g>
						<rect x="81.5" y="47.2" fill="#6F3417" width="1.2" height="44.5"/>
					</g>
				</g>
				<g>
					<g>
						<polygon fill="#6F3417" points="79.7,90.5 80.4,89.8 82,91.4 83.7,89.8 84.4,90.5 82,92.9 						"/>
					</g>
				</g>
				<g>
					<g>
						<polygon fill="#6F3417" points="84.4,48.4 83.7,49.1 82,47.4 80.4,49.1 79.7,48.4 82,46 						"/>
					</g>
				</g>
			</g>
			<g>
				<g>
					<g>
						<path fill="#6F3417" d="M87.1,64.5l1,1.5c0.3,0.4,0.5,0.7,0.7,1.1h0c0.2-0.4,0.5-0.8,0.7-1.1l1-1.5h1.3l-2.3,3.3l2.4,3.5h-1.4
							l-1-1.5c-0.3-0.4-0.5-0.8-0.7-1.2h0c-0.2,0.4-0.5,0.8-0.7,1.2l-1,1.5h-1.4l2.4-3.5l-2.3-3.3H87.1z"/>
					</g>
				</g>
			</g>
			<g>
				<g>
					<path fill="#6F3417" d="M49.7,71.5L35.9,52h-5.7v-5.8h19.1V52h-5.8l10.2,14.3L63,52h-5.8v-5.8h18.5V52h-6.2L56.7,71.5v15.3H63
						v5.8H43.5v-5.8h6.2V71.5z"/>
				</g>
			</g>
			<g>
				<rect x="26.8" y="71.2" fill="#6F3417" width="49.4" height="0.5"/>
			</g>
			<g>
				<rect x="75.6" y="26.5" fill="#6F3417" width="0.5" height="66.9"/>
			</g>
			<g>
				<rect x="26.7" y="51.9" fill="#6F3417" width="66.5" height="0.5"/>
			</g>
			<g>
				<rect x="26.8" y="46" fill="#6F3417" width="66.5" height="0.5"/>
			</g>
		</g>
	</g>
</g>
<g id="photography" display="none">
	<g display="inline">
		<g>
			<ellipse fill="#6F3417" cx="61.8" cy="61.4" rx="57.7" ry="57.6"/>
			<ellipse fill="#F1693C" cx="58.2" cy="58.6" rx="57.7" ry="57.6"/>
		</g>
		<g>
			<g>
				<polygon fill="#6F3417" points="85.4,42.9 70.2,42.9 67.7,42 85.4,42 				"/>
			</g>
			<g>
				<polygon fill="#6F3417" points="49.6,42.9 34.6,42.9 34.6,42 52.2,42 				"/>
			</g>
			<g>
				<path fill="#6F3417" d="M59.9,76c-7.1,0-12.9-5.8-12.9-12.9c0-7.1,5.8-12.9,12.9-12.9c7.1,0,12.9,5.8,12.9,12.9
					C72.8,70.2,67.1,76,59.9,76z M59.9,51.2c-6.6,0-12,5.4-12,12c0,6.6,5.4,11.9,12,11.9c6.6,0,12-5.4,12-11.9
					C71.9,56.5,66.5,51.2,59.9,51.2z"/>
			</g>
			<g>
				<path fill="none" stroke="#6F3417" stroke-width="2" d="M85.4,84.3H34.6c-4.1,0-7.5-2.9-8.2-6.9c-0.1-0.5-0.1-0.9-0.1-1.3v-26
					c0-0.4,0-0.8,0.1-1.3c0.6-4,4.1-6.9,8.2-6.9l15,0c0.2-0.1,0.6-0.7,1.4-3.2c0.1-0.4,0.2-0.6,0.3-0.7l0.1-0.2
					c0.6-1.1,2-4.2,4.5-4.2h8.3c2.4,0,3.9,3,4.5,4.2l0.1,0.2c0,0.1,0.1,0.4,0.3,0.7c0.8,2.5,1.2,3.1,1.4,3.2h15.1
					c3.9,0,7.2,2.6,8.1,6.3c0.1,0.6,0.2,1.2,0.2,1.8v26c0,0.6-0.1,1.2-0.2,1.8C92.6,81.7,89.3,84.3,85.4,84.3z M34.6,42.9
					c-3.7,0-6.7,2.6-7.3,6.1c-0.1,0.4-0.1,0.8-0.1,1.1v26c0,0.3,0,0.7,0.1,1.1c0.6,3.5,3.6,6.1,7.3,6.1h50.9l0,0
					c3.5,0,6.4-2.3,7.2-5.6c0.1-0.5,0.2-1.1,0.2-1.6v-26c0-0.5-0.1-1.1-0.2-1.6c-0.8-3.3-3.7-5.6-7.2-5.6l-15.2,0
					c-0.8-0.1-1.4-1.4-2.2-3.8c-0.1-0.3-0.2-0.5-0.2-0.6l-0.1-0.2c-0.4-0.9-1.8-3.7-3.6-3.7h-8.3c-1.9,0-3.2,2.8-3.6,3.7l-0.1,0.2
					c0,0.1-0.1,0.3-0.2,0.6c-0.8,2.4-1.4,3.7-2.2,3.8l-0.1,0H34.6z M59.9,80.1c-9.4,0-17-7.6-17-17c0-9.4,7.6-17,17-17
					c9.4,0,17,7.6,17,17C77,72.5,69.3,80.1,59.9,80.1z M59.9,47c-8.9,0-16.1,7.2-16.1,16.1s7.2,16.1,16.1,16.1
					C68.8,79.2,76,72,76,63.1S68.8,47,59.9,47z"/>
			</g>
		</g>
	</g>
</g>
<g id="social_media" display="none">
	<g display="inline">
		<g>
			<path fill="#6F3417" d="M119.5,61.4c0,31.8-25.8,57.6-57.7,57.6C30,119,4.2,93.2,4.2,61.4C4.2,29.6,30,3.8,61.8,3.8
				C93.7,3.8,119.5,29.6,119.5,61.4z"/>
			<ellipse fill="#F1693C" cx="58.2" cy="58.6" rx="57.7" ry="57.6"/>
		</g>
		<g>
			<rect x="21.6" y="21" fill="#6F3417" width="73" height="75"/>
			<path fill="#F1693C" d="M19.4,19.7v39.7h39.7V19.7H19.4z M47.3,40.7h-4.4c0,7.1,0,15.8,0,15.8h-6.6c0,0,0-8.7,0-15.8h-3.1v-5.6
				h3.1v-3.6c0-2.6,1.2-6.6,6.6-6.6l4.9,0v5.4c0,0-3,0-3.5,0c-0.6,0-1.4,0.3-1.4,1.5v3.3h5L47.3,40.7z"/>
			<path fill="#F1693C" d="M57.9,19.7v39.7h39.7V19.7H57.9z M90.9,34.5c0,0.3,0,0.6,0,0.8c0,8.6-6.5,18.5-18.5,18.5
				c-3.7,0-7.1-1.1-10-2.9c0.5,0.1,1,0.1,1.6,0.1c3.1,0,5.9-1,8.1-2.8c-2.8-0.1-5.3-1.9-6.1-4.5c0.4,0.1,0.8,0.1,1.2,0.1
				c0.6,0,1.2-0.1,1.7-0.2c-3-0.6-5.2-3.2-5.2-6.4c0,0,0-0.1,0-0.1c0.9,0.5,1.9,0.8,2.9,0.8c-1.7-1.2-2.9-3.2-2.9-5.4
				c0-1.2,0.3-2.3,0.9-3.3c3.2,3.9,8,6.5,13.4,6.8c-0.1-0.5-0.2-1-0.2-1.5c0-3.6,2.9-6.5,6.5-6.5c1.9,0,3.6,0.8,4.7,2.1
				c1.5-0.3,2.9-0.8,4.1-1.6c-0.5,1.5-1.5,2.8-2.9,3.6c1.3-0.2,2.6-0.5,3.7-1C93.2,32.4,92.1,33.6,90.9,34.5z"/>
			<g>
				<path fill="#F1693C" d="M91.6,86.8L91.6,86.8C91.6,86.8,91.5,86.8,91.6,86.8L91.6,86.8z"/>
				<path fill="#F1693C" d="M57.9,57.4v39.7h39.7V57.4H57.9z M72.4,86.7h-4.3V73.9h4.3V86.7z M70.2,72.2L70.2,72.2
					c-1.5,0-2.4-1-2.4-2.2c0-1.3,1-2.2,2.4-2.2c1.5,0,2.4,1,2.4,2.2C72.6,71.2,71.7,72.2,70.2,72.2z M87.7,86.7h-4.2v-6.8
					c0-1.7-0.6-2.9-2.2-2.9c-1.2,0-1.9,0.8-2.2,1.6c-0.1,0.3-0.1,0.7-0.1,1v7.1h-4.2c0,0,0.1-11.6,0-12.8H79v1.8
					c0.6-0.9,1.6-2.1,3.8-2.1c2.8,0,4.9,1.8,4.9,5.8V86.7z"/>
			</g>
			<g>
				<path fill="#F1693C" d="M36.2,83.5c-3.8,0-6.9,2.4-6.9,5.2c0,2.9,2.7,5.2,6.5,5.2c5.3,0,7.1-2.2,7.1-5.1c0-0.3,0-0.7-0.1-1
					c-0.4-1.6-2.1-2.5-4.1-3.9C37.9,83.6,37.1,83.5,36.2,83.5z"/>
				<path fill="#F1693C" d="M19.4,57.4v39.7h39.7V57.4H19.4z M44,71.2c0,2.1-1.1,3.7-2.8,5c-1.6,1.2-1.9,1.8-1.9,2.8
					c0,0.9,1.9,2.2,2.8,2.9c3,2.3,3.6,3.7,3.6,6.5c0,3.5-3.8,7-10,7c-5.4,0-10-2.2-10-5.7c0-3.6,3.8-7.3,9.2-7.3c0.6,0,1.1,0,1.7,0
					c-0.7-0.7-1.3-1.3-1.3-2.4c0-0.6,0.2-1.3,0.5-1.8c-0.3,0-0.6,0-0.9,0c-4.5,0-7.1-3.1-7.1-7.1c0-3.8,4-7.3,8.7-7.3
					c2.4,0,9.3,0,9.3,0l-2.1,2.2h-2.5C43.1,66.9,44,68.9,44,71.2z M57.4,70.6h-4.3v4.3H51v-4.3h-4.3v-2.2H51v-4.3h2.2v4.3h4.3V70.6z
					"/>
				<path fill="#F1693C" d="M35.2,65.2c-2.5-0.1-4.2,2.5-3.8,5.8c0.4,3.3,2.8,5.6,5.3,5.7c2.5,0.1,4-2.1,3.5-5.4
					C39.8,68,37.7,65.3,35.2,65.2z"/>
			</g>
		</g>
	</g>
</g>
<g id="press_releases" display="none">
	<g display="inline">
		<g>
			<ellipse fill="#6F3417" cx="61.8" cy="61.4" rx="57.7" ry="57.6"/>
			<ellipse fill="#F1693C" cx="58.2" cy="58.6" rx="57.7" ry="57.6"/>
		</g>
		<g>
			<g>
				<path fill="#6F3417" d="M61.7,46.6c4.6-0.6,6.5-4.1,6.5-8.6l0-2.9h-1.6l0,2.3c0,5.9-2.3,7.6-6.5,7.6c-4.2,0-6.5-1.9-6.5-7.6
					l0-2.3h-1.7l0,2.9c0,4.5,2,7.9,6.6,8.6l0,4.5h3.3L61.7,46.6z"/>
			</g>
			<g>
				<path fill="#6F3417" d="M60,43.3L60,43.3c3.4,0,4.8-1.9,4.8-5.1V32c0-3.2-1.4-5.1-4.8-5.1h0c-3.4,0-4.8,2-4.8,5.1v6.2
					C55.2,41.3,56.6,43.3,60,43.3z"/>
			</g>
			<g>
				<path fill="#6F3417" d="M83.4,52.9H36.6c-1,0-1.8,0.6-1.8,1.4v5.6c0,0.8,0.4,2,0.8,2.7l5.6,8.7c0.3,0.5,1,0.9,1.7,1.1V58.7h34.3
					v13.7c0.7-0.2,1.4-0.6,1.7-1.1l5.6-8.7c0.4-0.7,0.8-1.9,0.8-2.7v-5.6C85.2,53.5,84.4,52.9,83.4,52.9z"/>
			</g>
			<g>
				<path fill="#6F3417" d="M75.3,65.2v-4.6H44.7v4.6c0,0,0,0,0,0v24.1c0,2,1.6,3.6,3.5,3.6h23.5c1.9,0,3.5-1.6,3.5-3.6L75.3,65.2
					C75.3,65.2,75.3,65.2,75.3,65.2z"/>
			</g>
			<g>
				<rect x="44.8" y="78.8" fill="#6F3417" width="30.5" height="14.4"/>
			</g>
		</g>
	</g>
</g>
<g id="professional_writing" display="none">
	<g display="inline">
		<g>
			<ellipse fill="#6F3417" cx="61.8" cy="61.4" rx="57.7" ry="57.6"/>
			<ellipse fill="#F1693C" cx="58.2" cy="58.6" rx="57.7" ry="57.6"/>
		</g>
		<g>
			<g>
				<path fill="#6F3417" d="M80.5,93.5H30V26.5h42l8.5,9.7v3.5l-5.1,8.8v-8.7h-8.3v-8.3H35v57h40.4V73.8l5.1-8.8V93.5z M30.9,92.6
					h48.7V68.4L76.4,74v15.4H34.1V30.6h34v8.3h8.3V45l3.2-5.6v-2.9l-8-9.2H30.9V92.6z"/>
			</g>
			<g>
				<path fill="#6F3417" d="M63.8,68.7H38.2v-5.1h28.5L63.8,68.7z M39.2,67.8h24.1l1.8-3.2h-26V67.8z"/>
			</g>
			<g>
				<path fill="#6F3417" d="M68.6,60.5H38.2v-5.1h33.2L68.6,60.5z M39.2,59.5h28.9l1.8-3.2H39.2V59.5z"/>
			</g>
			<g>
				<path fill="#6F3417" d="M55.7,48.1H38.2V43h17.5V48.1z M39.2,47.1h15.6v-3.2H39.2V47.1z"/>
			</g>
			<g>
				<path fill="#6F3417" d="M47.4,39.8h-9.2v-5.1h9.2V39.8z M39.2,38.9h7.4v-3.2h-7.4V38.9z"/>
			</g>
			<g>
				<path fill="#6F3417" d="M59.5,77H38.2v-5.1h23.7l-0.2,0.6c-0.2,0.5-0.2,1.1-0.2,1.7l0,0.3l-0.3,0.1c-0.8,0.4-1.4,1.1-1.7,1.9
					L59.5,77z M39.2,76.1h19.7c0.4-0.8,1-1.5,1.7-2c0-0.4,0-0.8,0.1-1.2H39.2V76.1z"/>
			</g>
			<g>
				<path fill="#6F3417" d="M58.9,85.3H38.2v-5.1h20.9l-0.4,3.4c0,0.3,0,0.7,0,1.1L58.9,85.3z M39.2,84.3h18.6c0-0.3,0-0.6,0-0.8
					l0.3-2.4H39.2V84.3z"/>
			</g>
			<g>
				<path fill="#6F3417" d="M84.1,54l5.7-10c0.4-0.7,0.2-1.7-0.6-2.1l-4.1-2.3c-0.7-0.4-1.7-0.2-2.1,0.6l-2.9,5.1V61L84.1,54z"/>
			</g>
			<g>
				<path fill="#6F3417" d="M68.8,76.8c0.4,0.2,0.7,0.5,1,0.8c0.4-0.1,0.8-0.3,1.1-0.7l0.2-0.4h-2.8L68.8,76.8z"/>
			</g>
			<g>
				<polygon fill="#6F3417" points="71.8,59.6 71.8,60 71.6,60 69.9,63 69.2,64.1 71.8,64.1 71.8,68.3 66.8,68.3 64.5,72.4 
					71.8,72.4 71.8,75.4 75.9,68.2 75.9,52.4 				"/>
			</g>
			<g>
				<polygon fill="#6F3417" points="75.9,52.4 75.9,68.2 78.9,63 80.1,61 80.1,45.2 76.8,51 				"/>
			</g>
			<g>
				<polygon fill="#6F3417" points="71.8,68.3 71.8,64.1 69.2,64.1 66.8,68.3 				"/>
			</g>
			<g>
				<polygon fill="#6F3417" points="71.8,60 71.8,59.6 71.6,60 				"/>
			</g>
			<g>
				<path fill="#6F3417" d="M63.9,74.2c0.3,0.1,0.6,0.2,0.8,0.3l3.5,2h2.8l0.7-1.1v-3h-7.3L64.1,73C63.9,73.4,63.9,73.8,63.9,74.2z"
					/>
			</g>
			<g>
				<path fill="#6F3417" d="M68.8,76.8l-0.5-0.3h-1.2l1.7,1c0.3,0.2,0.7,0.2,1.1,0.2C69.6,77.4,69.2,77.1,68.8,76.8z"/>
			</g>
			<g>
				<path fill="#6F3417" d="M64.7,75.2l2.4,1.4h1.2l-3.5-2c-0.3-0.2-0.5-0.3-0.8-0.3C64,74.6,64.3,74.9,64.7,75.2z"/>
			</g>
			<g>
				<path fill="#6F3417" d="M61.8,77.7l-0.3,2.9h6.3c0.1-0.1,0.2-0.3,0.2-0.4c-0.2-0.1-0.4-0.1-0.6-0.3l-4.1-2.3
					c-0.4-0.2-0.7-0.5-0.9-0.7C62.1,77,61.9,77.3,61.8,77.7z"/>
			</g>
			<g>
				<path fill="#6F3417" d="M61.1,83.9c-0.1,0.9,0.4,1.2,1.1,0.7l5.3-3.6c0.1-0.1,0.2-0.2,0.3-0.3h-6.3L61.1,83.9z"/>
			</g>
			<g>
				<path fill="#6F3417" d="M63.3,77.6l4.1,2.3c0.2,0.1,0.4,0.2,0.6,0.3c0-0.3-0.1-0.7-0.5-0.9L63.4,77c-0.4-0.2-0.7-0.2-1-0.1
					C62.6,77.2,62.9,77.4,63.3,77.6z"/>
			</g>
		</g>
	</g>
</g>
<g id="corporate_events" display="none">
	<g display="inline">
		<g>
			<ellipse fill="#6F3417" cx="61.8" cy="61.4" rx="57.7" ry="57.6"/>
			<ellipse fill="#F1693C" cx="58.2" cy="58.6" rx="57.7" ry="57.6"/>
		</g>
		<g>
			<g>
				<path fill="#6F3417" d="M45.1,40.8c0,2-1.7,3.7-3.7,3.7l0,0c-2,0-3.7-1.7-3.7-3.7v-6.9c0-2,1.7-3.7,3.7-3.7l0,0
					c2,0,3.7,1.7,3.7,3.7V40.8z"/>
			</g>
			<g>
				<rect x="46.9" y="36.8" fill="#6F3417" width="26.7" height="1.7"/>
			</g>
			<g>
				<path fill="#6F3417" d="M85.6,36.8h-1v1.7h1c3.2,0,5.8,2.6,5.8,5.7v38.1c0,3.2-2.6,5.7-5.8,5.7H34.4c-3.2,0-5.8-2.6-5.8-5.7
					V44.3c0-3.2,2.6-5.7,5.8-5.7H36v-1.7h-1.6c-4.2,0-7.6,3.3-7.6,7.5v38.1c0,4.1,3.4,7.5,7.6,7.5h51.2c4.2,0,7.6-3.3,7.6-7.5V44.3
					C93.2,40.2,89.8,36.8,85.6,36.8z"/>
			</g>
			<g>
				<path fill="#6F3417" d="M82.8,41c0,2-1.7,3.7-3.7,3.7l0,0c-2,0-3.7-1.7-3.7-3.7v-6.9c0-2,1.7-3.7,3.7-3.7l0,0
					c2,0,3.7,1.7,3.7,3.7V41z"/>
			</g>
			<g>
				<g>
					<g>
						<rect x="77.2" y="56.3" fill="#6F3417" width="7.2" height="7.2"/>
					</g>
					<g>
						<rect x="66.8" y="56.3" fill="#6F3417" width="7.2" height="7.2"/>
					</g>
					<g>
						<rect x="56.5" y="56.3" fill="#6F3417" width="7.2" height="7.2"/>
					</g>
					<g>
						<rect x="46.1" y="56.3" fill="#6F3417" width="7.2" height="7.2"/>
					</g>
					<g>
						<rect x="35.7" y="56.3" fill="#6F3417" width="7.2" height="7.2"/>
					</g>
				</g>
				<g>
					<g>
						<rect x="77.2" y="66.3" fill="#6F3417" width="7.2" height="7.2"/>
					</g>
					<g>
						<rect x="66.8" y="66.3" fill="#6F3417" width="7.2" height="7.2"/>
					</g>
					<g>
						<rect x="56.5" y="66.3" fill="#6F3417" width="7.2" height="7.2"/>
					</g>
					<g>
						<rect x="46.1" y="66.3" fill="#6F3417" width="7.2" height="7.2"/>
					</g>
					<g>
						<rect x="35.7" y="66.3" fill="#6F3417" width="7.2" height="7.2"/>
					</g>
				</g>
				<g>
					<g>
						<rect x="77.2" y="76.2" fill="#6F3417" width="7.2" height="7.2"/>
					</g>
					<g>
						<rect x="66.8" y="76.2" fill="#6F3417" width="7.2" height="7.2"/>
					</g>
					<g>
						<rect x="56.5" y="76.2" fill="#6F3417" width="7.2" height="7.2"/>
					</g>
					<g>
						<rect x="46.1" y="76.2" fill="#6F3417" width="7.2" height="7.2"/>
					</g>
					<g>
						<rect x="35.7" y="76.2" fill="#6F3417" width="7.2" height="7.2"/>
					</g>
				</g>
			</g>
			<g>
				<g>
					<path fill="#6F3417" d="M68.9,53.2v-0.4l0.6-0.5c1.3-1.3,1.9-1.9,1.9-2.7c0-0.5-0.3-1-1-1c-0.5,0-0.9,0.2-1.1,0.4l-0.2-0.5
						c0.4-0.3,0.9-0.5,1.5-0.5c1.1,0,1.6,0.8,1.6,1.5c0,1-0.7,1.7-1.8,2.8l-0.4,0.4v0h2.3v0.6H68.9z"/>
				</g>
				<g>
					<path fill="#6F3417" d="M76.5,50.5c0,1.8-0.7,2.7-1.8,2.7c-1,0-1.7-0.9-1.7-2.7c0-1.7,0.7-2.7,1.8-2.7
						C75.8,47.9,76.5,48.9,76.5,50.5z M73.6,50.6c0,1.3,0.4,2.1,1.1,2.1c0.7,0,1.1-0.8,1.1-2.2c0-1.3-0.3-2.1-1.1-2.1
						C74.1,48.4,73.6,49.2,73.6,50.6z"/>
				</g>
				<g>
					<path fill="#6F3417" d="M78.6,48.6L78.6,48.6l-0.9,0.5l-0.1-0.5l1.1-0.6h0.6v5.2h-0.7V48.6z"/>
				</g>
				<g>
					<path fill="#6F3417" d="M84.3,48.6h-2l-0.2,1.3c0.1,0,0.2,0,0.4,0c0.4,0,0.8,0.1,1.1,0.3c0.4,0.2,0.7,0.7,0.7,1.3
						c0,1-0.8,1.8-1.9,1.8c-0.6,0-1-0.2-1.3-0.3l0.2-0.5c0.2,0.1,0.6,0.3,1.1,0.3c0.7,0,1.2-0.4,1.2-1.1c0-0.7-0.5-1.1-1.5-1.1
						c-0.3,0-0.5,0-0.7,0.1l0.3-2.5h2.5V48.6z"/>
				</g>
			</g>
		</g>
	</g>
</g>
<g id="business_planning" display="none">
	<g display="inline">
		<g>
			<ellipse fill="#6F3417" cx="61.8" cy="61.4" rx="57.7" ry="57.6"/>
			<ellipse fill="#F1693C" cx="58.2" cy="58.6" rx="57.7" ry="57.6"/>
		</g>
		<g>
			<g>
				<rect x="37.5" y="76" fill="#6F3417" width="10.7" height="5.1"/>
			</g>
			<g>
				<rect x="52.9" y="76" fill="#6F3417" width="30.8" height="5.1"/>
			</g>
			<g>
				<g>
					<path fill="#6F3417" d="M53.3,61.1H37V44.8h16.3V61.1z M37.9,60.2h14.5V45.7H37.9V60.2z"/>
				</g>
				<g>
					<polygon fill="#6F3417" points="62.8,27 47.4,27 47.4,30.6 47.4,34.3 47.4,37.9 73,37.9 73,34.3 73,30.6 73,27 					"/>
				</g>
				<g>
					<path fill="#6F3417" d="M83.4,93H36.6c-5.7,0-10.2-5.9-10.2-13.5V43.7c0-7.6,4.5-13.5,10.2-13.5h6.7v6h-6.7
						c-2,0-4.2,3.2-4.2,7.5v35.7c0,4.3,2.2,7.5,4.2,7.5h46.8c2,0,4.2-3.2,4.2-7.5V43.7c0-4.3-2.2-7.5-4.2-7.5h-6.3v-6h6.3
						c5.7,0,10.2,5.9,10.2,13.5v35.7C93.6,87,89.1,93,83.4,93z M36.6,31.1c-5.2,0-9.3,5.5-9.3,12.6v35.7c0,7.1,4.1,12.6,9.3,12.6
						h46.8c5.2,0,9.3-5.5,9.3-12.6V43.7c0-7.1-4.1-12.6-9.3-12.6H78v4.2h5.3c2.5,0,5.1,3.4,5.1,8.4v35.7c0,5.1-2.7,8.4-5.1,8.4H36.6
						c-2.5,0-5.1-3.4-5.1-8.4V43.7c0-5.1,2.7-8.4,5.1-8.4h5.8v-4.2H36.6z"/>
				</g>
				<g>
					<polygon fill="#6F3417" points="72.2,54.8 72.2,59.8 58.5,59.8 58.5,46.1 72.2,46.1 72.2,47.3 73.1,46.4 73.1,45.2 57.6,45.2 
						57.6,60.7 73.1,60.7 73.1,53.9 					"/>
				</g>
				<g>
					<polygon fill="#6F3417" points="79.9,40.9 67.7,53.1 62.7,48.2 60.3,50.7 65.2,55.6 67.7,58.1 70.1,55.6 82.4,43.4 					"/>
				</g>
				<g>
					<rect x="37.5" y="65.8" fill="#6F3417" width="10.7" height="5.1"/>
				</g>
				<g>
					<rect x="52.9" y="65.8" fill="#6F3417" width="30.8" height="5.1"/>
				</g>
			</g>
		</g>
	</g>
</g>
<g id="content_management">
	<g>
		<g>
			<ellipse fill="#6F3417" cx="61.8" cy="61.4" rx="57.7" ry="57.6"/>
			<ellipse fill="#F1693C" cx="58.2" cy="58.6" rx="57.7" ry="57.6"/>
		</g>
		<g>
			<g>
				<path fill="#6F3417" d="M87.3,43c0-3.4-3.1-6.2-6.8-6.2h-41c-3.8,0-6.8,2.8-6.8,6.2v32h54.7V43z M34.1,73.3V43
					c0-2.5,2.4-4.5,5.4-4.5h41c3,0,5.4,2,5.4,4.5v30.3H34.1z"/>
			</g>
			<g>
				<path fill="#6F3417" d="M90.6,76h-3.5H32.5h-3.1c-1.2,0-2.2,1.6-2.2,3.6s1,3.6,2.2,3.6h3.7h53.4h4.1c1.2,0,2.2-1.6,2.2-3.6
					S91.8,76,90.6,76z M88.8,80.1h-2.7c-0.3,0-0.6-0.2-0.6-0.5c0-0.3,0.3-0.5,0.6-0.5h2.7c0.3,0,0.6,0.2,0.6,0.5
					C89.4,79.9,89.1,80.1,88.8,80.1z"/>
			</g>
			<g>
				<rect x="37.2" y="43" fill="#6F3417" width="46.1" height="11.8"/>
			</g>
			<g>
				<g>
					<rect x="70.1" y="57" fill="#6F3417" width="13.2" height="2.5"/>
				</g>
				<g>
					<rect x="70.1" y="65.9" fill="#6F3417" width="13.2" height="2.5"/>
				</g>
				<g>
					<rect x="70.1" y="61.4" fill="#6F3417" width="13.2" height="2.5"/>
				</g>
			</g>
			<g>
				<g>
					<rect x="53.7" y="57" fill="#6F3417" width="13.2" height="2.5"/>
				</g>
				<g>
					<rect x="53.7" y="65.9" fill="#6F3417" width="13.2" height="2.5"/>
				</g>
				<g>
					<rect x="53.7" y="61.4" fill="#6F3417" width="13.2" height="2.5"/>
				</g>
			</g>
			<g>
				<g>
					<rect x="37.2" y="57" fill="#6F3417" width="13.2" height="2.5"/>
				</g>
				<g>
					<rect x="37.2" y="65.9" fill="#6F3417" width="13.2" height="2.5"/>
				</g>
				<g>
					<rect x="37.2" y="61.4" fill="#6F3417" width="13.2" height="2.5"/>
				</g>
			</g>
		</g>
	</g>
</g>
</svg>
