<?xml version="1.0" encoding="utf-8"?>
<!-- Generator: Adobe Illustrator 19.0.1, SVG Export Plug-In . SVG Version: 6.00 Build 0)  -->
<svg version="1.1" id="Layer_1" xmlns="http://www.w3.org/2000/svg" xmlns:xlink="http://www.w3.org/1999/xlink" x="0px" y="0px"
	 viewBox="-261 183.8 115.4 115.2" style="enable-background:new -261 183.8 115.4 115.2;" xml:space="preserve">
<style type="text/css">
	.st0{fill:#6F3417;}
	.st1{fill:#F1693C;}
	.st2{fill:#FFFFFF;}
</style>
<g>
	<g>
		<ellipse class="st0" cx="-202.9" cy="240.8" rx="54.4" ry="54.3"/>
		<ellipse class="st1" cx="-203.3" cy="241.4" rx="57.7" ry="57.7"/>
	</g>
	<g>
		<g>
			<path class="st2" d="M-174.1,225.7c0-3.4-3.1-6.2-6.9-6.2h-41c-3.8,0-6.9,2.8-6.9,6.2v32h54.7V225.7L-174.1,225.7z M-227.4,256.1
				v-30.3c0-2.5,2.4-4.5,5.4-4.5h41c3,0,5.4,2,5.4,4.5v30.3H-227.4z"/>
		</g>
		<g>
			<path class="st2" d="M-170.9,258.8h-3.5h-54.7h-3.1c-1.2,0-2.3,1.6-2.3,3.6s1,3.6,2.3,3.6h3.7h53.4h4.1c1.2,0,2.3-1.6,2.3-3.6
				S-169.6,258.8-170.9,258.8z M-172.7,262.9h-2.7c-0.3,0-0.6-0.2-0.6-0.5c0-0.3,0.3-0.5,0.6-0.5h2.7c0.3,0,0.6,0.2,0.6,0.5
				C-172.1,262.6-172.4,262.9-172.7,262.9z"/>
		</g>
		<g>
			<rect x="-224.3" y="225.7" class="st2" width="46.1" height="11.8"/>
		</g>
		<g>
			<g>
				<rect x="-191.4" y="239.7" class="st2" width="13.2" height="2.5"/>
			</g>
			<g>
				<rect x="-191.4" y="248.7" class="st2" width="13.2" height="2.5"/>
			</g>
			<g>
				<rect x="-191.4" y="244.2" class="st2" width="13.2" height="2.5"/>
			</g>
		</g>
		<g>
			<g>
				<rect x="-207.8" y="239.7" class="st2" width="13.2" height="2.5"/>
			</g>
			<g>
				<rect x="-207.8" y="248.7" class="st2" width="13.2" height="2.5"/>
			</g>
			<g>
				<rect x="-207.8" y="244.2" class="st2" width="13.2" height="2.5"/>
			</g>
		</g>
		<g>
			<g>
				<rect x="-224.2" y="239.7" class="st2" width="13.2" height="2.5"/>
			</g>
			<g>
				<rect x="-224.2" y="248.7" class="st2" width="13.2" height="2.5"/>
			</g>
			<g>
				<rect x="-224.2" y="244.2" class="st2" width="13.2" height="2.5"/>
			</g>
		</g>
	</g>
</g>
</svg>
