<?xml version="1.0" encoding="utf-8"?>
<!-- Generator: Adobe Illustrator 19.0.1, SVG Export Plug-In . SVG Version: 6.00 Build 0)  -->
<svg version="1.1" id="Layer_1" xmlns="http://www.w3.org/2000/svg" xmlns:xlink="http://www.w3.org/1999/xlink" x="0px" y="0px"
	 viewBox="-261 183.8 115.4 115.2" style="enable-background:new -261 183.8 115.4 115.2;" xml:space="preserve">
<style type="text/css">
	.st0{fill:#6F3417;}
	.st1{fill:#F1693C;}
	.st2{fill:#FFFFFF;}
</style>
<g>
	<g>
		<ellipse class="st0" cx="-202.7" cy="241.1" rx="54.5" ry="54.5"/>
		<ellipse class="st1" cx="-203.3" cy="241.4" rx="57.7" ry="57.7"/>
	</g>
	<g>
		<g>
			<path class="st2" d="M-216.3,223.6c0,2-1.7,3.7-3.7,3.7l0,0c-2,0-3.7-1.7-3.7-3.7v-7c0-2,1.7-3.7,3.7-3.7l0,0
				c2,0,3.7,1.7,3.7,3.7V223.6z"/>
		</g>
		<g>
			<rect x="-214.6" y="219.6" class="st2" width="26.7" height="1.7"/>
		</g>
		<g>
			<path class="st2" d="M-175.9,219.6h-1v1.7h1c3.2,0,5.8,2.6,5.8,5.7v38.2c0,3.2-2.6,5.7-5.8,5.7h-51.3c-3.2,0-5.8-2.6-5.8-5.7
				v-38.2c0-3.2,2.6-5.7,5.8-5.7h1.6v-1.7h-1.6c-4.2,0-7.6,3.3-7.6,7.5v38.2c0,4.1,3.4,7.5,7.6,7.5h51.3c4.2,0,7.6-3.3,7.6-7.5
				v-38.2C-168.3,223-171.7,219.6-175.9,219.6z"/>
		</g>
		<g>
			<path class="st2" d="M-178.6,223.8c0,2-1.7,3.7-3.7,3.7l0,0c-2,0-3.7-1.7-3.7-3.7v-7c0-2,1.7-3.7,3.7-3.7l0,0
				c2,0,3.7,1.7,3.7,3.7V223.8z"/>
		</g>
		<g>
			<g>
				<g>
					<rect x="-184.3" y="239.1" class="st2" width="7.2" height="7.2"/>
				</g>
				<g>
					<rect x="-194.6" y="239.1" class="st2" width="7.2" height="7.2"/>
				</g>
				<g>
					<rect x="-205" y="239.1" class="st2" width="7.2" height="7.2"/>
				</g>
				<g>
					<rect x="-215.4" y="239.1" class="st2" width="7.2" height="7.2"/>
				</g>
				<g>
					<rect x="-225.7" y="239.1" class="st2" width="7.2" height="7.2"/>
				</g>
			</g>
			<g>
				<g>
					<rect x="-184.3" y="249.1" class="st2" width="7.2" height="7.2"/>
				</g>
				<g>
					<rect x="-194.6" y="249.1" class="st2" width="7.2" height="7.2"/>
				</g>
				<g>
					<rect x="-205" y="249.1" class="st2" width="7.2" height="7.2"/>
				</g>
				<g>
					<rect x="-215.4" y="249.1" class="st2" width="7.2" height="7.2"/>
				</g>
				<g>
					<rect x="-225.7" y="249.1" class="st2" width="7.2" height="7.2"/>
				</g>
			</g>
			<g>
				<g>
					<rect x="-184.3" y="259" class="st2" width="7.2" height="7.2"/>
				</g>
				<g>
					<rect x="-194.6" y="259" class="st2" width="7.2" height="7.2"/>
				</g>
				<g>
					<rect x="-205" y="259" class="st2" width="7.2" height="7.2"/>
				</g>
				<g>
					<rect x="-215.4" y="259" class="st2" width="7.2" height="7.2"/>
				</g>
				<g>
					<rect x="-225.7" y="259" class="st2" width="7.2" height="7.2"/>
				</g>
			</g>
		</g>
		<g>
			<g>
				<path class="st2" d="M-192.5,236v-0.4l0.6-0.5c1.3-1.3,1.9-1.9,1.9-2.7c0-0.5-0.3-1-1-1c-0.5,0-0.9,0.2-1.1,0.4l-0.2-0.5
					c0.4-0.3,0.9-0.5,1.5-0.5c1.1,0,1.6,0.8,1.6,1.5c0,1-0.7,1.7-1.8,2.8l-0.4,0.4l0,0h2.4v0.6L-192.5,236L-192.5,236L-192.5,236z"
					/>
			</g>
			<g>
				<path class="st2" d="M-185,233.3c0,1.8-0.7,2.7-1.8,2.7c-1,0-1.7-0.9-1.7-2.7s0.7-2.7,1.8-2.7S-185,231.7-185,233.3z
					 M-187.7,233.4c0,1.3,0.4,2.1,1.1,2.1c0.7,0,1.1-0.8,1.1-2.3c0-1.3-0.3-2.1-1.1-2.1C-187.3,231.2-187.7,232-187.7,233.4z"/>
			</g>
			<g>
				<path class="st2" d="M-182.7,231.4L-182.7,231.4l-0.9,0.5l-0.1-0.5l1.1-0.6h0.6v5.2h-0.7L-182.7,231.4L-182.7,231.4z"/>
			</g>
			<g>
				<path class="st2" d="M-177.2,231.4h-2l-0.2,1.3c0.1,0,0.2,0,0.4,0c0.4,0,0.8,0.1,1.1,0.3c0.4,0.2,0.7,0.7,0.7,1.3
					c0,1-0.8,1.8-1.9,1.8c-0.6,0-1-0.2-1.3-0.3l0.2-0.5c0.2,0.1,0.6,0.3,1.1,0.3c0.7,0,1.2-0.4,1.2-1.1c0-0.7-0.5-1.1-1.5-1.1
					c-0.3,0-0.5,0-0.7,0.1l0.3-2.5h2.5L-177.2,231.4L-177.2,231.4z"/>
			</g>
		</g>
	</g>
</g>
</svg>
