<?xml version="1.0" encoding="utf-8"?>
<!-- Generator: Adobe Illustrator 19.0.1, SVG Export Plug-In . SVG Version: 6.00 Build 0)  -->
<svg version="1.1" id="Layer_1" xmlns="http://www.w3.org/2000/svg" xmlns:xlink="http://www.w3.org/1999/xlink" x="0px" y="0px"
	 viewBox="0 0 369.3 64.8" enable-background="new 0 0 369.3 64.8" xml:space="preserve">
<g>
	<g>
		<path fill="#F1683C" d="M104.9,37.8l-10-14.1h-4.1v-4.2h13.8v4.2h-4.2l7.4,10.3l6.8-10.3h-4.2v-4.2h13.4v4.2h-4.4l-9.3,14.1v11.1
			h4.6v4.2h-14.1v-4.2h4.5V37.8z"/>
		<path fill="#F1683C" d="M142.7,53.1h-8.1v-2.9c-2.9,2.4-4.9,3.3-7.5,3.3c-4.4,0-7.9-3.3-7.9-7.4c0-4.2,3.7-7.6,8.5-7.6
			c2.1,0,4.5,0.7,6.4,2v-3.1c0-3.3-2.4-4.5-5.2-4.5c-2.2,0-3.9,0.9-5,2.8l-4.4-1.2c2-3.6,5.3-5.4,10.1-5.4c6.8,0,9.1,3.4,9.1,7.2
			v12.8h4V53.1z M134.1,44.4c-2-1.5-4-2.3-6-2.3c-2.6,0-4.4,1.7-4.4,4c0,2.3,1.7,3.9,4.2,3.9c2.1,0,4.4-1,6.3-2.8V44.4z"/>
		<path fill="#F1683C" d="M150.6,23.6h-4.2v-4h8.8v20.9l8.7-6.9v-0.1h-3.9v-3.8h12.9v3.8h-3.6l-8.7,7.3l8.2,8.2h4v4H167l-11.8-11.8
			v7.7h3.5v4h-12.3v-4h4.2V23.6z"/>
		<path fill="#F1683C" d="M180.9,23.6h-4.2v-4h8.8v20.9l8.7-6.9v-0.1h-3.9v-3.8h12.9v3.8h-3.6l-8.7,7.3l8.2,8.2h4v4h-5.9l-11.8-11.8
			v7.7h3.5v4h-12.3v-4h4.2V23.6z"/>
		<path fill="#F1683C" d="M211.2,42.6c0.7,4.5,3.7,7.2,8,7.2c3,0,5.8-1.3,7.6-3.8l4,1.8c-2.5,3.9-6.7,6.1-11.7,6.1
			c-7.6,0-13-5.1-13-12.3c0-7.6,6.2-12.3,12.2-12.3c6.5,0,12.4,4.9,12.4,13.5H211.2z M226.1,39.2c-0.7-3.7-4-6.4-7.7-6.4
			c-3.7,0-6.4,2.5-7.1,6.4H226.1z"/>
		<path fill="#F1683C" d="M233.2,29.8h3v-3.6l4.6-4.2v7.8h4.3v4h-4.3v13.5c0,2.3,2,2.2,4.3,1.4v4.1c-1.1,0.3-2.3,0.6-3.4,0.6
			c-3.3,0-5.5-1.5-5.5-5.5V33.8h-3V29.8z"/>
		<path fill="#F1683C" d="M252.9,33.8H249v-4h11.6v4h-2.8l5,12.9l4.9-12.9h-3.1v-4h11.3v4h-3.5l-11.6,29.7h-7.8v-4h4.6l2.8-6.9
			L252.9,33.8z"/>
		<path fill="#F1683C" d="M297.4,37.8l-10-14.1h-4.1v-4.2h13.8v4.2h-4.2l7.4,10.3l6.8-10.3h-4.2v-4.2h13.4v4.2h-4.4l-9.3,14.1v11.1
			h4.6v4.2h-14.1v-4.2h4.5V37.8z"/>
		<path fill="#F1683C" d="M336.2,53.1h-8.1v-2.9c-2.9,2.4-4.9,3.3-7.5,3.3c-4.4,0-7.9-3.3-7.9-7.4c0-4.2,3.7-7.6,8.5-7.6
			c2.1,0,4.5,0.7,6.4,2v-3.1c0-3.3-2.4-4.5-5.2-4.5c-2.2,0-3.9,0.9-5,2.8l-4.4-1.2c2-3.6,5.3-5.4,10.1-5.4c6.8,0,9.1,3.4,9.1,7.2
			v12.8h4V53.1z M327.6,44.4c-2-1.5-4-2.3-6-2.3c-2.6,0-4.4,1.7-4.4,4c0,2.3,1.7,3.9,4.2,3.9c2.1,0,4.4-1,6.3-2.8V44.4z"/>
		<path fill="#F1683C" d="M344.1,23.6h-4.2v-4h8.8v20.9l8.7-6.9v-0.1h-3.9v-3.8h12.9v3.8h-3.6l-8.7,7.3l8.2,8.2h4v4h-5.9l-11.8-11.8
			v7.7h3.5v4h-12.3v-4h4.2V23.6z"/>
	</g>
	<g>
		<path fill="#666565" d="M58.3,21.9L58.3,21.9l-0.7-0.3c0,0,0,0,0,0l0,0C57.8,21.7,58.1,21.8,58.3,21.9z"/>
		<g>
			<g>
				<g>
					<path fill="#666565" d="M10.7,54.4c-3.3,0-6.2-0.9-8.1-2.3c0.6,3.1,4.7,5.5,9.7,5.5h46c5,0,9.1-2.4,9.7-5.5
						c-1.9,1.4-4.8,2.3-8.1,2.3H10.7z"/>
					<path d="M35.3,30.3c12.1,0,21.9-3.3,21.9-7.5c0,0,0-0.1,0-0.1c-0.9-0.3-1.8-0.5-2.8-0.5H16.2c-1,0-1.9,0.2-2.8,0.5
						c0,0,0,0.1,0,0.1C13.4,26.9,23.2,30.3,35.3,30.3z"/>
					<path d="M62.5,37.6V34v-3.7c0-3.5-2.2-6.4-5.3-7.6c0,0,0,0.1,0,0.1c0,4.1-9.8,7.5-21.9,7.5c-12.1,0-21.9-3.3-21.9-7.5
						c0,0,0-0.1,0-0.1c-3.1,1.1-5.3,4.1-5.3,7.6V34v3.6c-3.3,1-5.5,3.1-5.5,5.6v7.1c0,0.2,0,0.5,0.1,0.7c1.9,1.4,4.8,2.3,8.1,2.3
						h49.1c3.3,0,6.2-0.9,8.1-2.3c0-0.2,0.1-0.5,0.1-0.7v-7.1C68,40.7,65.7,38.6,62.5,37.6z"/>
					<path fill="#666565" d="M35.3,30.3c12.1,0,21.9-3.3,21.9-7.5c0,0,0-0.1,0-0.1c-0.9-0.3-1.8-0.5-2.8-0.5H16.2
						c-1,0-1.9,0.2-2.8,0.5c0,0,0,0.1,0,0.1C13.4,26.9,23.2,30.3,35.3,30.3z"/>
				</g>
				<g>
					<g>
						<path fill="#898989" d="M-42.9-248.3c-1.1,1.3-2.4,2.5-3.7,3.7l0.2-0.4c0,1.5,0,3,0,4.6c-0.1,1.5-0.2,3-0.4,4.6
							c-0.3-1.5-0.4-3-0.4-4.6c-0.1-1.5-0.1-3,0-4.6l0-0.2l0.2-0.1C-45.8-246.4-44.4-247.4-42.9-248.3z"/>
					</g>
					<g>
						<path fill="#898989" d="M-39.4-248.3c-0.4,0.9-0.8,1.8-1.2,2.6c-0.4,0.9-0.9,1.7-1.4,2.5l0.1-0.2c0.1,1.3,0.1,2.5,0,3.8
							c-0.1,1.3-0.2,2.5-0.4,3.8c-0.3-1.3-0.4-2.5-0.5-3.8c-0.1-1.3-0.1-2.5,0-3.8l0-0.1l0.1-0.1c0.5-0.8,1.1-1.6,1.6-2.4
							C-40.6-246.8-40.1-247.5-39.4-248.3z"/>
					</g>
					<g>
						<path fill="#898989" d="M-36-248.3c-0.4,2-1,4-1.6,6l0-0.1c0.1,1.1,0.1,2.2,0,3.3c-0.1,1.1-0.2,2.2-0.5,3.3
							c-0.3-1.1-0.4-2.2-0.5-3.3c-0.1-1.1-0.1-2.2,0-3.3l0-0.1l0,0C-37.7-244.5-36.9-246.4-36-248.3z"/>
					</g>
					<g>
						<path fill="#898989" d="M-32.6-248.3c-0.1,2.1-0.3,4.3-0.6,6.4l0-0.1c0,0.5,0.1,1,0.1,1.6c0,0.5,0,1,0,1.6
							c-0.1,1-0.2,2.1-0.5,3.1c-0.3-1-0.4-2.1-0.5-3.1c0-0.5,0-1,0-1.6c0-0.5,0-1,0.1-1.6l0-0.1v0
							C-33.6-244.2-33.1-246.3-32.6-248.3z"/>
					</g>
					<g>
						<path fill="#898989" d="M-29.1-248.3c0,0,0.2,0.8,0.3,2c0.1,1.2,0.2,2.8,0.2,4.3c0,1.6-0.1,3.1-0.2,4.3c-0.1,1.2-0.3,2-0.3,2
							s-0.2-0.8-0.3-2c-0.1-1.2-0.2-2.8-0.2-4.3c0-1.6,0.1-3.1,0.2-4.3C-29.3-247.5-29.1-248.3-29.1-248.3z"/>
					</g>
					<g>
						<path fill="#898989" d="M-25.5-248.3c0.6,2.1,1,4.2,1.4,6.3l0,0.1c0,0.5,0.1,1,0.1,1.5c0,0.5,0,1,0,1.5
							c-0.1,1-0.2,2.1-0.5,3.1c-0.3-1-0.4-2.1-0.5-3.1c0-0.5,0-1,0-1.5c0-0.5,0-1,0.1-1.5l0,0.1C-25.2-244-25.4-246.1-25.5-248.3z"
							/>
					</g>
					<g>
						<path fill="#898989" d="M-21.8-248.3c0.9,1.9,1.7,3.8,2.4,5.8l0,0l0,0.1c0.1,1.1,0.1,2.2,0,3.3c-0.1,1.1-0.2,2.2-0.5,3.3
							c-0.3-1.1-0.4-2.2-0.5-3.3c-0.1-1.1-0.1-2.2,0-3.3l0,0.1C-20.9-244.2-21.4-246.2-21.8-248.3z"/>
					</g>
					<g>
						<path fill="#898989" d="M-18.2-248.3c0.6,0.7,1.2,1.5,1.7,2.3c0.6,0.8,1.1,1.6,1.6,2.4l0.1,0.1l0,0.1c0.1,1.3,0.1,2.5,0,3.8
							c-0.1,1.3-0.2,2.5-0.4,3.8c-0.3-1.3-0.4-2.5-0.5-3.8c-0.1-1.3-0.1-2.5,0-3.8l0.1,0.2c-0.5-0.8-0.9-1.7-1.4-2.5
							C-17.4-246.5-17.8-247.4-18.2-248.3z"/>
					</g>
					<g>
						<path fill="#898989" d="M-14.5-248.3c1.5,0.9,2.9,1.9,4.3,3l0.2,0.1l0,0.2c0,1.5,0,3,0,4.6c-0.1,1.5-0.2,3-0.4,4.6
							c-0.3-1.5-0.4-3-0.4-4.6c-0.1-1.5-0.1-3,0-4.6l0.2,0.4C-12.2-245.7-13.4-246.9-14.5-248.3z"/>
					</g>
				</g>
			</g>
			<g>
				<g>
					<g>
						<rect x="14.2" y="40" fill="#666565" width="12.9" height="2.3"/>
						<path fill="#666565" d="M27.1,42.2c0,0.8-0.6,1.5-1.3,1.5H15.4c-0.7,0-1.3-0.7-1.3-1.5l0,0c0-0.8,0.6-1.5,1.3-1.5h10.4
							C26.6,40.7,27.1,41.4,27.1,42.2L27.1,42.2z"/>
					</g>
					<g>
						<rect x="28.7" y="40" fill="#666565" width="12.9" height="2.3"/>
						<path fill="#666565" d="M41.7,42.2c0,0.8-0.6,1.5-1.3,1.5H30c-0.7,0-1.3-0.7-1.3-1.5l0,0c0-0.8,0.6-1.5,1.3-1.5h10.4
							C41.1,40.7,41.7,41.4,41.7,42.2L41.7,42.2z"/>
					</g>
					<g>
						<rect x="43.3" y="40" fill="#666565" width="12.9" height="2.3"/>
						<path fill="#666565" d="M56.2,42.2c0,0.8-0.6,1.5-1.3,1.5H44.5c-0.7,0-1.3-0.7-1.3-1.5l0,0c0-0.8,0.6-1.5,1.3-1.5h10.4
							C55.6,40.7,56.2,41.4,56.2,42.2L56.2,42.2z"/>
					</g>
				</g>
				<g>
					<g>
						<rect x="7" y="45.5" fill="#666565" width="12.9" height="2.3"/>
						<path fill="#666565" d="M19.9,47.7c0,0.8-0.6,1.5-1.3,1.5H8.2c-0.7,0-1.3-0.7-1.3-1.5l0,0c0-0.8,0.6-1.5,1.3-1.5h10.4
							C19.3,46.2,19.9,46.9,19.9,47.7L19.9,47.7z"/>
					</g>
					<g>
						<rect x="21.5" y="45.5" fill="#666565" width="12.9" height="2.3"/>
						<path fill="#666565" d="M34.4,47.7c0,0.8-0.6,1.5-1.3,1.5H22.7c-0.7,0-1.3-0.7-1.3-1.5l0,0c0-0.8,0.6-1.5,1.3-1.5h10.4
							C33.8,46.2,34.4,46.9,34.4,47.7L34.4,47.7z"/>
					</g>
					<g>
						<rect x="36" y="45.5" fill="#666565" width="12.9" height="2.3"/>
						<path fill="#666565" d="M48.9,47.7c0,0.8-0.6,1.5-1.3,1.5H37.2c-0.7,0-1.3-0.7-1.3-1.5l0,0c0-0.8,0.6-1.5,1.3-1.5h10.4
							C48.4,46.2,48.9,46.9,48.9,47.7L48.9,47.7z"/>
					</g>
					<g>
						<rect x="50.5" y="45.5" fill="#666565" width="12.9" height="2.3"/>
						<path fill="#666565" d="M63.4,47.7c0,0.8-0.6,1.5-1.3,1.5H51.7c-0.7,0-1.3-0.7-1.3-1.5l0,0c0-0.8,0.6-1.5,1.3-1.5h10.4
							C62.9,46.2,63.4,46.9,63.4,47.7L63.4,47.7z"/>
					</g>
				</g>
			</g>
		</g>
		<path fill="none" stroke="#898989" stroke-miterlimit="10" d="M34.1,24.5"/>
		<rect x="13.4" y="2.5" fill="#898989" width="43.8" height="15.7"/>
		<g>
			<path fill="#666565" d="M6.3,24.9h2.4c0.9-1.3,2.1-2.3,3.6-2.9c0.2-0.1,0.5-0.2,0.7-0.3l0,0c0.5-0.2,1.1-0.3,1.6-0.4
				c0.5-0.1,1.1-0.1,1.6-0.1h38.2c0.5,0,1.1,0,1.6,0.1c0.5,0.1,1.1,0.2,1.6,0.4c0,0,0,0,0,0l0.7,0.3l0,0.1c1.4,0.7,2.7,1.7,3.6,2.9
				H65v-5.5H6.3V24.9z"/>
			<rect x="65.5" y="19.4" fill="#666565" width="2.5" height="5.5"/>
			<polygon fill="#666565" points="2.6,24.9 2.6,24.9 2.6,29.3 3.4,29.3 3.4,24.9 5.1,24.9 5.1,19.4 2.6,19.4 			"/>
			<circle fill="#666565" cx="4.3" cy="28.5" r="0.8"/>
		</g>
		<rect x="16.6" y="5.7" width="8.9" height="1.9"/>
		<g>
			<rect x="16.6" y="9.7" width="21.9" height="1.9"/>
			<rect x="40.2" y="9.7" width="13.7" height="1.9"/>
		</g>
		<g>
			<rect x="32" y="13.7" width="21.9" height="1.9"/>
			<rect x="16.6" y="13.7" width="13.7" height="1.9"/>
		</g>
	</g>
</g>
</svg>
