<?xml version="1.0" encoding="utf-8"?>
<!-- Generator: Adobe Illustrator 19.0.1, SVG Export Plug-In . SVG Version: 6.00 Build 0)  -->
<svg version="1.1" id="Layer_1" xmlns="http://www.w3.org/2000/svg" xmlns:xlink="http://www.w3.org/1999/xlink" x="0px" y="0px"
	 viewBox="-261 183.8 115.4 115.2" style="enable-background:new -261 183.8 115.4 115.2;" xml:space="preserve">
<style type="text/css">
	.st0{fill:#6F3417;}
	.st1{fill:#F1693C;}
	.st2{fill:#FFFFFF;}
</style>
<g>
	<g>
		<ellipse class="st0" cx="-202.9" cy="240.9" rx="54.4" ry="54.3"/>
		<ellipse class="st1" cx="-203.3" cy="241.4" rx="57.7" ry="57.6"/>
	</g>
	<g>
		<g id="images_5_">
			<g>
				<path class="st2" d="M-217.2,229.8l-5.3,10.5l-3.5-5.2l-5.2,8.7h20.8L-217.2,229.8z M-234.5,221.2l-0.1,27.8h27.9v-27.9
					L-234.5,221.2z M-208.5,247.3h-24.3V223h24.3V247.3z M-226.7,231.6c1.5,0,2.6-1.2,2.6-2.6c0-1.5-1.2-2.6-2.6-2.6
					c-1.5,0-2.6,1.2-2.6,2.6S-228.2,231.6-226.7,231.6z"/>
			</g>
		</g>
		<g id="mail_5_">
			<g>
				<path class="st2" d="M-196.1,257.5v14.2l7-7.1L-196.1,257.5z M-168.4,254.1h-27.7l13.9,14L-168.4,254.1z M-168.3,271.6v-14
					l-6.9,7L-168.3,271.6z M-182.2,272.1l-5.2-5.8l-7.9,8.7h26.3l-8-8.7L-182.2,272.1z"/>
			</g>
		</g>
		<g>
			<polygon class="st2" points="-187.7,214.3 -187.7,221.5 -180.6,221.5 -180.6,252.3 -176.9,252.3 -176.9,218.8 -184.2,210.6 
				-220.5,210.6 -220.5,219.2 -216.8,219.2 -216.8,214.3 			"/>
		</g>
		<g>
			<polygon class="st2" points="-216.8,265 -216.8,250.8 -220.5,250.8 -220.5,268.6 -198,268.6 -198,265 			"/>
		</g>
	</g>
</g>
</svg>
