<?xml version="1.0" encoding="utf-8"?>
<!-- Generator: Adobe Illustrator 19.0.1, SVG Export Plug-In . SVG Version: 6.00 Build 0)  -->
<svg version="1.1" id="Layer_1" xmlns="http://www.w3.org/2000/svg" xmlns:xlink="http://www.w3.org/1999/xlink" x="0px" y="0px"
	 viewBox="-261 183.8 115.4 115.2" style="enable-background:new -261 183.8 115.4 115.2;" xml:space="preserve">
<style type="text/css">
	.st0{fill:#6F3417;}
	.st1{fill:#F1693C;}
	.st2{fill:#FFFFFF;}
</style>
<g>
	<g>
		<ellipse class="st0" cx="-204.2" cy="239.6" rx="53.1" ry="53.1"/>
		<ellipse class="st1" cx="-203.3" cy="241.4" rx="57.7" ry="57.7"/>
	</g>
	<g>
		<g>
			<g>
				<rect x="-194.9" y="243.2" class="st2" width="16.2" height="2"/>
			</g>
			<g>
				<rect x="-194.9" y="237.2" class="st2" width="8" height="2"/>
			</g>
			<g>
				<rect x="-194.9" y="233.1" class="st2" width="4" height="2"/>
			</g>
			<g>
				<polygon class="st2" points="-180.7,235.2 -180.7,231.1 -196.8,231.1 -196.8,246.1 -176.6,246.1 -176.6,235.2 				"/>
			</g>
			<g>
				<polygon class="st2" points="-196.8,231.1 -180.7,231.1 -180.7,235.2 -176.6,235.2 -176.6,246.1 -174.6,246.1 -174.6,233.7 
					-178.6,229.1 -198.8,229.1 -198.8,246.1 -196.8,246.1 				"/>
			</g>
			<g>
				<polygon class="st2" points="-171.3,230.4 -175.3,225.7 -195.4,225.7 -195.4,228.2 -193.4,228.2 -193.4,227.8 -177.3,227.8 
					-177.3,229.2 -175.1,231.8 -173.2,231.8 -173.2,246.1 -171.3,246.1 				"/>
			</g>
		</g>
		<g>
			<rect x="-225" y="243.2" class="st2" width="16.2" height="2"/>
		</g>
		<g>
			<rect x="-225" y="237.2" class="st2" width="8" height="2"/>
		</g>
		<g>
			<polygon class="st2" points="-210.8,235.2 -210.8,231.1 -226.9,231.1 -226.9,246.1 -206.8,246.1 -206.8,235.2 			"/>
		</g>
		<g>
			<polygon class="st2" points="-226.9,231.1 -210.8,231.1 -210.8,235.2 -206.8,235.2 -206.8,246.1 -204.8,246.1 -204.8,233.7 
				-208.8,229.1 -228.9,229.1 -228.9,246.1 -226.9,246.1 			"/>
		</g>
		<g>
			<g>
				<path class="st2" d="M-168.2,267.9h-66.5v-50.2h66.5V267.9z M-232.9,265.7h62.6v-45.8h-62.6V265.7L-232.9,265.7z"/>
			</g>
		</g>
		<g>
			<rect x="-231.7" y="248" class="st2" width="29.8" height="1.8"/>
		</g>
		<g>
			<rect x="-200.2" y="248" class="st2" width="29" height="1.8"/>
		</g>
	</g>
</g>
</svg>
