<?xml version="1.0" encoding="utf-8"?>
<!-- Generator: Adobe Illustrator 19.0.0, SVG Export Plug-In . SVG Version: 6.00 Build 0)  -->
<svg version="1.1" id="Layer_1" xmlns="http://www.w3.org/2000/svg" xmlns:xlink="http://www.w3.org/1999/xlink" x="0px" y="0px"
	 viewBox="0 0 120 120" enable-background="new 0 0 120 120" xml:space="preserve">
<g>
	<g>
		<ellipse fill="#6F3417" cx="-105.8" cy="188.7" rx="57.7" ry="57.6"/>
		<ellipse fill="#F1693C" cx="-109.5" cy="185.9" rx="57.7" ry="57.6"/>
	</g>
	<g>
		<g>
			<rect x="-113.8" y="206.4" fill="#6F3417" width="12.5" height="5.3"/>
		</g>
		<g>
			<rect x="-124" y="212.6" fill="#6F3417" width="33" height="5.1"/>
		</g>
		<g>
			<g>
				<path fill="#6F3417" d="M-130.4,178.2l15.2-7.8v2.3l-12.8,6.4v0.1l12.8,6.4v2.3l-15.2-7.8V178.2z"/>
			</g>
			<g>
				<path fill="#6F3417" d="M-113.1,189.1l9.1-23.7h2.2l-9.2,23.7H-113.1z"/>
			</g>
			<g>
				<path fill="#6F3417" d="M-84.6,180l-15.2,7.8v-2.3l12.9-6.4v-0.1l-12.9-6.4v-2.3l15.2,7.8V180z"/>
			</g>
		</g>
		<g>
			<path fill="#6F3417" d="M-82.9,158.7h-49.6c-3.6,0-6.5,2.2-6.5,4.8v32.2h62.7v-32.2C-76.3,160.8-79.3,158.7-82.9,158.7z
				 M-78.2,193.9h-59v-30.4c0-1.6,2.2-3,4.7-3h49.6c2.5,0,4.7,1.4,4.7,3V193.9z"/>
		</g>
		<g>
			<path fill="#6F3417" d="M-82.9,156.9h-49.6c-4.6,0-8.3,3-8.3,6.6v38.4c0,3.7,3.7,6.6,8.3,6.6h49.6c4.6,0,8.3-3,8.3-6.6v-38.4
				C-74.6,159.9-78.3,156.9-82.9,156.9z M-135,201.7c-0.6,0-1.1-0.5-1.1-1.1c0-0.6,0.5-1.1,1.1-1.1c0.6,0,1.1,0.5,1.1,1.1
				C-133.9,201.2-134.4,201.7-135,201.7z M-131.2,201.7c-0.6,0-1.1-0.5-1.1-1.1c0-0.6,0.5-1.1,1.1-1.1c0.6,0,1.1,0.5,1.1,1.1
				C-130,201.2-130.5,201.7-131.2,201.7z M-76.3,195.8H-139v-32.2c0-2.7,2.9-4.8,6.5-4.8h49.6c3.6,0,6.5,2.2,6.5,4.8V195.8z"/>
		</g>
	</g>
</g>
<g>
	<g>
		<ellipse fill="#6F3417" cx="75.3" cy="-85.8" rx="57.7" ry="57.6"/>
		<ellipse fill="#F1693C" cx="71.7" cy="-88.5" rx="57.7" ry="57.6"/>
	</g>
	<g>
		<g>
			<polygon fill="#6F3417" points="98.9,-104.3 83.7,-104.3 81.2,-105.2 98.9,-105.2 			"/>
		</g>
		<g>
			<polygon fill="#6F3417" points="63.1,-104.3 48.1,-104.3 48.1,-105.2 65.7,-105.2 			"/>
		</g>
		<g>
			<path fill="#6F3417" d="M73.4-71.2c-7.1,0-12.9-5.8-12.9-12.9c0-7.1,5.8-12.9,12.9-12.9c7.1,0,12.9,5.8,12.9,12.9
				C86.3-76.9,80.6-71.2,73.4-71.2z M73.4-96c-6.6,0-12,5.4-12,12c0,6.6,5.4,11.9,12,11.9c6.6,0,12-5.4,12-11.9
				C85.4-90.6,80-96,73.4-96z"/>
		</g>
		<g>
			<path fill="none" stroke="#6F3417" stroke-width="2" d="M98.9-62.9H48.1c-4.1,0-7.5-2.9-8.2-6.9c-0.1-0.5-0.1-0.9-0.1-1.3v-26
				c0-0.4,0-0.8,0.1-1.3c0.6-4,4.1-6.9,8.2-6.9l15,0c0.2-0.1,0.6-0.7,1.4-3.2c0.1-0.4,0.2-0.6,0.3-0.7l0.1-0.2
				c0.6-1.1,2-4.2,4.5-4.2h8.3c2.4,0,3.9,3,4.5,4.2l0.1,0.2c0,0.1,0.1,0.4,0.3,0.7c0.8,2.5,1.2,3.1,1.4,3.2h15.1
				c3.9,0,7.2,2.6,8.1,6.3c0.1,0.6,0.2,1.2,0.2,1.8v26c0,0.6-0.1,1.2-0.2,1.8C106.1-65.5,102.8-62.9,98.9-62.9z M48.1-104.3
				c-3.7,0-6.7,2.6-7.3,6.1c-0.1,0.4-0.1,0.8-0.1,1.1v26c0,0.3,0,0.7,0.1,1.1c0.6,3.5,3.6,6.1,7.3,6.1h50.9l0,0
				c3.5,0,6.4-2.3,7.2-5.6c0.1-0.5,0.2-1.1,0.2-1.6v-26c0-0.5-0.1-1.1-0.2-1.6c-0.8-3.3-3.7-5.6-7.2-5.6l-15.2,0
				c-0.8-0.1-1.4-1.4-2.2-3.8c-0.1-0.3-0.2-0.5-0.2-0.6l-0.1-0.2c-0.4-0.9-1.8-3.7-3.6-3.7h-8.3c-1.9,0-3.2,2.8-3.6,3.7l-0.1,0.2
				c0,0.1-0.1,0.3-0.2,0.6c-0.8,2.4-1.4,3.7-2.2,3.8l-0.1,0H48.1z M73.4-67c-9.4,0-17-7.6-17-17c0-9.4,7.6-17,17-17
				c9.4,0,17,7.6,17,17C90.5-74.7,82.8-67,73.4-67z M73.4-100.1c-8.9,0-16.1,7.2-16.1,16.1s7.2,16.1,16.1,16.1
				c8.9,0,16.1-7.2,16.1-16.1S82.3-100.1,73.4-100.1z"/>
		</g>
	</g>
</g>
<g>
	<g>
		<ellipse fill="#6F3417" cx="208.1" cy="-61.6" rx="57.7" ry="57.6"/>
		<ellipse fill="#F1693C" cx="204.4" cy="-64.4" rx="57.7" ry="57.6"/>
	</g>
	<g>
		<g>
			<rect x="183.7" y="-47" fill="#6F3417" width="10.7" height="5.1"/>
		</g>
		<g>
			<rect x="199.2" y="-47" fill="#6F3417" width="30.8" height="5.1"/>
		</g>
		<g>
			<g>
				<path fill="#6F3417" d="M199.6-61.9h-16.3v-16.3h16.3V-61.9z M184.2-62.8h14.5v-14.5h-14.5V-62.8z"/>
			</g>
			<g>
				<polygon fill="#6F3417" points="209,-96 193.7,-96 193.7,-92.4 193.7,-88.7 193.7,-85.1 219.2,-85.1 219.2,-88.7 219.2,-92.4 
					219.2,-96 				"/>
			</g>
			<g>
				<path fill="#6F3417" d="M229.6-30h-46.8c-5.7,0-10.2-5.9-10.2-13.5v-35.7c0-7.6,4.5-13.5,10.2-13.5h6.7v6h-6.7
					c-2,0-4.2,3.2-4.2,7.5v35.7c0,4.3,2.2,7.5,4.2,7.5h46.8c2,0,4.2-3.2,4.2-7.5v-35.7c0-4.3-2.2-7.5-4.2-7.5h-6.3v-6h6.3
					c5.7,0,10.2,5.9,10.2,13.5v35.7C239.9-36,235.4-30,229.6-30z M182.9-91.9c-5.2,0-9.3,5.5-9.3,12.6v35.7c0,7.1,4.1,12.6,9.3,12.6
					h46.8c5.2,0,9.3-5.5,9.3-12.6v-35.7c0-7.1-4.1-12.6-9.3-12.6h-5.3v4.2h5.3c2.5,0,5.1,3.4,5.1,8.4v35.7c0,5.1-2.7,8.4-5.1,8.4
					h-46.8c-2.5,0-5.1-3.4-5.1-8.4v-35.7c0-5.1,2.7-8.4,5.1-8.4h5.8v-4.2H182.9z"/>
			</g>
			<g>
				<polygon fill="#6F3417" points="218.5,-68.2 218.5,-63.2 204.7,-63.2 204.7,-76.9 218.5,-76.9 218.5,-75.7 219.4,-76.6 
					219.4,-77.8 203.8,-77.8 203.8,-62.3 219.4,-62.3 219.4,-69.1 				"/>
			</g>
			<g>
				<polygon fill="#6F3417" points="226.2,-82.1 213.9,-69.9 209,-74.8 206.5,-72.3 211.5,-67.4 213.9,-64.9 216.4,-67.4 
					228.6,-79.6 				"/>
			</g>
			<g>
				<rect x="183.7" y="-57.2" fill="#6F3417" width="10.7" height="5.1"/>
			</g>
			<g>
				<rect x="199.2" y="-57.2" fill="#6F3417" width="30.8" height="5.1"/>
			</g>
		</g>
	</g>
</g>
<g>
	<g>
		<ellipse fill="#6F3417" cx="51.9" cy="-366.1" rx="57.7" ry="57.6"/>
		<ellipse fill="#F1693C" cx="48.3" cy="-368.9" rx="57.7" ry="57.6"/>
	</g>
	<g>
		<g>
			<path fill="#6F3417" d="M70.6-333.9H20.1V-401h42l8.5,9.7v3.5l-5.1,8.8v-8.7h-8.3v-8.3H25.1v57h40.4v-14.7l5.1-8.8V-333.9z
				 M21-334.9h48.7v-24.2l-3.2,5.6v15.4H24.2v-58.8h34v8.3h8.3v6.2l3.2-5.6v-2.9l-8-9.2H21V-334.9z"/>
		</g>
		<g>
			<path fill="#6F3417" d="M53.9-358.8H28.3v-5.1h28.5L53.9-358.8z M29.3-359.7h24.1l1.8-3.2h-26V-359.7z"/>
		</g>
		<g>
			<path fill="#6F3417" d="M58.7-367H28.3v-5.1h33.2L58.7-367z M29.3-367.9h28.9l1.8-3.2H29.3V-367.9z"/>
		</g>
		<g>
			<path fill="#6F3417" d="M45.8-379.4H28.3v-5.1h17.5V-379.4z M29.3-380.3h15.6v-3.2H29.3V-380.3z"/>
		</g>
		<g>
			<path fill="#6F3417" d="M37.5-387.7h-9.2v-5.1h9.2V-387.7z M29.3-388.6h7.4v-3.2h-7.4V-388.6z"/>
		</g>
		<g>
			<path fill="#6F3417" d="M49.6-350.5H28.3v-5.1H52l-0.2,0.6c-0.2,0.5-0.2,1.1-0.2,1.7l0,0.3l-0.3,0.1c-0.8,0.4-1.4,1.1-1.7,1.9
				L49.6-350.5z M29.3-351.4H49c0.4-0.8,1-1.5,1.7-2c0-0.4,0-0.8,0.1-1.2H29.3V-351.4z"/>
		</g>
		<g>
			<path fill="#6F3417" d="M49-342.2H28.3v-5.1h20.9l-0.4,3.4c0,0.3,0,0.7,0,1.1L49-342.2z M29.3-343.1h18.6c0-0.3,0-0.6,0-0.8
				l0.3-2.4H29.3V-343.1z"/>
		</g>
		<g>
			<path fill="#6F3417" d="M74.2-373.5l5.7-10c0.4-0.7,0.2-1.7-0.6-2.1l-4.1-2.3c-0.7-0.4-1.7-0.2-2.1,0.6l-2.9,5.1v15.7L74.2-373.5
				z"/>
		</g>
		<g>
			<path fill="#6F3417" d="M58.9-350.6c0.4,0.2,0.7,0.5,1,0.8c0.4-0.1,0.8-0.3,1.1-0.7l0.2-0.4h-2.8L58.9-350.6z"/>
		</g>
		<g>
			<polygon fill="#6F3417" points="61.9,-367.8 61.9,-367.5 61.7,-367.5 60,-364.5 59.3,-363.3 61.9,-363.3 61.9,-359.2 
				56.9,-359.2 54.6,-355.1 61.9,-355.1 61.9,-352.1 66,-359.3 66,-375 			"/>
		</g>
		<g>
			<polygon fill="#6F3417" points="66,-375 66,-359.3 69,-364.5 70.2,-366.5 70.2,-382.2 66.8,-376.5 			"/>
		</g>
		<g>
			<polygon fill="#6F3417" points="61.9,-359.2 61.9,-363.3 59.3,-363.3 56.9,-359.2 			"/>
		</g>
		<g>
			<polygon fill="#6F3417" points="61.9,-367.5 61.9,-367.8 61.7,-367.5 			"/>
		</g>
		<g>
			<path fill="#6F3417" d="M54-353.3c0.3,0.1,0.6,0.2,0.8,0.3l3.5,2h2.8l0.7-1.1v-3h-7.3l-0.4,0.6C54-354.1,54-353.7,54-353.3z"/>
		</g>
		<g>
			<path fill="#6F3417" d="M58.9-350.6l-0.5-0.3h-1.2l1.7,1c0.3,0.2,0.7,0.2,1.1,0.2C59.6-350.1,59.3-350.4,58.9-350.6z"/>
		</g>
		<g>
			<path fill="#6F3417" d="M54.8-352.3l2.4,1.4h1.2l-3.5-2c-0.3-0.2-0.5-0.3-0.8-0.3C54.1-352.9,54.4-352.5,54.8-352.3z"/>
		</g>
		<g>
			<path fill="#6F3417" d="M51.9-349.7l-0.3,2.9h6.3c0.1-0.1,0.2-0.3,0.2-0.4c-0.2-0.1-0.4-0.1-0.6-0.3l-4.1-2.3
				c-0.4-0.2-0.7-0.5-0.9-0.7C52.1-350.5,52-350.2,51.9-349.7z"/>
		</g>
		<g>
			<path fill="#6F3417" d="M51.2-343.6c-0.1,0.9,0.4,1.2,1.1,0.7l5.3-3.6c0.1-0.1,0.2-0.2,0.3-0.3h-6.3L51.2-343.6z"/>
		</g>
		<g>
			<path fill="#6F3417" d="M53.4-349.8l4.1,2.3c0.2,0.1,0.4,0.2,0.6,0.3c0-0.3-0.1-0.7-0.5-0.9l-4.1-2.3c-0.4-0.2-0.7-0.2-1-0.1
				C52.7-350.3,53-350.1,53.4-349.8z"/>
		</g>
	</g>
</g>
<g>
	<g>
		<ellipse fill="#6F3417" cx="61.8" cy="61.4" rx="57.7" ry="57.6"/>
		<ellipse fill="#F1693C" cx="58.2" cy="58.6" rx="57.7" ry="57.6"/>
	</g>
	<g>
		<g>
			<g>
				<rect x="66.5" y="60.4" fill="#6F3417" width="16.1" height="2"/>
			</g>
			<g>
				<rect x="66.5" y="54.4" fill="#6F3417" width="8" height="2"/>
			</g>
			<g>
				<rect x="66.5" y="50.4" fill="#6F3417" width="4" height="2"/>
			</g>
			<g>
				<polygon fill="#6F3417" points="80.8,52.4 80.8,48.3 64.7,48.3 64.7,63.3 84.8,63.3 84.8,52.4 				"/>
			</g>
			<g>
				<polygon fill="#6F3417" points="64.7,48.3 80.8,48.3 80.8,52.4 84.8,52.4 84.8,63.3 86.8,63.3 86.8,50.9 82.8,46.3 62.7,46.3 
					62.7,63.3 64.7,63.3 				"/>
			</g>
			<g>
				<polygon fill="#6F3417" points="90.1,47.6 86.1,43 66,43 66,45.4 68,45.4 68,45 84.1,45 84.1,46.5 86.4,49 88.1,49 88.1,63.3 
					90.1,63.3 				"/>
			</g>
		</g>
		<g>
			<rect x="36.4" y="60.4" fill="#6F3417" width="16.1" height="2"/>
		</g>
		<g>
			<rect x="36.4" y="54.4" fill="#6F3417" width="8" height="2"/>
		</g>
		<g>
			<polygon fill="#6F3417" points="50.6,52.4 50.6,48.3 34.6,48.3 34.6,63.3 54.7,63.3 54.7,52.4 			"/>
		</g>
		<g>
			<polygon fill="#6F3417" points="34.6,48.3 50.6,48.3 50.6,52.4 54.7,52.4 54.7,63.3 56.7,63.3 56.7,50.9 52.7,46.3 32.5,46.3 
				32.5,63.3 34.6,63.3 			"/>
		</g>
		<g>
			<g>
				<path fill="#6F3417" d="M93.2,85.1H26.8V34.9h66.4V85.1z M28.7,82.9h62.6V37.1H28.7V82.9z"/>
			</g>
		</g>
		<g>
			<rect x="29.8" y="65.2" fill="#6F3417" width="29.7" height="1.8"/>
		</g>
		<g>
			<rect x="61.3" y="65.2" fill="#6F3417" width="28.9" height="1.8"/>
		</g>
	</g>
</g>
<g>
	<g>
		<ellipse fill="#6F3417" cx="-83" cy="-223.9" rx="57.7" ry="57.6"/>
		<ellipse fill="#F1693C" cx="-86.7" cy="-226.6" rx="57.7" ry="57.6"/>
	</g>
	<g>
		<g>
			<path fill="#6F3417" d="M-57.6-242.2c0-3.4-3.1-6.2-6.8-6.2h-41c-3.8,0-6.8,2.8-6.8,6.2v32h54.7V-242.2z M-110.8-211.9v-30.3
				c0-2.5,2.4-4.5,5.4-4.5h41c3,0,5.4,2,5.4,4.5v30.3H-110.8z"/>
		</g>
		<g>
			<path fill="#6F3417" d="M-54.3-209.2h-3.5h-54.7h-3.1c-1.2,0-2.2,1.6-2.2,3.6s1,3.6,2.2,3.6h3.7h53.4h4.1c1.2,0,2.2-1.6,2.2-3.6
				S-53.1-209.2-54.3-209.2z M-56.1-205.1h-2.7c-0.3,0-0.6-0.2-0.6-0.5c0-0.3,0.3-0.5,0.6-0.5h2.7c0.3,0,0.6,0.2,0.6,0.5
				C-55.5-205.4-55.8-205.1-56.1-205.1z"/>
		</g>
		<g>
			<rect x="-107.7" y="-242.2" fill="#6F3417" width="46.1" height="11.8"/>
		</g>
		<g>
			<g>
				<rect x="-74.8" y="-228.3" fill="#6F3417" width="13.2" height="2.5"/>
			</g>
			<g>
				<rect x="-74.8" y="-219.3" fill="#6F3417" width="13.2" height="2.5"/>
			</g>
			<g>
				<rect x="-74.8" y="-223.8" fill="#6F3417" width="13.2" height="2.5"/>
			</g>
		</g>
		<g>
			<g>
				<rect x="-91.2" y="-228.3" fill="#6F3417" width="13.2" height="2.5"/>
			</g>
			<g>
				<rect x="-91.2" y="-219.3" fill="#6F3417" width="13.2" height="2.5"/>
			</g>
			<g>
				<rect x="-91.2" y="-223.8" fill="#6F3417" width="13.2" height="2.5"/>
			</g>
		</g>
		<g>
			<g>
				<rect x="-107.6" y="-228.3" fill="#6F3417" width="13.2" height="2.5"/>
			</g>
			<g>
				<rect x="-107.6" y="-219.3" fill="#6F3417" width="13.2" height="2.5"/>
			</g>
			<g>
				<rect x="-107.6" y="-223.8" fill="#6F3417" width="13.2" height="2.5"/>
			</g>
		</g>
	</g>
</g>
<g>
	<g>
		<ellipse fill="#6F3417" cx="-212.6" cy="-144.5" rx="57.7" ry="57.6"/>
		<ellipse fill="#F1693C" cx="-216.3" cy="-147.3" rx="57.7" ry="57.6"/>
	</g>
	<g>
		<g>
			<path fill="#6F3417" d="M-229.3-165.1c0,2-1.7,3.7-3.7,3.7l0,0c-2,0-3.7-1.7-3.7-3.7v-6.9c0-2,1.7-3.7,3.7-3.7l0,0
				c2,0,3.7,1.7,3.7,3.7V-165.1z"/>
		</g>
		<g>
			<rect x="-227.5" y="-169.1" fill="#6F3417" width="26.7" height="1.7"/>
		</g>
		<g>
			<path fill="#6F3417" d="M-188.9-169.1h-1v1.7h1c3.2,0,5.8,2.6,5.8,5.7v38.1c0,3.2-2.6,5.7-5.8,5.7h-51.2c-3.2,0-5.8-2.6-5.8-5.7
				v-38.1c0-3.2,2.6-5.7,5.8-5.7h1.6v-1.7h-1.6c-4.2,0-7.6,3.3-7.6,7.5v38.1c0,4.1,3.4,7.5,7.6,7.5h51.2c4.2,0,7.6-3.3,7.6-7.5
				v-38.1C-181.3-165.7-184.7-169.1-188.9-169.1z"/>
		</g>
		<g>
			<path fill="#6F3417" d="M-191.7-164.9c0,2-1.7,3.7-3.7,3.7l0,0c-2,0-3.7-1.7-3.7-3.7v-6.9c0-2,1.7-3.7,3.7-3.7l0,0
				c2,0,3.7,1.7,3.7,3.7V-164.9z"/>
		</g>
		<g>
			<g>
				<g>
					<rect x="-197.3" y="-149.5" fill="#6F3417" width="7.2" height="7.2"/>
				</g>
				<g>
					<rect x="-207.6" y="-149.5" fill="#6F3417" width="7.2" height="7.2"/>
				</g>
				<g>
					<rect x="-218" y="-149.5" fill="#6F3417" width="7.2" height="7.2"/>
				</g>
				<g>
					<rect x="-228.4" y="-149.5" fill="#6F3417" width="7.2" height="7.2"/>
				</g>
				<g>
					<rect x="-238.7" y="-149.5" fill="#6F3417" width="7.2" height="7.2"/>
				</g>
			</g>
			<g>
				<g>
					<rect x="-197.3" y="-139.6" fill="#6F3417" width="7.2" height="7.2"/>
				</g>
				<g>
					<rect x="-207.6" y="-139.6" fill="#6F3417" width="7.2" height="7.2"/>
				</g>
				<g>
					<rect x="-218" y="-139.6" fill="#6F3417" width="7.2" height="7.2"/>
				</g>
				<g>
					<rect x="-228.4" y="-139.6" fill="#6F3417" width="7.2" height="7.2"/>
				</g>
				<g>
					<rect x="-238.7" y="-139.6" fill="#6F3417" width="7.2" height="7.2"/>
				</g>
			</g>
			<g>
				<g>
					<rect x="-197.3" y="-129.7" fill="#6F3417" width="7.2" height="7.2"/>
				</g>
				<g>
					<rect x="-207.6" y="-129.7" fill="#6F3417" width="7.2" height="7.2"/>
				</g>
				<g>
					<rect x="-218" y="-129.7" fill="#6F3417" width="7.2" height="7.2"/>
				</g>
				<g>
					<rect x="-228.4" y="-129.7" fill="#6F3417" width="7.2" height="7.2"/>
				</g>
				<g>
					<rect x="-238.7" y="-129.7" fill="#6F3417" width="7.2" height="7.2"/>
				</g>
			</g>
		</g>
		<g>
			<g>
				<path fill="#6F3417" d="M-205.5-152.7v-0.4l0.6-0.5c1.3-1.3,1.9-1.9,1.9-2.7c0-0.5-0.3-1-1-1c-0.5,0-0.9,0.2-1.1,0.4l-0.2-0.5
					c0.4-0.3,0.9-0.5,1.5-0.5c1.1,0,1.6,0.8,1.6,1.5c0,1-0.7,1.7-1.8,2.8l-0.4,0.4v0h2.3v0.6H-205.5z"/>
			</g>
			<g>
				<path fill="#6F3417" d="M-198-155.4c0,1.8-0.7,2.7-1.8,2.7c-1,0-1.7-0.9-1.7-2.7c0-1.7,0.7-2.7,1.8-2.7
					C-198.6-158-198-157-198-155.4z M-200.8-155.3c0,1.3,0.4,2.1,1.1,2.1c0.7,0,1.1-0.8,1.1-2.2c0-1.3-0.3-2.1-1.1-2.1
					C-200.4-157.5-200.8-156.7-200.8-155.3z"/>
			</g>
			<g>
				<path fill="#6F3417" d="M-195.8-157.3L-195.8-157.3l-0.9,0.5l-0.1-0.5l1.1-0.6h0.6v5.2h-0.7V-157.3z"/>
			</g>
			<g>
				<path fill="#6F3417" d="M-190.2-157.3h-2l-0.2,1.3c0.1,0,0.2,0,0.4,0c0.4,0,0.8,0.1,1.1,0.3c0.4,0.2,0.7,0.7,0.7,1.3
					c0,1-0.8,1.8-1.9,1.8c-0.6,0-1-0.2-1.3-0.3l0.2-0.5c0.2,0.1,0.6,0.3,1.1,0.3c0.7,0,1.2-0.4,1.2-1.1c0-0.7-0.5-1.1-1.5-1.1
					c-0.3,0-0.5,0-0.7,0.1l0.3-2.5h2.5V-157.3z"/>
			</g>
		</g>
	</g>
</g>
<g>
	<g>
		<ellipse fill="#6F3417" cx="-64.4" cy="-96.3" rx="57.7" ry="57.6"/>
		<ellipse fill="#F1693C" cx="-68.1" cy="-99" rx="57.7" ry="57.6"/>
	</g>
	<g>
		<g>
			<g>
				<g>
					<g>
						<rect x="-94.8" y="-116" fill="#6F3417" width="16.6" height="1.2"/>
					</g>
				</g>
			</g>
			<g>
				<g>
					<g>
						<polygon fill="#6F3417" points="-79.5,-113 -80.2,-113.7 -78.5,-115.4 -80.2,-117 -79.5,-117.8 -77,-115.4 						"/>
					</g>
				</g>
			</g>
			<g>
				<g>
					<g>
						<polygon fill="#6F3417" points="-93.6,-117.8 -92.9,-117 -94.6,-115.4 -92.9,-113.7 -93.6,-113 -96,-115.4 						"/>
					</g>
				</g>
			</g>
		</g>
		<g>
			<g>
				<g>
					<path fill="#6F3417" d="M-88.4-130.9l1.5,4c0.2,0.4,0.3,1,0.4,1.4h0c0.1-0.4,0.3-0.9,0.4-1.4l1.4-4h1.3l-1.9,4.9
						c-0.9,2.3-1.5,3.5-2.3,4.3c-0.6,0.5-1.2,0.7-1.5,0.8l-0.3-1c0.3-0.1,0.7-0.3,1.1-0.6c0.3-0.3,0.8-0.7,1-1.4
						c0.1-0.1,0.1-0.2,0.1-0.3c0-0.1,0-0.2-0.1-0.3l-2.5-6.3H-88.4z"/>
				</g>
			</g>
		</g>
		<g>
			<g>
				<g>
					<rect x="-44.8" y="-110.5" fill="#6F3417" width="1.2" height="44.5"/>
				</g>
			</g>
			<g>
				<g>
					<polygon fill="#6F3417" points="-46.5,-67.2 -45.8,-67.9 -44.2,-66.2 -42.5,-67.9 -41.8,-67.2 -44.2,-64.8 					"/>
				</g>
			</g>
			<g>
				<g>
					<polygon fill="#6F3417" points="-41.8,-109.3 -42.5,-108.6 -44.2,-110.2 -45.8,-108.6 -46.5,-109.3 -44.2,-111.7 					"/>
				</g>
			</g>
		</g>
		<g>
			<g>
				<g>
					<path fill="#6F3417" d="M-39.1-93.2l1,1.5c0.3,0.4,0.5,0.7,0.7,1.1h0c0.2-0.4,0.5-0.8,0.7-1.1l1-1.5h1.3l-2.3,3.3l2.4,3.5h-1.4
						l-1-1.5c-0.3-0.4-0.5-0.8-0.7-1.2h0c-0.2,0.4-0.5,0.8-0.7,1.2l-1,1.5h-1.4l2.4-3.5l-2.3-3.3H-39.1z"/>
				</g>
			</g>
		</g>
		<g>
			<g>
				<path fill="#6F3417" d="M-76.5-86.2l-13.8-19.5H-96v-5.8h19.1v5.8h-5.8l10.2,14.3l9.4-14.3H-69v-5.8h18.5v5.8h-6.2l-12.9,19.5
					v15.3h6.4v5.8h-19.6v-5.8h6.2V-86.2z"/>
			</g>
		</g>
		<g>
			<rect x="-99.4" y="-86.5" fill="#6F3417" width="49.4" height="0.5"/>
		</g>
		<g>
			<rect x="-50.6" y="-131.1" fill="#6F3417" width="0.5" height="66.9"/>
		</g>
		<g>
			<rect x="-99.5" y="-105.8" fill="#6F3417" width="66.5" height="0.5"/>
		</g>
		<g>
			<rect x="-99.4" y="-111.6" fill="#6F3417" width="66.5" height="0.5"/>
		</g>
	</g>
</g>
<g>
	<g>
		<ellipse fill="#6F3417" cx="-358.6" cy="-144.5" rx="57.7" ry="57.6"/>
		<ellipse fill="#F1693C" cx="-362.3" cy="-147.3" rx="57.7" ry="57.6"/>
	</g>
	<g>
		<g id="images_5_">
			<g>
				<path fill="#6F3417" d="M-376.2-158.9l-5.3,10.5l-3.5-5.2l-5.2,8.7l20.8,0L-376.2-158.9z M-393.5-167.5l-0.1,27.8h27.9v-27.9
					L-393.5-167.5z M-367.5-141.4h-24.3v-24.3h24.3V-141.4z M-385.7-157.1c1.5,0,2.6-1.2,2.6-2.6c0-1.5-1.2-2.6-2.6-2.6
					c-1.5,0-2.6,1.2-2.6,2.6C-388.3-158.3-387.2-157.1-385.7-157.1z"/>
			</g>
		</g>
		<g id="mail_5_">
			<g>
				<path fill="#6F3417" d="M-355.1-131.2v14.2l7-7.1L-355.1-131.2z M-327.4-134.6h-27.7l13.9,14L-327.4-134.6z M-327.3-117.1l0-14
					l-6.9,7L-327.3-117.1z M-341.2-116.6l-5.2-5.8l-7.9,8.7h26.3l-8-8.7L-341.2-116.6z"/>
			</g>
		</g>
		<g>
			<polygon fill="#6F3417" points="-346.8,-174.4 -346.8,-167.2 -339.6,-167.2 -339.6,-136.4 -335.9,-136.4 -335.9,-169.8 
				-343.2,-178.1 -379.5,-178.1 -379.5,-169.4 -375.8,-169.4 -375.8,-174.4 			"/>
		</g>
		<g>
			<polygon fill="#6F3417" points="-375.8,-123.7 -375.8,-137.9 -379.5,-137.9 -379.5,-120.1 -357,-120.1 -357,-123.7 			"/>
		</g>
	</g>
</g>
<g>
	<g>
		<ellipse fill="#6F3417" cx="-534.6" cy="-182.2" rx="57.7" ry="57.6"/>
		<ellipse fill="#F1693C" cx="-538.3" cy="-185" rx="57.7" ry="57.6"/>
	</g>
	<g>
		<g>
			<path fill="#6F3417" d="M-534.8-197c4.6-0.6,6.5-4.1,6.5-8.6l0-2.9h-1.6l0,2.3c0,5.9-2.3,7.6-6.5,7.6c-4.2,0-6.5-1.9-6.5-7.6
				l0-2.3h-1.7l0,2.9c0,4.5,2,7.9,6.6,8.6l0,4.5h3.3L-534.8-197z"/>
		</g>
		<g>
			<path fill="#6F3417" d="M-536.4-200.3L-536.4-200.3c3.4,0,4.8-1.9,4.8-5.1v-6.2c0-3.2-1.4-5.1-4.8-5.1h0c-3.4,0-4.8,2-4.8,5.1
				v6.2C-541.3-202.2-539.8-200.3-536.4-200.3z"/>
		</g>
		<g>
			<path fill="#6F3417" d="M-513-190.7h-46.8c-1,0-1.8,0.6-1.8,1.4v5.6c0,0.8,0.4,2,0.8,2.7l5.6,8.7c0.3,0.5,1,0.9,1.7,1.1v-13.7
				h34.3v13.7c0.7-0.2,1.4-0.6,1.7-1.1l5.6-8.7c0.4-0.7,0.8-1.9,0.8-2.7v-5.6C-511.2-190.1-512.1-190.7-513-190.7z"/>
		</g>
		<g>
			<path fill="#6F3417" d="M-521.2-178.4v-4.6h-30.6v4.6c0,0,0,0,0,0v24.1c0,2,1.6,3.6,3.5,3.6h23.5c1.9,0,3.5-1.6,3.5-3.6
				L-521.2-178.4C-521.2-178.4-521.2-178.4-521.2-178.4z"/>
		</g>
		<g>
			<rect x="-551.7" y="-164.8" fill="#6F3417" width="30.5" height="14.4"/>
		</g>
	</g>
</g>
<g>
	<g>
		<path fill="#6F3417" d="M-84.9-399.6c0,31.8-25.8,57.6-57.7,57.6c-31.8,0-57.7-25.8-57.7-57.6c0-31.8,25.8-57.6,57.7-57.6
			C-110.7-457.3-84.9-431.5-84.9-399.6z"/>
		<ellipse fill="#F1693C" cx="-146.2" cy="-402.4" rx="57.7" ry="57.6"/>
	</g>
	<g>
		<rect x="-182.8" y="-440" fill="#6F3417" width="73" height="75"/>
		<path fill="#F1693C" d="M-185-441.4v39.7h39.7v-39.7H-185z M-157.1-420.3h-4.4c0,7.1,0,15.8,0,15.8h-6.6c0,0,0-8.7,0-15.8h-3.1
			v-5.6h3.1v-3.6c0-2.6,1.2-6.6,6.6-6.6l4.9,0v5.4c0,0-3,0-3.5,0c-0.6,0-1.4,0.3-1.4,1.5v3.3h5L-157.1-420.3z"/>
		<path fill="#F1693C" d="M-146.4-441.4v39.7h39.7v-39.7H-146.4z M-113.5-426.5c0,0.3,0,0.6,0,0.8c0,8.6-6.5,18.5-18.5,18.5
			c-3.7,0-7.1-1.1-10-2.9c0.5,0.1,1,0.1,1.6,0.1c3.1,0,5.9-1,8.1-2.8c-2.8-0.1-5.3-1.9-6.1-4.5c0.4,0.1,0.8,0.1,1.2,0.1
			c0.6,0,1.2-0.1,1.7-0.2c-3-0.6-5.2-3.2-5.2-6.4c0,0,0-0.1,0-0.1c0.9,0.5,1.9,0.8,2.9,0.8c-1.7-1.2-2.9-3.2-2.9-5.4
			c0-1.2,0.3-2.3,0.9-3.3c3.2,3.9,8,6.5,13.4,6.8c-0.1-0.5-0.2-1-0.2-1.5c0-3.6,2.9-6.5,6.5-6.5c1.9,0,3.6,0.8,4.7,2.1
			c1.5-0.3,2.9-0.8,4.1-1.6c-0.5,1.5-1.5,2.8-2.9,3.6c1.3-0.2,2.6-0.5,3.7-1C-111.1-428.6-112.3-427.4-113.5-426.5z"/>
		<g>
			<path fill="#F1693C" d="M-112.8-374.2L-112.8-374.2C-112.8-374.2-112.8-374.2-112.8-374.2L-112.8-374.2z"/>
			<path fill="#F1693C" d="M-146.4-403.6v39.7h39.7v-39.7H-146.4z M-132-374.3h-4.3v-12.8h4.3V-374.3z M-134.2-388.8L-134.2-388.8
				c-1.5,0-2.4-1-2.4-2.2c0-1.3,1-2.2,2.4-2.2c1.5,0,2.4,1,2.4,2.2C-131.7-389.8-132.7-388.8-134.2-388.8z M-116.7-374.3h-4.2v-6.8
				c0-1.7-0.6-2.9-2.2-2.9c-1.2,0-1.9,0.8-2.2,1.6c-0.1,0.3-0.1,0.7-0.1,1v7.1h-4.3c0,0,0.1-11.6,0-12.8h4.3v1.8
				c0.6-0.9,1.6-2.1,3.8-2.1c2.8,0,4.9,1.8,4.9,5.8V-374.3z"/>
		</g>
		<g>
			<path fill="#F1693C" d="M-168.2-377.5c-3.8,0-6.9,2.4-6.9,5.2c0,2.9,2.7,5.2,6.5,5.2c5.3,0,7.1-2.2,7.1-5.1c0-0.3,0-0.7-0.1-1
				c-0.4-1.6-2.1-2.5-4.1-3.9C-166.5-377.4-167.3-377.5-168.2-377.5z"/>
			<path fill="#F1693C" d="M-185-403.6v39.7h39.7v-39.7H-185z M-160.4-389.8c0,2.1-1.1,3.7-2.8,5c-1.6,1.2-1.9,1.8-1.9,2.8
				c0,0.9,1.9,2.2,2.8,2.9c3,2.3,3.6,3.7,3.6,6.5c0,3.5-3.8,7-10,7c-5.4,0-10-2.2-10-5.7c0-3.6,3.8-7.3,9.2-7.3c0.6,0,1.1,0,1.7,0
				c-0.7-0.7-1.3-1.3-1.3-2.4c0-0.6,0.2-1.3,0.5-1.8c-0.3,0-0.6,0-0.9,0c-4.5,0-7.1-3.1-7.1-7.1c0-3.8,4-7.3,8.7-7.3
				c2.4,0,9.3,0,9.3,0l-2.1,2.2h-2.5C-161.3-394.1-160.4-392.1-160.4-389.8z M-146.9-390.4h-4.3v4.3h-2.2v-4.3h-4.3v-2.2h4.3v-4.3
				h2.2v4.3h4.3V-390.4z"/>
			<path fill="#F1693C" d="M-169.2-395.8c-2.5-0.1-4.2,2.5-3.8,5.8c0.4,3.3,2.8,5.6,5.3,5.7c2.5,0.1,4-2.1,3.5-5.4
				C-164.5-393-166.7-395.7-169.2-395.8z"/>
		</g>
	</g>
</g>
<g>
	<g>
		<ellipse fill="#6F3417" cx="219.4" cy="68.2" rx="57.7" ry="57.6"/>
		<ellipse fill="#F1693C" cx="215.7" cy="65.4" rx="57.7" ry="57.6"/>
	</g>
	<g>
		<g>
			<path fill="#6F3417" d="M247.8,96.6h-31c0,0.4,0.3,0.7,0.6,0.8c0.6,0.4,7,0.7,14.9,0.7c8,0,14.6-0.3,14.9-0.7
				C247.6,97.3,247.8,97,247.8,96.6z"/>
			<polygon fill="#6F3417" points="236.4,77.3 236.4,44.2 228.5,35.2 189.1,35.2 189.1,42.4 189.1,44.6 189.1,79 189.1,80.6 
				189.1,98.3 213.5,98.3 213.5,94.4 193,94.4 193,80.6 193,79 193,44.6 193,42.4 193,39.2 224.6,39.2 224.6,47.1 232.5,47.1 
				232.5,77.3 			"/>
			<g>
				<path fill="#6F3417" d="M244.5,79.9c-0.4-0.3-0.9-0.6-1.5-0.6h-21.8c-0.6,0-1.1,0.2-1.5,0.6c-0.2,0.3-0.3,0.7-0.4,1h25.6
					C244.8,80.6,244.7,80.2,244.5,79.9z"/>
				<path fill="#6F3417" d="M250.1,80.4c-0.3-0.1-0.7-0.2-1.1-0.2c-1.4,0-2.8,1-3.7,2.5c0-0.2-0.1-0.4-0.1-0.6c0-0.1,0-0.1,0-0.1
					H219c0,0,0,0.1,0,0.1c-0.1,0.7-0.2,1.3-0.2,2c0,6.3,6,11.4,13.3,11.4c5.9,0,10.9-3.3,12.7-7.9c0.3,0.8,0.9,1.3,1.6,1.7
					c0.3,0.1,0.7,0.2,1.1,0.2c1.6,0,3.3-1.3,4.1-3.3C252.6,83.8,252,81.1,250.1,80.4z M250.6,85.8c-0.8,1.9-2.6,3.1-3.9,2.5
					c-1.3-0.6-1.7-2.6-0.9-4.6c0.7-1.6,2-2.7,3.2-2.7c0.2,0,0.5,0,0.7,0.1C251.1,81.8,251.5,83.9,250.6,85.8z"/>
			</g>
			<rect x="216.8" y="95.6" fill="#6F3417" width="31" height="0.6"/>
		</g>
		<g>
			<rect x="197.4" y="51.3" fill="#6F3417" width="27.6" height="3"/>
		</g>
		<g>
			<rect x="197.4" y="74.4" fill="#6F3417" width="20.5" height="3"/>
		</g>
		<g>
			<rect x="197.4" y="66.7" fill="#6F3417" width="20.5" height="3"/>
		</g>
		<g>
			<rect x="197.4" y="59" fill="#6F3417" width="20.5" height="3"/>
		</g>
	</g>
</g>
<g>
	<g>
		<ellipse fill="#6F3417" cx="55.5" cy="190" rx="57.7" ry="57.6"/>
		<ellipse fill="#F1693C" cx="51.8" cy="187.3" rx="57.7" ry="57.6"/>
	</g>
	<g>
		<g>
			<path fill="#6F3417" d="M83.9,218.5h-31c0,0.4,0.3,0.7,0.6,0.8c0.6,0.4,7,0.7,14.9,0.7c8,0,14.6-0.3,14.9-0.7
				C83.7,219.2,83.9,218.9,83.9,218.5z"/>
			<polygon fill="#6F3417" points="72.5,199.2 72.5,166.1 64.6,157.1 25.2,157.1 25.2,164.3 25.2,166.5 25.2,200.9 25.2,202.4 
				25.2,220.2 49.6,220.2 49.6,216.3 29.1,216.3 29.1,202.4 29.1,200.9 29.1,166.5 29.1,164.3 29.1,161.1 60.7,161.1 60.7,168.9 
				68.6,168.9 68.6,199.2 			"/>
			<g>
				<path fill="#6F3417" d="M80.6,201.8c-0.4-0.3-0.9-0.6-1.5-0.6H57.3c-0.6,0-1.1,0.2-1.5,0.6c-0.2,0.3-0.3,0.7-0.4,1H81
					C80.9,202.5,80.7,202.1,80.6,201.8z"/>
				<path fill="#6F3417" d="M86.2,202.2c-0.3-0.1-0.7-0.2-1.1-0.2c-1.4,0-2.8,1-3.7,2.5c0-0.2-0.1-0.4-0.1-0.6c0-0.1,0-0.1,0-0.1
					H55.1c0,0,0,0.1,0,0.1c-0.1,0.7-0.2,1.3-0.2,2c0,6.3,6,11.4,13.3,11.4c5.9,0,10.9-3.3,12.7-7.9c0.3,0.8,0.9,1.3,1.6,1.7
					c0.3,0.1,0.7,0.2,1.1,0.2c1.6,0,3.3-1.3,4.1-3.3C88.7,205.7,88,203,86.2,202.2z M86.7,207.7c-0.8,1.9-2.6,3.1-3.9,2.5
					c-1.3-0.6-1.7-2.6-0.9-4.6c0.7-1.6,2-2.7,3.2-2.7c0.2,0,0.5,0,0.7,0.1C87.1,203.7,87.5,205.8,86.7,207.7z"/>
			</g>
			<rect x="52.9" y="217.5" fill="#6F3417" width="31" height="0.6"/>
		</g>
		<g>
			<rect x="33.5" y="173.2" fill="#6F3417" width="27.6" height="3"/>
		</g>
		<g>
			<rect x="33.5" y="196.3" fill="#6F3417" width="20.5" height="3"/>
		</g>
		<g>
			<rect x="33.5" y="188.6" fill="#6F3417" width="20.5" height="3"/>
		</g>
		<g>
			<rect x="33.5" y="180.9" fill="#6F3417" width="20.5" height="3"/>
		</g>
	</g>
</g>
</svg>
