<?xml version="1.0" encoding="utf-8"?>
<!-- Generator: Adobe Illustrator 19.0.1, SVG Export Plug-In . SVG Version: 6.00 Build 0)  -->
<svg version="1.1" id="Layer_1" xmlns="http://www.w3.org/2000/svg" xmlns:xlink="http://www.w3.org/1999/xlink" x="0px" y="0px"
	 viewBox="-261 183.8 115.4 115.2" style="enable-background:new -261 183.8 115.4 115.2;" xml:space="preserve">
<style type="text/css">
	.st0{fill:#6F3417;}
	.st1{fill:#F1693C;}
	.st2{fill:#FFFFFF;}
</style>
<g>
	<g>
		<ellipse class="st0" cx="-202.8" cy="240.9" rx="54.5" ry="54.4"/>
		<ellipse class="st1" cx="-203.3" cy="241.4" rx="57.7" ry="57.6"/>
	</g>
	<g>
		<g>
			<path class="st2" d="M-171.2,272.6h-31c0,0.4,0.3,0.7,0.6,0.8c0.6,0.4,7,0.7,14.9,0.7c8,0,14.6-0.3,14.9-0.7
				C-171.4,273.3-171.2,273-171.2,272.6z"/>
			<polygon class="st2" points="-182.6,253.4 -182.6,220.2 -190.5,211.2 -229.9,211.2 -229.9,218.4 -229.9,220.6 -229.9,255 
				-229.9,256.5 -229.9,274.3 -205.5,274.3 -205.5,270.5 -226,270.5 -226,256.5 -226,255 -226,220.6 -226,218.4 -226,215.2 
				-194.4,215.2 -194.4,223 -186.5,223 -186.5,253.4 			"/>
			<g>
				<path class="st2" d="M-174.4,255.9c-0.4-0.3-0.9-0.6-1.5-0.6h-21.8c-0.6,0-1.1,0.2-1.5,0.6c-0.2,0.3-0.3,0.7-0.4,1h25.7
					C-174.1,256.6-174.3,256.2-174.4,255.9z"/>
				<path class="st2" d="M-168.9,256.3c-0.3-0.1-0.7-0.2-1.1-0.2c-1.4,0-2.8,1-3.7,2.5c0-0.2-0.1-0.4-0.1-0.6c0-0.1,0-0.1,0-0.1
					H-200v0.1c-0.1,0.7-0.2,1.3-0.2,2c0,6.3,6,11.4,13.3,11.4c5.9,0,10.9-3.3,12.7-7.9c0.3,0.8,0.9,1.3,1.6,1.8
					c0.3,0.1,0.7,0.2,1.1,0.2c1.6,0,3.3-1.3,4.1-3.3C-166.4,259.8-167,257.1-168.9,256.3z M-168.4,261.8c-0.8,1.9-2.6,3.1-3.9,2.5
					c-1.3-0.6-1.8-2.6-0.9-4.6c0.7-1.6,2-2.7,3.2-2.7c0.2,0,0.5,0,0.7,0.1C-168,257.8-167.5,259.9-168.4,261.8z"/>
			</g>
			<rect x="-202.2" y="271.6" class="st2" width="31" height="0.6"/>
		</g>
		<g>
			<rect x="-221.6" y="227.3" class="st2" width="27.6" height="3"/>
		</g>
		<g>
			<rect x="-221.6" y="250.4" class="st2" width="20.5" height="3"/>
		</g>
		<g>
			<rect x="-221.6" y="242.7" class="st2" width="20.5" height="3"/>
		</g>
		<g>
			<rect x="-221.6" y="235" class="st2" width="20.5" height="3"/>
		</g>
	</g>
</g>
</svg>
