<?xml version="1.0" encoding="utf-8"?>
<!-- Generator: Adobe Illustrator 19.0.1, SVG Export Plug-In . SVG Version: 6.00 Build 0)  -->
<svg version="1.1" id="Layer_1" xmlns="http://www.w3.org/2000/svg" xmlns:xlink="http://www.w3.org/1999/xlink" x="0px" y="0px"
	 viewBox="-261 183.8 115.4 115.2" style="enable-background:new -261 183.8 115.4 115.2;" xml:space="preserve">
<style type="text/css">
	.st0{fill:#6F3417;}
	.st1{fill:#F1693C;}
	.st2{fill:#FFFFFF;}
</style>
<g>
	<g>
		<ellipse class="st0" cx="-202.5" cy="241.3" rx="54.8" ry="54.7"/>
		<ellipse class="st1" cx="-203.3" cy="241.4" rx="57.7" ry="57.7"/>
	</g>
	<g>
		<g>
			<path class="st2" d="M-199.8,229.4c4.6-0.6,6.5-4.1,6.5-8.6V218h-1.6v2.4c0,5.9-2.4,7.6-6.5,7.6c-4.2,0-6.5-1.9-6.5-7.6V218h-1.7
				v2.9c0,4.5,2,7.9,6.6,8.6v4.5h3.3V229.4z"/>
		</g>
		<g>
			<path class="st2" d="M-201.4,226.1L-201.4,226.1c3.4,0,4.8-1.9,4.8-5.1v-6.2c0-3.2-1.4-5.1-4.8-5.1l0,0c-3.4,0-4.8,2-4.8,5.1v6.2
				C-206.3,224.2-204.8,226.1-201.4,226.1z"/>
		</g>
		<g>
			<path class="st2" d="M-177.9,235.7h-46.9c-1,0-1.8,0.6-1.8,1.4v5.6c0,0.8,0.4,2,0.8,2.7l5.6,8.7c0.3,0.5,1,0.9,1.7,1.1v-13.7
				h34.4v13.7c0.7-0.2,1.4-0.6,1.7-1.1l5.6-8.7c0.4-0.7,0.8-1.9,0.8-2.7v-5.6C-176.2,236.3-177.1,235.7-177.9,235.7z"/>
		</g>
		<g>
			<path class="st2" d="M-186.2,248v-4.6h-30.6v4.6l0,0v24.1c0,2,1.6,3.6,3.5,3.6h23.5c1.9,0,3.5-1.6,3.5-3.6L-186.2,248L-186.2,248
				z"/>
		</g>
		<g>
			<rect x="-216.7" y="261.7" class="st2" width="30.5" height="14.4"/>
		</g>
	</g>
</g>
</svg>
