<?xml version="1.0" encoding="utf-8"?>
<!-- Generator: Adobe Illustrator 19.0.1, SVG Export Plug-In . SVG Version: 6.00 Build 0)  -->
<svg version="1.1" id="Layer_1" xmlns="http://www.w3.org/2000/svg" xmlns:xlink="http://www.w3.org/1999/xlink" x="0px" y="0px"
	 viewBox="-261 183.8 115.4 115.2" style="enable-background:new -261 183.8 115.4 115.2;" xml:space="preserve">
<style type="text/css">
	.st0{fill:#6F3417;}
	.st1{fill:#F1693C;}
	.st2{fill:#FFFFFF;}
</style>
<g>
	<g>
		<ellipse class="st0" cx="-203.1" cy="240.9" rx="54.2" ry="54.2"/>
		<ellipse class="st1" cx="-203.3" cy="241.5" rx="57.7" ry="57.7"/>
	</g>
	<g>
		<g>
			<path class="st2" d="M-181,276.5h-50.5v-67.1h42l8.5,9.7v3.5l-5.1,8.8v-8.7h-8.3v-8.3h-32.1v57.1h40.4v-14.7l5.1-8.8V276.5z
				 M-230.6,275.6h48.7v-24.2l-3.2,5.6v15.4h-42.4v-58.9h34.1v8.3h8.3v6.2l3.2-5.6v-2.9l-8-9.2h-40.7V275.6z"/>
		</g>
		<g>
			<path class="st2" d="M-197.7,251.6h-25.6v-5.1h28.5L-197.7,251.6z M-222.3,250.7h24.1l1.8-3.2h-26.1L-222.3,250.7L-222.3,250.7z"
				/>
		</g>
		<g>
			<path class="st2" d="M-192.9,243.4h-30.4v-5.1h33.2L-192.9,243.4z M-222.3,242.5h29l1.8-3.2h-30.7v3.2H-222.3z"/>
		</g>
		<g>
			<path class="st2" d="M-205.8,231h-17.5v-5.1h17.5V231z M-222.3,230h15.7v-3.2h-15.7V230z"/>
		</g>
		<g>
			<path class="st2" d="M-214.1,222.7h-9.2v-5.1h9.2V222.7z M-222.3,221.8h7.4v-3.2h-7.4V221.8z"/>
		</g>
		<g>
			<path class="st2" d="M-202,259.9h-21.3v-5.1h23.7l-0.2,0.6c-0.2,0.5-0.2,1.1-0.2,1.7v0.3l-0.3,0.1c-0.8,0.4-1.4,1.1-1.7,1.9
				V259.9z M-222.3,259h19.7c0.4-0.8,1-1.5,1.7-2c0-0.4,0-0.8,0.1-1.2h-21.5v3.3H-222.3z"/>
		</g>
		<g>
			<path class="st2" d="M-202.6,268.2h-20.8v-5.1h20.9l-0.4,3.4c0,0.3,0,0.7,0,1.1L-202.6,268.2z M-222.3,267.3h18.6
				c0-0.3,0-0.6,0-0.8l0.3-2.4h-18.9V267.3L-222.3,267.3z"/>
		</g>
		<g>
			<path class="st2" d="M-177.4,236.9l5.7-10c0.4-0.7,0.2-1.7-0.6-2.1l-4.1-2.4c-0.7-0.4-1.7-0.2-2.1,0.6l-2.9,5.1v15.8
				L-177.4,236.9z"/>
		</g>
		<g>
			<path class="st2" d="M-192.7,259.8c0.4,0.2,0.7,0.5,1,0.8c0.4-0.1,0.8-0.3,1.1-0.7l0.2-0.4h-2.8L-192.7,259.8z"/>
		</g>
		<g>
			<polygon class="st2" points="-189.7,242.6 -189.7,242.9 -189.9,242.9 -191.6,245.9 -192.3,247.1 -189.7,247.1 -189.7,251.2 
				-194.7,251.2 -197,255.3 -189.7,255.3 -189.7,258.3 -185.6,251.1 -185.6,235.4 			"/>
		</g>
		<g>
			<polygon class="st2" points="-185.6,235.4 -185.6,251.1 -182.5,245.9 -181.4,243.9 -181.4,228.2 -184.8,233.9 			"/>
		</g>
		<g>
			<polygon class="st2" points="-189.7,251.2 -189.7,247.1 -192.3,247.1 -194.7,251.2 			"/>
		</g>
		<g>
			<polygon class="st2" points="-189.7,242.9 -189.7,242.6 -189.9,242.9 			"/>
		</g>
		<g>
			<path class="st2" d="M-197.6,257.2c0.3,0.1,0.6,0.2,0.8,0.3l3.5,2h2.8l0.7-1.1v-3h-7.3l-0.4,0.6
				C-197.6,256.3-197.6,256.7-197.6,257.2z"/>
		</g>
		<g>
			<path class="st2" d="M-192.7,259.8l-0.5-0.3h-1.2l1.7,1c0.3,0.2,0.7,0.2,1.1,0.2C-191.9,260.3-192.3,260-192.7,259.8z"/>
		</g>
		<g>
			<path class="st2" d="M-196.8,258.1l2.4,1.4h1.2l-3.5-2c-0.3-0.2-0.5-0.3-0.8-0.3C-197.5,257.6-197.2,257.9-196.8,258.1z"/>
		</g>
		<g>
			<path class="st2" d="M-199.7,260.7l-0.3,2.9h6.3c0.1-0.1,0.2-0.3,0.2-0.4c-0.2-0.1-0.4-0.1-0.6-0.3l-4.1-2.4
				c-0.4-0.2-0.7-0.5-0.9-0.7C-199.5,259.9-199.6,260.2-199.7,260.7z"/>
		</g>
		<g>
			<path class="st2" d="M-200.4,266.9c-0.1,0.9,0.4,1.2,1.1,0.7l5.3-3.6c0.1-0.1,0.2-0.2,0.3-0.3h-6.3L-200.4,266.9z"/>
		</g>
		<g>
			<path class="st2" d="M-198.2,260.6l4.1,2.4c0.2,0.1,0.4,0.2,0.6,0.3c0-0.3-0.1-0.7-0.5-0.9l-4.1-2.4c-0.4-0.2-0.7-0.2-1-0.1
				C-198.9,260.1-198.6,260.3-198.2,260.6z"/>
		</g>
	</g>
</g>
</svg>
