<?xml version="1.0" encoding="utf-8"?>
<!-- Generator: Adobe Illustrator 19.0.1, SVG Export Plug-In . SVG Version: 6.00 Build 0)  -->
<svg version="1.1" id="Layer_1" xmlns="http://www.w3.org/2000/svg" xmlns:xlink="http://www.w3.org/1999/xlink" x="0px" y="0px"
	 viewBox="-261 183.8 115.4 115.2" style="enable-background:new -261 183.8 115.4 115.2;" xml:space="preserve">
<style type="text/css">
	.st0{fill:#6F3417;}
	.st1{fill:#F1693C;}
	.st2{fill:none;stroke:#FFFFFF;stroke-miterlimit:10;}
	.st3{fill:#FFFFFF;}
	.st4{display:none;}
	.st5{display:inline;}
</style>
<g id="Layer_1_1_">
	<g>
		<g>
			<ellipse class="st0" cx="-204" cy="239.9" rx="53.4" ry="53.3"/>
			<ellipse class="st1" cx="-203.3" cy="241.4" rx="57.7" ry="57.6"/>
		</g>
	</g>
	<rect x="-184.5" y="232.1" class="st2" width="20.6" height="18.6"/>
	
		<rect x="-179.6" y="242.5" transform="matrix(0.7956 0.6058 -0.6058 0.7956 112.653 157.8656)" class="st3" width="4" height="6.8"/>
	<circle class="st2" cx="-172.4" cy="239.1" r="5.1"/>
</g>
<g id="Layer_2" class="st4">
	<g class="st5">
		<g>
			<rect x="-729.6" y="629.5" class="st0" width="12.5" height="5.3"/>
		</g>
		<g>
			<rect x="-739.9" y="635.8" class="st0" width="33" height="5.1"/>
		</g>
		<g>
			<g>
				<path class="st0" d="M-746.3,601.3l15.2-7.8v2.3l-12.8,6.4v0.1l12.8,6.4v2.3l-15.2-7.8V601.3z"/>
			</g>
			<g>
				<path class="st0" d="M-729,612.2l9.1-23.7h2.2l-9.2,23.7H-729z"/>
			</g>
			<g>
				<path class="st0" d="M-700.4,603.1l-15.2,7.8v-2.3l12.9-6.4v-0.1l-12.9-6.4v-2.3l15.2,7.8V603.1z"/>
			</g>
		</g>
		<g>
			<path class="st0" d="M-698.7,581.8h-49.6c-3.6,0-6.5,2.2-6.5,4.8v32.2h62.7v-32.2C-692.1,584-695.1,581.8-698.7,581.8z M-694,617
				h-59v-30.4c0-1.6,2.2-3,4.7-3h49.6c2.5,0,4.7,1.4,4.7,3C-694,586.6-694,617-694,617z"/>
		</g>
		<g>
			<path class="st0" d="M-698.7,580h-49.6c-4.6,0-8.3,3-8.3,6.6V625c0,3.7,3.7,6.6,8.3,6.6h49.6c4.6,0,8.3-3,8.3-6.6v-38.4
				C-690.4,583-694.1,580-698.7,580z M-750.8,624.8c-0.6,0-1.1-0.5-1.1-1.1c0-0.6,0.5-1.1,1.1-1.1s1.1,0.5,1.1,1.1
				C-749.7,624.3-750.2,624.8-750.8,624.8z M-747,624.8c-0.6,0-1.1-0.5-1.1-1.1c0-0.6,0.5-1.1,1.1-1.1s1.1,0.5,1.1,1.1
				C-745.9,624.3-746.4,624.8-747,624.8z M-692.1,618.9h-62.8v-32.3c0-2.7,2.9-4.8,6.5-4.8h49.6c3.6,0,6.5,2.2,6.5,4.8v32.3H-692.1z
				"/>
		</g>
	</g>
</g>
<g id="Layer_3">
	<rect x="-241.4" y="233.2" class="st3" width="53.6" height="16.4"/>
	<rect x="-242.7" y="232.1" class="st2" width="56.2" height="18.6"/>
</g>
</svg>
