<?xml version="1.0" encoding="utf-8"?>
<!-- Generator: Adobe Illustrator 19.0.1, SVG Export Plug-In . SVG Version: 6.00 Build 0)  -->
<svg version="1.1" id="Layer_1" xmlns="http://www.w3.org/2000/svg" xmlns:xlink="http://www.w3.org/1999/xlink" x="0px" y="0px"
	 viewBox="-259 181 120 120" style="enable-background:new -259 181 120 120;" xml:space="preserve">
<style type="text/css">
	.st0{fill:#6F3417;}
	.st1{fill:#F1693C;}
	.st2{fill:none;stroke:#6F3417;stroke-width:2;}
</style>
<g>
	<g>
		<ellipse class="st0" cx="-197.2" cy="242.4" rx="57.7" ry="57.6"/>
		<ellipse class="st1" cx="-200.8" cy="239.6" rx="57.7" ry="57.6"/>
	</g>
	<g>
		<g>
			<rect x="-205.1" y="260.1" class="st0" width="12.5" height="5.3"/>
		</g>
		<g>
			<rect x="-215.4" y="266.4" class="st0" width="33" height="5.1"/>
		</g>
		<g>
			<g>
				<path class="st0" d="M-221.8,231.9l15.2-7.8v2.3l-12.8,6.4v0.1l12.8,6.4v2.3l-15.2-7.8V231.9z"/>
			</g>
			<g>
				<path class="st0" d="M-204.5,242.8l9.1-23.7h2.2l-9.2,23.7H-204.5z"/>
			</g>
			<g>
				<path class="st0" d="M-175.9,233.7l-15.2,7.8v-2.3l12.9-6.4v-0.1l-12.9-6.4V224l15.2,7.8V233.7z"/>
			</g>
		</g>
		<g>
			<path class="st0" d="M-174.2,212.4h-49.6c-3.6,0-6.5,2.2-6.5,4.8v32.2h62.7v-32.2C-167.6,214.6-170.6,212.4-174.2,212.4z
				 M-169.5,247.6h-59v-30.4c0-1.6,2.2-3,4.7-3h49.6c2.5,0,4.7,1.4,4.7,3V247.6z"/>
		</g>
		<g>
			<path class="st0" d="M-174.2,210.6h-49.6c-4.6,0-8.3,3-8.3,6.6v38.4c0,3.7,3.7,6.6,8.3,6.6h49.6c4.6,0,8.3-3,8.3-6.6v-38.4
				C-165.9,213.6-169.6,210.6-174.2,210.6z M-226.3,255.4c-0.6,0-1.1-0.5-1.1-1.1s0.5-1.1,1.1-1.1c0.6,0,1.1,0.5,1.1,1.1
				S-225.7,255.4-226.3,255.4z M-222.5,255.4c-0.6,0-1.1-0.5-1.1-1.1s0.5-1.1,1.1-1.1s1.1,0.5,1.1,1.1S-221.9,255.4-222.5,255.4z
				 M-167.6,249.5h-62.8v-32.3c0-2.7,2.9-4.8,6.5-4.8h49.6c3.6,0,6.5,2.2,6.5,4.8v32.3H-167.6z"/>
		</g>
	</g>
</g>
<g>
	<g>
		<ellipse class="st0" cx="-375" cy="427.3" rx="57.7" ry="57.6"/>
		<ellipse class="st1" cx="-378.6" cy="424.5" rx="57.7" ry="57.6"/>
	</g>
	<g>
		<g>
			<rect x="-382.9" y="445" class="st0" width="12.5" height="5.3"/>
		</g>
		<g>
			<rect x="-393.2" y="451.3" class="st0" width="33" height="5.1"/>
		</g>
		<g>
			<g>
				<path class="st0" d="M-399.6,416.8l15.2-7.8v2.3l-12.8,6.4v0.1l12.8,6.4v2.3l-15.2-7.8V416.8z"/>
			</g>
			<g>
				<path class="st0" d="M-382.3,427.7l9.1-23.7h2.2l-9.2,23.7H-382.3z"/>
			</g>
			<g>
				<path class="st0" d="M-353.7,418.6l-15.2,7.8v-2.3l12.9-6.4v-0.1l-12.9-6.4v-2.3l15.2,7.8V418.6z"/>
			</g>
		</g>
		<g>
			<path class="st0" d="M-352,397.3h-49.6c-3.6,0-6.5,2.2-6.5,4.8v32.2h62.7v-32.2C-345.4,399.5-348.4,397.3-352,397.3z
				 M-347.3,432.5h-59v-30.4c0-1.6,2.2-3,4.7-3h49.6c2.5,0,4.7,1.4,4.7,3V432.5z"/>
		</g>
		<g>
			<path class="st0" d="M-352,395.5h-49.6c-4.6,0-8.3,3-8.3,6.6v38.4c0,3.7,3.7,6.6,8.3,6.6h49.6c4.6,0,8.3-3,8.3-6.6v-38.4
				C-343.7,398.5-347.4,395.5-352,395.5z M-404.1,440.3c-0.6,0-1.1-0.5-1.1-1.1c0-0.6,0.5-1.1,1.1-1.1c0.6,0,1.1,0.5,1.1,1.1
				C-403,439.8-403.5,440.3-404.1,440.3z M-400.3,440.3c-0.6,0-1.1-0.5-1.1-1.1c0-0.6,0.5-1.1,1.1-1.1s1.1,0.5,1.1,1.1
				C-399.2,439.8-399.7,440.3-400.3,440.3z M-345.4,434.4h-62.8v-32.3c0-2.7,2.9-4.8,6.5-4.8h49.6c3.6,0,6.5,2.2,6.5,4.8v32.3
				H-345.4z"/>
		</g>
	</g>
</g>
<g>
	<g>
		<ellipse class="st0" cx="-443.3" cy="-83.8" rx="57.7" ry="57.6"/>
		<ellipse class="st1" cx="-446.9" cy="-86.5" rx="57.7" ry="57.6"/>
	</g>
	<g>
		<g>
			<polygon class="st0" points="-419.7,-102.3 -434.9,-102.3 -437.4,-103.2 -419.7,-103.2 			"/>
		</g>
		<g>
			<polygon class="st0" points="-455.5,-102.3 -470.5,-102.3 -470.5,-103.2 -452.9,-103.2 			"/>
		</g>
		<g>
			<path class="st0" d="M-445.2-69.2c-7.1,0-12.9-5.8-12.9-12.9s5.8-12.9,12.9-12.9s12.9,5.8,12.9,12.9
				C-432.3-74.9-438-69.2-445.2-69.2z M-445.2-94c-6.6,0-12,5.4-12,12s5.4,11.9,12,11.9s12-5.4,12-11.9
				C-433.2-88.6-438.6-94-445.2-94z"/>
		</g>
		<g>
			<path class="st2" d="M-419.7-60.9h-50.8c-4.1,0-7.5-2.9-8.2-6.9c-0.1-0.5-0.1-0.9-0.1-1.3v-26c0-0.4,0-0.8,0.1-1.3
				c0.6-4,4.1-6.9,8.2-6.9h15c0.2-0.1,0.6-0.7,1.4-3.2c0.1-0.4,0.2-0.6,0.3-0.7l0.1-0.2c0.6-1.1,2-4.2,4.5-4.2h8.3
				c2.4,0,3.9,3,4.5,4.2l0.1,0.2c0,0.1,0.1,0.4,0.3,0.7c0.8,2.5,1.2,3.1,1.4,3.2h15.1c3.9,0,7.2,2.6,8.1,6.3
				c0.1,0.6,0.2,1.2,0.2,1.8v26c0,0.6-0.1,1.2-0.2,1.8C-412.5-63.5-415.8-60.9-419.7-60.9z M-470.5-102.3c-3.7,0-6.7,2.6-7.3,6.1
				c-0.1,0.4-0.1,0.8-0.1,1.1v26c0,0.3,0,0.7,0.1,1.1c0.6,3.5,3.6,6.1,7.3,6.1h50.9l0,0c3.5,0,6.4-2.3,7.2-5.6
				c0.1-0.5,0.2-1.1,0.2-1.6v-26c0-0.5-0.1-1.1-0.2-1.6c-0.8-3.3-3.7-5.6-7.2-5.6h-15.2c-0.8-0.1-1.4-1.4-2.2-3.8
				c-0.1-0.3-0.2-0.5-0.2-0.6l-0.1-0.2c-0.4-0.9-1.8-3.7-3.6-3.7h-8.3c-1.9,0-3.2,2.8-3.6,3.7l-0.1,0.2c0,0.1-0.1,0.3-0.2,0.6
				c-0.8,2.4-1.4,3.7-2.2,3.8h-0.1H-470.5z M-445.2-65c-9.4,0-17-7.6-17-17s7.6-17,17-17s17,7.6,17,17
				C-428.1-72.7-435.8-65-445.2-65z M-445.2-98.1c-8.9,0-16.1,7.2-16.1,16.1s7.2,16.1,16.1,16.1s16.1-7.2,16.1-16.1
				S-436.3-98.1-445.2-98.1z"/>
		</g>
	</g>
</g>
<g>
	<g>
		<ellipse class="st0" cx="95.6" cy="435" rx="57.7" ry="57.6"/>
		<ellipse class="st1" cx="91.9" cy="432.2" rx="57.7" ry="57.6"/>
	</g>
	<g>
		<g>
			<rect x="71.2" y="449.6" class="st0" width="10.7" height="5.1"/>
		</g>
		<g>
			<rect x="86.7" y="449.6" class="st0" width="30.8" height="5.1"/>
		</g>
		<g>
			<g>
				<path class="st0" d="M87.1,434.8H70.8v-16.3h16.3V434.8z M71.7,433.9h14.5v-14.5H71.7V433.9z"/>
			</g>
			<g>
				<polygon class="st0" points="96.5,400.6 81.2,400.6 81.2,404.2 81.2,408 81.2,411.5 106.7,411.5 106.7,408 106.7,404.2 
					106.7,400.6 				"/>
			</g>
			<g>
				<path class="st0" d="M117.1,466.6H70.3c-5.7,0-10.2-5.9-10.2-13.5v-35.7c0-7.6,4.5-13.5,10.2-13.5H77v6h-6.7
					c-2,0-4.2,3.2-4.2,7.5v35.7c0,4.3,2.2,7.5,4.2,7.5h46.8c2,0,4.2-3.2,4.2-7.5v-35.7c0-4.3-2.2-7.5-4.2-7.5h-6.3v-6h6.3
					c5.7,0,10.2,5.9,10.2,13.5v35.7C127.4,460.6,122.9,466.6,117.1,466.6z M70.4,404.8c-5.2,0-9.3,5.5-9.3,12.6V453
					c0,7.1,4.1,12.6,9.3,12.6h46.8c5.2,0,9.3-5.5,9.3-12.6v-35.7c0-7.1-4.1-12.6-9.3-12.6h-5.3v4.2h5.3c2.5,0,5.1,3.4,5.1,8.4V453
					c0,5.1-2.7,8.4-5.1,8.4H70.4c-2.5,0-5.1-3.4-5.1-8.4v-35.7c0-5.1,2.7-8.4,5.1-8.4h5.8v-4.2H70.4z"/>
			</g>
			<g>
				<polygon class="st0" points="106,428.5 106,433.4 92.2,433.4 92.2,419.8 106,419.8 106,421 106.9,420 106.9,418.8 91.3,418.8 
					91.3,434.4 106.9,434.4 106.9,427.5 				"/>
			</g>
			<g>
				<polygon class="st0" points="113.7,414.5 101.4,426.8 96.5,421.8 94,424.3 99,429.2 101.4,431.8 103.9,429.2 116.1,417 				"/>
			</g>
			<g>
				<rect x="71.2" y="439.4" class="st0" width="10.7" height="5.1"/>
			</g>
			<g>
				<rect x="86.7" y="439.4" class="st0" width="30.8" height="5.1"/>
			</g>
		</g>
	</g>
</g>
<g>
	<g>
		<ellipse class="st0" cx="-224.8" cy="560.2" rx="57.7" ry="57.6"/>
		<ellipse class="st1" cx="-228.4" cy="557.4" rx="57.7" ry="57.6"/>
	</g>
	<g>
		<g>
			<path class="st0" d="M-206.1,592.4h-50.5v-67.1h42l8.5,9.7v3.5l-5.1,8.8v-8.7h-8.3v-8.3h-32.1v57h40.4v-14.7l5.1-8.8V592.4z
				 M-255.7,591.4h48.7v-24.2l-3.2,5.6v15.4h-42.3v-58.8h34v8.3h8.3v6.2l3.2-5.6v-2.9l-8-9.2h-40.7V591.4z"/>
		</g>
		<g>
			<path class="st0" d="M-222.8,567.5h-25.6v-5.1h28.5L-222.8,567.5z M-247.4,566.6h24.1l1.8-3.2h-26v3.2H-247.4z"/>
		</g>
		<g>
			<path class="st0" d="M-218,559.3h-30.4v-5.1h33.2L-218,559.3z M-247.4,558.4h28.9l1.8-3.2h-30.7V558.4z"/>
		</g>
		<g>
			<path class="st0" d="M-230.9,546.9h-17.5v-5.1h17.5V546.9z M-247.4,546h15.6v-3.2h-15.6V546z"/>
		</g>
		<g>
			<path class="st0" d="M-239.2,538.6h-9.2v-5.1h9.2V538.6z M-247.4,537.7h7.4v-3.2h-7.4C-247.4,534.5-247.4,537.7-247.4,537.7z"/>
		</g>
		<g>
			<path class="st0" d="M-227.1,575.8h-21.3v-5.1h23.7l-0.2,0.6c-0.2,0.5-0.2,1.1-0.2,1.7v0.3l-0.3,0.1c-0.8,0.4-1.4,1.1-1.7,1.9
				V575.8z M-247.4,574.9h19.7c0.4-0.8,1-1.5,1.7-2c0-0.4,0-0.8,0.1-1.2h-21.5V574.9z"/>
		</g>
		<g>
			<path class="st0" d="M-227.7,584.1h-20.7V579h20.9l-0.4,3.4c0,0.3,0,0.7,0,1.1L-227.7,584.1z M-247.4,583.2h18.6
				c0-0.3,0-0.6,0-0.8l0.3-2.4h-18.9V583.2z"/>
		</g>
		<g>
			<path class="st0" d="M-202.5,552.8l5.7-10c0.4-0.7,0.2-1.7-0.6-2.1l-4.1-2.3c-0.7-0.4-1.7-0.2-2.1,0.6l-2.9,5.1v15.7
				L-202.5,552.8z"/>
		</g>
		<g>
			<path class="st0" d="M-217.8,575.7c0.4,0.2,0.7,0.5,1,0.8c0.4-0.1,0.8-0.3,1.1-0.7l0.2-0.4h-2.8L-217.8,575.7z"/>
		</g>
		<g>
			<polygon class="st0" points="-214.8,558.5 -214.8,558.8 -215,558.8 -216.7,561.8 -217.4,563 -214.8,563 -214.8,567.1 
				-219.8,567.1 -222.1,571.2 -214.8,571.2 -214.8,574.2 -210.7,567 -210.7,551.3 			"/>
		</g>
		<g>
			<polygon class="st0" points="-210.7,551.3 -210.7,567 -207.7,561.8 -206.5,559.8 -206.5,544.1 -209.9,549.8 			"/>
		</g>
		<g>
			<polygon class="st0" points="-214.8,567.1 -214.8,563 -217.4,563 -219.8,567.1 			"/>
		</g>
		<g>
			<polygon class="st0" points="-214.8,558.8 -214.8,558.5 -215,558.8 			"/>
		</g>
		<g>
			<path class="st0" d="M-222.7,573c0.3,0.1,0.6,0.2,0.8,0.3l3.5,2h2.8l0.7-1.1v-3h-7.3l-0.4,0.6
				C-222.7,572.2-222.7,572.6-222.7,573z"/>
		</g>
		<g>
			<path class="st0" d="M-217.8,575.7l-0.5-0.3h-1.2l1.7,1c0.3,0.2,0.7,0.2,1.1,0.2C-217.1,576.2-217.4,575.9-217.8,575.7z"/>
		</g>
		<g>
			<path class="st0" d="M-221.9,574l2.4,1.4h1.2l-3.5-2c-0.3-0.2-0.5-0.3-0.8-0.3C-222.6,573.4-222.3,573.8-221.9,574z"/>
		</g>
		<g>
			<path class="st0" d="M-224.8,576.6l-0.3,2.9h6.3c0.1-0.1,0.2-0.3,0.2-0.4c-0.2-0.1-0.4-0.1-0.6-0.3l-4.1-2.3
				c-0.4-0.2-0.7-0.5-0.9-0.7C-224.6,575.8-224.7,576.1-224.8,576.6z"/>
		</g>
		<g>
			<path class="st0" d="M-225.5,582.7c-0.1,0.9,0.4,1.2,1.1,0.7l5.3-3.6c0.1-0.1,0.2-0.2,0.3-0.3h-6.3L-225.5,582.7z"/>
		</g>
		<g>
			<path class="st0" d="M-223.3,576.5l4.1,2.3c0.2,0.1,0.4,0.2,0.6,0.3c0-0.3-0.1-0.7-0.5-0.9l-4.1-2.3c-0.4-0.2-0.7-0.2-1-0.1
				C-224,576-223.7,576.2-223.3,576.5z"/>
		</g>
	</g>
</g>
<g>
	<g>
		<ellipse class="st0" cx="-707.8" cy="431" rx="57.7" ry="57.6"/>
		<ellipse class="st1" cx="-711.6" cy="428.2" rx="57.7" ry="57.6"/>
	</g>
	<g>
		<g>
			<g>
				<rect x="-703.2" y="430" class="st0" width="16.1" height="2"/>
			</g>
			<g>
				<rect x="-703.2" y="424" class="st0" width="8" height="2"/>
			</g>
			<g>
				<rect x="-703.2" y="420" class="st0" width="4" height="2"/>
			</g>
			<g>
				<polygon class="st0" points="-689,422 -689,418 -705.1,418 -705.1,433 -684.8,433 -684.8,422 				"/>
			</g>
			<g>
				<polygon class="st0" points="-705.1,418 -689,418 -689,422 -684.8,422 -684.8,433 -682.8,433 -682.8,420.5 -687,416 -707.1,416 
					-707.1,433 -705.1,433 				"/>
			</g>
			<g>
				<polygon class="st0" points="-679.6,417.2 -683.6,412.6 -703.7,412.6 -703.7,415 -701.7,415 -701.7,414.6 -685.6,414.6 
					-685.6,416 -683.3,418.6 -681.6,418.6 -681.6,433 -679.6,433 				"/>
			</g>
		</g>
		<g>
			<rect x="-733.2" y="430" class="st0" width="16.1" height="2"/>
		</g>
		<g>
			<rect x="-733.2" y="424" class="st0" width="8" height="2"/>
		</g>
		<g>
			<polygon class="st0" points="-719.1,422 -719.1,418 -735.2,418 -735.2,433 -715.1,433 -715.1,422 			"/>
		</g>
		<g>
			<polygon class="st0" points="-735.2,418 -719.1,418 -719.1,422 -715.1,422 -715.1,433 -713.1,433 -713.1,420.5 -717.1,416 
				-737.2,416 -737.2,433 -735.2,433 			"/>
		</g>
		<g>
			<g>
				<path class="st0" d="M-676.5,454.8h-66.4v-50.2h66.4V454.8z M-741.1,452.5h62.6v-45.8h-62.6V452.5z"/>
			</g>
		</g>
		<g>
			<rect x="-740" y="434.9" class="st0" width="29.7" height="1.8"/>
		</g>
		<g>
			<rect x="-708.5" y="434.9" class="st0" width="28.9" height="1.8"/>
		</g>
	</g>
</g>
<g>
	<g>
		<ellipse class="st0" cx="-383.7" cy="570.3" rx="57.7" ry="57.6"/>
		<ellipse class="st1" cx="-387.4" cy="567.7" rx="57.7" ry="57.6"/>
	</g>
	<g>
		<g>
			<path class="st0" d="M-358.3,552c0-3.4-3.1-6.2-6.8-6.2h-41c-3.8,0-6.8,2.8-6.8,6.2v32h54.7L-358.3,552L-358.3,552z
				 M-411.5,582.3V552c0-2.5,2.4-4.5,5.4-4.5h41c3,0,5.4,2,5.4,4.5v30.3H-411.5z"/>
		</g>
		<g>
			<path class="st0" d="M-355,585h-3.5h-54.7h-3.1c-1.2,0-2.2,1.6-2.2,3.6s1,3.6,2.2,3.6h3.7h53.4h4.1c1.2,0,2.2-1.6,2.2-3.6
				S-353.8,585-355,585z M-356.8,589.2h-2.7c-0.3,0-0.6-0.2-0.6-0.5c0-0.3,0.3-0.5,0.6-0.5h2.7c0.3,0,0.6,0.2,0.6,0.5
				C-356.2,588.8-356.5,589.2-356.8,589.2z"/>
		</g>
		<g>
			<rect x="-408.4" y="552" class="st0" width="46.1" height="11.8"/>
		</g>
		<g>
			<g>
				<rect x="-375.5" y="566" class="st0" width="13.2" height="2.5"/>
			</g>
			<g>
				<rect x="-375.5" y="575" class="st0" width="13.2" height="2.5"/>
			</g>
			<g>
				<rect x="-375.5" y="570.5" class="st0" width="13.2" height="2.5"/>
			</g>
		</g>
		<g>
			<g>
				<rect x="-391.9" y="566" class="st0" width="13.2" height="2.5"/>
			</g>
			<g>
				<rect x="-391.9" y="575" class="st0" width="13.2" height="2.5"/>
			</g>
			<g>
				<rect x="-391.9" y="570.5" class="st0" width="13.2" height="2.5"/>
			</g>
		</g>
		<g>
			<g>
				<rect x="-408.3" y="566" class="st0" width="13.2" height="2.5"/>
			</g>
			<g>
				<rect x="-408.3" y="575" class="st0" width="13.2" height="2.5"/>
			</g>
			<g>
				<rect x="-408.3" y="570.5" class="st0" width="13.2" height="2.5"/>
			</g>
		</g>
	</g>
</g>
<g>
	<g>
		<ellipse class="st0" cx="-59.4" cy="571.8" rx="57.7" ry="57.6"/>
		<ellipse class="st1" cx="-63.1" cy="569" rx="57.7" ry="57.6"/>
	</g>
	<g>
		<g>
			<path class="st0" d="M-76.1,551.2c0,2-1.7,3.7-3.7,3.7l0,0c-2,0-3.7-1.7-3.7-3.7v-6.9c0-2,1.7-3.7,3.7-3.7l0,0
				c2,0,3.7,1.7,3.7,3.7V551.2z"/>
		</g>
		<g>
			<rect x="-74.3" y="547.2" class="st0" width="26.7" height="1.7"/>
		</g>
		<g>
			<path class="st0" d="M-35.7,547.2h-1v1.7h1c3.2,0,5.8,2.6,5.8,5.7v38.1c0,3.2-2.6,5.7-5.8,5.7h-51.2c-3.2,0-5.8-2.6-5.8-5.7
				v-38.1c0-3.2,2.6-5.7,5.8-5.7h1.6v-1.7h-1.6c-4.2,0-7.6,3.3-7.6,7.5v38.1c0,4.1,3.4,7.5,7.6,7.5h51.2c4.2,0,7.6-3.3,7.6-7.5
				v-38.1C-28.1,550.6-31.5,547.2-35.7,547.2z"/>
		</g>
		<g>
			<path class="st0" d="M-38.5,551.4c0,2-1.7,3.7-3.7,3.7l0,0c-2,0-3.7-1.7-3.7-3.7v-6.9c0-2,1.7-3.7,3.7-3.7l0,0
				c2,0,3.7,1.7,3.7,3.7V551.4z"/>
		</g>
		<g>
			<g>
				<g>
					<rect x="-44.1" y="566.8" class="st0" width="7.2" height="7.2"/>
				</g>
				<g>
					<rect x="-54.4" y="566.8" class="st0" width="7.2" height="7.2"/>
				</g>
				<g>
					<rect x="-64.8" y="566.8" class="st0" width="7.2" height="7.2"/>
				</g>
				<g>
					<rect x="-75.2" y="566.8" class="st0" width="7.2" height="7.2"/>
				</g>
				<g>
					<rect x="-85.5" y="566.8" class="st0" width="7.2" height="7.2"/>
				</g>
			</g>
			<g>
				<g>
					<rect x="-44.1" y="576.7" class="st0" width="7.2" height="7.2"/>
				</g>
				<g>
					<rect x="-54.4" y="576.7" class="st0" width="7.2" height="7.2"/>
				</g>
				<g>
					<rect x="-64.8" y="576.7" class="st0" width="7.2" height="7.2"/>
				</g>
				<g>
					<rect x="-75.2" y="576.7" class="st0" width="7.2" height="7.2"/>
				</g>
				<g>
					<rect x="-85.5" y="576.7" class="st0" width="7.2" height="7.2"/>
				</g>
			</g>
			<g>
				<g>
					<rect x="-44.1" y="586.6" class="st0" width="7.2" height="7.2"/>
				</g>
				<g>
					<rect x="-54.4" y="586.6" class="st0" width="7.2" height="7.2"/>
				</g>
				<g>
					<rect x="-64.8" y="586.6" class="st0" width="7.2" height="7.2"/>
				</g>
				<g>
					<rect x="-75.2" y="586.6" class="st0" width="7.2" height="7.2"/>
				</g>
				<g>
					<rect x="-85.5" y="586.6" class="st0" width="7.2" height="7.2"/>
				</g>
			</g>
		</g>
		<g>
			<g>
				<path class="st0" d="M-52.3,563.6v-0.4l0.6-0.5c1.3-1.3,1.9-1.9,1.9-2.7c0-0.5-0.3-1-1-1c-0.5,0-0.9,0.2-1.1,0.4l-0.2-0.5
					c0.4-0.3,0.9-0.5,1.5-0.5c1.1,0,1.6,0.8,1.6,1.5c0,1-0.7,1.7-1.8,2.8l-0.4,0.4l0,0h2.3v0.6h-3.4V563.6z"/>
			</g>
			<g>
				<path class="st0" d="M-44.8,560.9c0,1.8-0.7,2.7-1.8,2.7c-1,0-1.7-0.9-1.7-2.7c0-1.7,0.7-2.7,1.8-2.7
					C-45.4,558.3-44.8,559.3-44.8,560.9z M-47.6,561c0,1.3,0.4,2.1,1.1,2.1c0.7,0,1.1-0.8,1.1-2.2c0-1.3-0.3-2.1-1.1-2.1
					C-47.2,558.8-47.6,559.6-47.6,561z"/>
			</g>
			<g>
				<path class="st0" d="M-42.6,559L-42.6,559l-0.9,0.5l-0.1-0.5l1.1-0.6h0.6v5.2h-0.7L-42.6,559L-42.6,559z"/>
			</g>
			<g>
				<path class="st0" d="M-37,559h-2l-0.2,1.3c0.1,0,0.2,0,0.4,0c0.4,0,0.8,0.1,1.1,0.3c0.4,0.2,0.7,0.7,0.7,1.3
					c0,1-0.8,1.8-1.9,1.8c-0.6,0-1-0.2-1.3-0.3l0.2-0.5c0.2,0.1,0.6,0.3,1.1,0.3c0.7,0,1.2-0.4,1.2-1.1c0-0.7-0.5-1.1-1.5-1.1
					c-0.3,0-0.5,0-0.7,0.1l0.3-2.5h2.5L-37,559L-37,559z"/>
			</g>
		</g>
	</g>
</g>
<g>
	<g>
		<ellipse class="st0" cx="95.8" cy="579.4" rx="57.7" ry="57.6"/>
		<ellipse class="st1" cx="92.2" cy="576.7" rx="57.7" ry="57.6"/>
	</g>
	<g>
		<g>
			<g>
				<g>
					<g>
						<rect x="65.4" y="559.7" class="st0" width="16.6" height="1.2"/>
					</g>
				</g>
			</g>
			<g>
				<g>
					<g>
						<polygon class="st0" points="80.8,562.7 80.1,562 81.8,560.3 80.1,558.7 80.8,557.9 83.2,560.3 						"/>
					</g>
				</g>
			</g>
			<g>
				<g>
					<g>
						<polygon class="st0" points="66.7,557.9 67.3,558.7 65.7,560.3 67.3,562 66.7,562.7 64.2,560.3 						"/>
					</g>
				</g>
			</g>
		</g>
		<g>
			<g>
				<g>
					<path class="st0" d="M71.8,544.8l1.5,4c0.2,0.4,0.3,1,0.4,1.4l0,0c0.1-0.4,0.3-0.9,0.4-1.4l1.4-4h1.3l-1.9,4.9
						c-0.9,2.3-1.5,3.5-2.3,4.3c-0.6,0.5-1.2,0.7-1.5,0.8l-0.3-1c0.3-0.1,0.7-0.3,1.1-0.6c0.3-0.3,0.8-0.7,1-1.4
						c0.1-0.1,0.1-0.2,0.1-0.3c0-0.1,0-0.2-0.1-0.3l-2.5-6.3L71.8,544.8L71.8,544.8z"/>
				</g>
			</g>
		</g>
		<g>
			<g>
				<g>
					<rect x="115.4" y="565.2" class="st0" width="1.2" height="44.5"/>
				</g>
			</g>
			<g>
				<g>
					<polygon class="st0" points="113.8,608.5 114.4,607.8 116.1,609.5 117.8,607.8 118.4,608.5 116.1,610.9 					"/>
				</g>
			</g>
			<g>
				<g>
					<polygon class="st0" points="118.4,566.4 117.8,567.1 116.1,565.5 114.4,567.1 113.8,566.4 116.1,564 					"/>
				</g>
			</g>
		</g>
		<g>
			<g>
				<g>
					<path class="st0" d="M121.2,582.5l1,1.5c0.3,0.4,0.5,0.7,0.7,1.1l0,0c0.2-0.4,0.5-0.8,0.7-1.1l1-1.5h1.3l-2.3,3.3l2.4,3.5h-1.4
						l-1-1.5c-0.3-0.4-0.5-0.8-0.7-1.2l0,0c-0.2,0.4-0.5,0.8-0.7,1.2l-1,1.5h-1.4l2.4-3.5l-2.3-3.3H121.2z"/>
				</g>
			</g>
		</g>
		<g>
			<g>
				<path class="st0" d="M83.8,589.5L69.9,570h-5.7v-5.8h19.1v5.8h-5.8l10.2,14.3l9.4-14.3h-5.9v-5.8h18.5v5.8h-6.2l-12.9,19.5v15.3
					h6.4v5.8H77.5v-5.8h6.2L83.8,589.5L83.8,589.5z"/>
			</g>
		</g>
		<g>
			<rect x="60.8" y="589.2" class="st0" width="49.4" height="0.5"/>
		</g>
		<g>
			<rect x="109.7" y="544.6" class="st0" width="0.5" height="66.9"/>
		</g>
		<g>
			<rect x="60.8" y="569.9" class="st0" width="66.5" height="0.5"/>
		</g>
		<g>
			<rect x="60.8" y="564.1" class="st0" width="66.5" height="0.5"/>
		</g>
	</g>
</g>
<g>
	<g>
		<ellipse class="st0" cx="-558" cy="568.2" rx="57.7" ry="57.6"/>
		<ellipse class="st1" cx="-561.8" cy="565.4" rx="57.7" ry="57.6"/>
	</g>
	<g>
		<g id="images_5_">
			<g>
				<path class="st0" d="M-575.7,553.8l-5.3,10.5l-3.5-5.2l-5.2,8.7h20.8L-575.7,553.8z M-593,545.2L-593,573h27.9v-27.9L-593,545.2
					z M-567,571.3h-24.3V547h24.3V571.3z M-585.2,555.6c1.5,0,2.6-1.2,2.6-2.6c0-1.5-1.2-2.6-2.6-2.6c-1.5,0-2.6,1.2-2.6,2.6
					S-586.7,555.6-585.2,555.6z"/>
			</g>
		</g>
		<g id="mail_5_">
			<g>
				<path class="st0" d="M-554.5,581.5v14.2l7-7.1L-554.5,581.5z M-526.8,578.1h-27.7l13.9,14L-526.8,578.1z M-526.8,595.6v-14
					l-6.9,7L-526.8,595.6z M-540.7,596.1l-5.2-5.8l-7.9,8.7h26.3l-8-8.7L-540.7,596.1z"/>
			</g>
		</g>
		<g>
			<polygon class="st0" points="-546.2,538.3 -546.2,545.5 -539,545.5 -539,576.3 -535.3,576.3 -535.3,542.9 -542.7,534.6 
				-579,534.6 -579,543.3 -575.2,543.3 -575.2,538.3 			"/>
		</g>
		<g>
			<polygon class="st0" points="-575.2,589 -575.2,574.8 -579,574.8 -579,592.6 -556.5,592.6 -556.5,589 			"/>
		</g>
	</g>
</g>
<g>
	<g>
		<ellipse class="st0" cx="-723.4" cy="576.7" rx="57.7" ry="57.6"/>
		<ellipse class="st1" cx="-727.1" cy="573.9" rx="57.7" ry="57.6"/>
	</g>
	<g>
		<g>
			<path class="st0" d="M-723.6,561.9c4.6-0.6,6.5-4.1,6.5-8.6v-2.9h-1.6v2.3c0,5.9-2.3,7.6-6.5,7.6s-6.5-1.9-6.5-7.6v-2.3h-1.7v2.9
				c0,4.5,2,7.9,6.6,8.6v4.5h3.3L-723.6,561.9z"/>
		</g>
		<g>
			<path class="st0" d="M-725.2,558.6L-725.2,558.6c3.4,0,4.8-1.9,4.8-5.1v-6.2c0-3.2-1.4-5.1-4.8-5.1l0,0c-3.4,0-4.8,2-4.8,5.1v6.2
				C-730.1,556.7-728.6,558.6-725.2,558.6z"/>
		</g>
		<g>
			<path class="st0" d="M-701.8,568.2h-46.8c-1,0-1.8,0.6-1.8,1.4v5.6c0,0.8,0.4,2,0.8,2.7l5.6,8.7c0.3,0.5,1,0.9,1.7,1.1V574h34.3
				v13.7c0.7-0.2,1.4-0.6,1.7-1.1l5.6-8.7c0.4-0.7,0.8-1.9,0.8-2.7v-5.6C-700,568.8-700.9,568.2-701.8,568.2z"/>
		</g>
		<g>
			<path class="st0" d="M-710,580.5v-4.6h-30.6v4.6l0,0v24.1c0,2,1.6,3.6,3.5,3.6h23.5c1.9,0,3.5-1.6,3.5-3.6L-710,580.5L-710,580.5
				z"/>
		</g>
		<g>
			<rect x="-740.5" y="594.1" class="st0" width="30.5" height="14.4"/>
		</g>
	</g>
</g>
<g>
	<g>
		<path class="st0" d="M-497.6,431.8c0,31.8-25.8,57.6-57.7,57.6c-31.8,0-57.7-25.8-57.7-57.6s25.8-57.6,57.7-57.6
			C-523.5,374.1-497.6,399.9-497.6,431.8z"/>
		<ellipse class="st1" cx="-559" cy="429" rx="57.7" ry="57.6"/>
	</g>
	<g>
		<rect x="-595.5" y="391.4" class="st0" width="73" height="75"/>
		<path class="st1" d="M-597.8,390v39.7h39.7V390H-597.8z M-569.8,411.1h-4.4c0,7.1,0,15.8,0,15.8h-6.6c0,0,0-8.7,0-15.8h-3.1v-5.6
			h3.1v-3.6c0-2.6,1.2-6.6,6.6-6.6h4.9v5.4c0,0-3,0-3.5,0c-0.6,0-1.4,0.3-1.4,1.5v3.3h5L-569.8,411.1z"/>
		<path class="st1" d="M-559.2,390v39.7h39.7V390H-559.2z M-526.2,404.9c0,0.3,0,0.6,0,0.8c0,8.6-6.5,18.5-18.5,18.5
			c-3.7,0-7.1-1.1-10-2.9c0.5,0.1,1,0.1,1.6,0.1c3.1,0,5.9-1,8.1-2.8c-2.8-0.1-5.3-1.9-6.1-4.5c0.4,0.1,0.8,0.1,1.2,0.1
			c0.6,0,1.2-0.1,1.7-0.2c-3-0.6-5.2-3.2-5.2-6.4v-0.1c0.9,0.5,1.9,0.8,2.9,0.8c-1.7-1.2-2.9-3.2-2.9-5.4c0-1.2,0.3-2.3,0.9-3.3
			c3.2,3.9,8,6.5,13.4,6.8c-0.1-0.5-0.2-1-0.2-1.5c0-3.6,2.9-6.5,6.5-6.5c1.9,0,3.6,0.8,4.7,2.1c1.5-0.3,2.9-0.8,4.1-1.6
			c-0.5,1.5-1.5,2.8-2.9,3.6c1.3-0.2,2.6-0.5,3.7-1C-523.8,402.8-525,404-526.2,404.9z"/>
		<g>
			<path class="st1" d="M-525.5,457.1L-525.5,457.1L-525.5,457.1L-525.5,457.1z"/>
			<path class="st1" d="M-559.2,427.8v39.7h39.7v-39.7H-559.2z M-544.8,457.1h-4.3v-12.8h4.3V457.1z M-547,442.6L-547,442.6
				c-1.5,0-2.4-1-2.4-2.2c0-1.3,1-2.2,2.4-2.2c1.5,0,2.4,1,2.4,2.2C-544.5,441.6-545.5,442.6-547,442.6z M-529.5,457.1h-4.2v-6.8
				c0-1.7-0.6-2.9-2.2-2.9c-1.2,0-1.9,0.8-2.2,1.6c-0.1,0.3-0.1,0.7-0.1,1v7.1h-4.3c0,0,0.1-11.6,0-12.8h4.3v1.8
				c0.6-0.9,1.6-2.1,3.8-2.1c2.8,0,4.9,1.8,4.9,5.8L-529.5,457.1L-529.5,457.1z"/>
		</g>
		<g>
			<path class="st1" d="M-581,453.9c-3.8,0-6.9,2.4-6.9,5.2c0,2.9,2.7,5.2,6.5,5.2c5.3,0,7.1-2.2,7.1-5.1c0-0.3,0-0.7-0.1-1
				c-0.4-1.6-2.1-2.5-4.1-3.9C-579.2,454-580,453.9-581,453.9z"/>
			<path class="st1" d="M-597.8,427.8v39.7h39.7v-39.7H-597.8z M-573.2,441.6c0,2.1-1.1,3.7-2.8,5c-1.6,1.2-1.9,1.8-1.9,2.8
				c0,0.9,1.9,2.2,2.8,2.9c3,2.3,3.6,3.7,3.6,6.5c0,3.5-3.8,7-10,7c-5.4,0-10-2.2-10-5.7c0-3.6,3.8-7.3,9.2-7.3c0.6,0,1.1,0,1.7,0
				c-0.7-0.7-1.3-1.3-1.3-2.4c0-0.6,0.2-1.3,0.5-1.8c-0.3,0-0.6,0-0.9,0c-4.5,0-7.1-3.1-7.1-7.1c0-3.8,4-7.3,8.7-7.3
				c2.4,0,9.3,0,9.3,0l-2.1,2.2h-2.5C-574,437.2-573.2,439.2-573.2,441.6z M-559.7,441h-4.3v4.3h-2.2V441h-4.3v-2.2h4.3v-4.3h2.2
				v4.3h4.3V441z"/>
			<path class="st1" d="M-582,435.6c-2.5-0.1-4.2,2.5-3.8,5.8s2.8,5.6,5.3,5.7s4-2.1,3.5-5.4C-577.2,438.4-579.5,435.6-582,435.6z"
				/>
		</g>
	</g>
</g>
<g>
	<g>
		<ellipse class="st0" cx="-57.6" cy="425.9" rx="57.7" ry="57.6"/>
		<ellipse class="st1" cx="-61.2" cy="423.1" rx="57.7" ry="57.6"/>
	</g>
	<g>
		<g>
			<path class="st0" d="M-29.1,454.3h-31c0,0.4,0.3,0.7,0.6,0.8c0.6,0.4,7,0.7,14.9,0.7c8,0,14.6-0.3,14.9-0.7
				C-29.3,455-29.1,454.8-29.1,454.3z"/>
			<polygon class="st0" points="-40.6,435 -40.6,401.9 -48.4,392.9 -87.8,392.9 -87.8,400.1 -87.8,402.3 -87.8,436.8 -87.8,438.3 
				-87.8,456 -63.4,456 -63.4,452.1 -83.9,452.1 -83.9,438.3 -83.9,436.8 -83.9,402.3 -83.9,400.1 -83.9,396.9 -52.3,396.9 
				-52.3,404.8 -44.4,404.8 -44.4,435 			"/>
			<g>
				<path class="st0" d="M-32.4,437.6c-0.4-0.3-0.9-0.6-1.5-0.6h-21.8c-0.6,0-1.1,0.2-1.5,0.6c-0.2,0.3-0.3,0.7-0.4,1H-32
					C-32.1,438.3-32.2,437.9-32.4,437.6z"/>
				<path class="st0" d="M-26.8,438.1c-0.3-0.1-0.7-0.2-1.1-0.2c-1.4,0-2.8,1-3.7,2.5c0-0.2-0.1-0.4-0.1-0.6c0-0.1,0-0.1,0-0.1
					h-26.2v0.1c-0.1,0.7-0.2,1.3-0.2,2c0,6.3,6,11.4,13.3,11.4c5.9,0,10.9-3.3,12.7-7.9c0.3,0.8,0.9,1.3,1.6,1.7
					c0.3,0.1,0.7,0.2,1.1,0.2c1.6,0,3.3-1.3,4.1-3.3C-24.3,441.5-24.9,438.8-26.8,438.1z M-26.3,443.5c-0.8,1.9-2.6,3.1-3.9,2.5
					c-1.3-0.6-1.7-2.6-0.9-4.6c0.7-1.6,2-2.7,3.2-2.7c0.2,0,0.5,0,0.7,0.1C-25.8,439.5-25.4,441.6-26.3,443.5z"/>
			</g>
			<rect x="-60.1" y="453.3" class="st0" width="31" height="0.6"/>
		</g>
		<g>
			<rect x="-79.6" y="409" class="st0" width="27.6" height="3"/>
		</g>
		<g>
			<rect x="-79.6" y="432.1" class="st0" width="20.5" height="3"/>
		</g>
		<g>
			<rect x="-79.6" y="424.4" class="st0" width="20.5" height="3"/>
		</g>
		<g>
			<rect x="-79.6" y="416.8" class="st0" width="20.5" height="3"/>
		</g>
	</g>
</g>
<g>
	<g>
		<ellipse class="st0" cx="-218.4" cy="425.8" rx="57.7" ry="57.6"/>
		<ellipse class="st1" cx="-222.1" cy="423.1" rx="57.7" ry="57.6"/>
	</g>
	<g>
		<g>
			<path class="st0" d="M-190,454.3h-31c0,0.4,0.3,0.7,0.6,0.8c0.6,0.4,7,0.7,14.9,0.7c8,0,14.6-0.3,14.9-0.7
				C-190.2,455-190,454.8-190,454.3z"/>
			<polygon class="st0" points="-201.4,435 -201.4,402 -209.3,393 -248.7,393 -248.7,400.1 -248.7,402.3 -248.7,436.8 -248.7,438.2 
				-248.7,456 -224.3,456 -224.3,452.1 -244.8,452.1 -244.8,438.2 -244.8,436.8 -244.8,402.3 -244.8,400.1 -244.8,397 -213.2,397 
				-213.2,404.8 -205.3,404.8 -205.3,435 			"/>
			<g>
				<path class="st0" d="M-193.3,437.6c-0.4-0.3-0.9-0.6-1.5-0.6h-21.8c-0.6,0-1.1,0.2-1.5,0.6c-0.2,0.3-0.3,0.7-0.4,1h25.6
					C-193,438.3-193.2,438-193.3,437.6z"/>
				<path class="st0" d="M-187.7,438c-0.3-0.1-0.7-0.2-1.1-0.2c-1.4,0-2.8,1-3.7,2.5c0-0.2-0.1-0.4-0.1-0.6c0-0.1,0-0.1,0-0.1h-26.2
					v0.1c-0.1,0.7-0.2,1.3-0.2,2c0,6.3,6,11.4,13.3,11.4c5.9,0,10.9-3.3,12.7-7.9c0.3,0.8,0.9,1.3,1.6,1.7c0.3,0.1,0.7,0.2,1.1,0.2
					c1.6,0,3.3-1.3,4.1-3.3C-185.2,441.5-185.9,438.8-187.7,438z M-187.2,443.5c-0.8,1.9-2.6,3.1-3.9,2.5s-1.7-2.6-0.9-4.6
					c0.7-1.6,2-2.7,3.2-2.7c0.2,0,0.5,0,0.7,0.1C-186.8,439.5-186.4,441.6-187.2,443.5z"/>
			</g>
			<rect x="-221" y="453.3" class="st0" width="31" height="0.6"/>
		</g>
		<g>
			<rect x="-240.4" y="409" class="st0" width="27.6" height="3"/>
		</g>
		<g>
			<rect x="-240.4" y="432.1" class="st0" width="20.5" height="3"/>
		</g>
		<g>
			<rect x="-240.4" y="424.5" class="st0" width="20.5" height="3"/>
		</g>
		<g>
			<rect x="-240.4" y="416.8" class="st0" width="20.5" height="3"/>
		</g>
	</g>
</g>
</svg>
