<?xml version="1.0" encoding="utf-8"?>
<!-- Generator: Adobe Illustrator 19.0.1, SVG Export Plug-In . SVG Version: 6.00 Build 0)  -->
<svg version="1.1" id="Layer_1" xmlns="http://www.w3.org/2000/svg" xmlns:xlink="http://www.w3.org/1999/xlink" x="0px" y="0px"
	 viewBox="-261 183.8 115.4 115.2" style="enable-background:new -261 183.8 115.4 115.2;" xml:space="preserve">
<style type="text/css">
	.st0{fill:#6F3417;}
	.st1{fill:#F1693C;}
	.st2{fill:#FFFFFF;}
</style>
<g>
	<g>
		<ellipse class="st0" cx="-204" cy="239.9" rx="53.3" ry="53.2"/>
		<ellipse class="st1" cx="-203.3" cy="241.4" rx="57.7" ry="57.6"/>
	</g>
	<g>
		<g>
			<rect x="-207.6" y="261.9" class="st2" width="12.5" height="5.3"/>
		</g>
		<g>
			<rect x="-217.9" y="268.2" class="st2" width="33" height="5.1"/>
		</g>
		<g>
			<g>
				<path class="st2" d="M-224.3,233.7l15.2-7.8v2.3l-12.8,6.4v0.1l12.8,6.4v2.3l-15.2-7.8V233.7z"/>
			</g>
			<g>
				<path class="st2" d="M-207,244.6l9.1-23.7h2.2l-9.2,23.7H-207z"/>
			</g>
			<g>
				<path class="st2" d="M-178.5,235.5l-15.2,7.8V241l12.9-6.4v-0.1l-12.9-6.4v-2.3l15.2,7.8V235.5z"/>
			</g>
		</g>
		<g>
			<path class="st2" d="M-176.7,214.2h-49.6c-3.5,0-6.5,2.2-6.5,4.8v32.1h62.7V219C-170.1,216.5-173.1,214.2-176.7,214.2z
				 M-172.1,249.4H-231V219c0-1.6,2.2-3,4.7-3h49.6c2.5,0,4.7,1.4,4.7,3V249.4z"/>
		</g>
		<g>
			<path class="st2" d="M-176.7,212.4h-49.6c-4.6,0-8.3,3-8.3,6.6v38.3c0,3.7,3.7,6.6,8.3,6.6h49.6c4.6,0,8.3-3,8.3-6.6V219
				C-168.4,215.4-172.2,212.4-176.7,212.4z M-228.8,257.2c-0.6,0-1.1-0.5-1.1-1.1c0-0.6,0.5-1.1,1.1-1.1s1.1,0.5,1.1,1.1
				C-227.6,256.7-228.1,257.2-228.8,257.2z M-225,257.2c-0.6,0-1.1-0.5-1.1-1.1c0-0.6,0.5-1.1,1.1-1.1s1.1,0.5,1.1,1.1
				C-223.9,256.7-224.4,257.2-225,257.2z M-170.1,251.3h-62.8v-32.2c0-2.7,2.9-4.8,6.5-4.8h49.6c3.5,0,6.5,2.2,6.5,4.8v32.2H-170.1z
				"/>
		</g>
	</g>
</g>
</svg>
