<?xml version="1.0" encoding="utf-8"?>
<!-- Generator: Adobe Illustrator 19.0.1, SVG Export Plug-In . SVG Version: 6.00 Build 0)  -->
<svg version="1.1" id="Layer_2" xmlns="http://www.w3.org/2000/svg" xmlns:xlink="http://www.w3.org/1999/xlink" x="0px" y="0px"
	 viewBox="-261 183.8 115.4 115.2" style="enable-background:new -261 183.8 115.4 115.2;" xml:space="preserve">
<style type="text/css">
	.st0{fill:#6F3417;}
	.st1{fill:#F1693C;}
	.st2{fill:#FFFFFF;}
</style>
<g>
	<g>
		<path class="st0" d="M-148.5,241c0,30-24.3,54.3-54.4,54.3c-30,0-54.4-24.3-54.4-54.3s24.3-54.3,54.4-54.3
			C-172.7,186.6-148.5,210.9-148.5,241z"/>
		<ellipse class="st1" cx="-203.3" cy="241.4" rx="57.6" ry="57.5"/>
	</g>
	<g>
		<rect x="-239.9" y="203.8" class="st2" width="72.8" height="74.9"/>
		<path class="st1" d="M-242,202.5v39.6h39.6v-39.6H-242z M-214.1,223.6h-4.4c0,7.1,0,15.8,0,15.8h-6.6c0,0,0-8.7,0-15.8h-3.1V218
			h3.1v-3.5c0-2.6,1.2-6.6,6.6-6.6h4.9v5.4c0,0-3,0-3.4,0c-0.6,0-1.4,0.3-1.4,1.5v3.3h5L-214.1,223.6z"/>
		<path class="st1" d="M-203.5,202.5v39.6h39.6v-39.6H-203.5z M-170.7,217.3c0,0.3,0,0.6,0,0.8c0,8.6-6.5,18.4-18.4,18.4
			c-3.6,0-7.1-1.1-10-2.9c0.5,0.1,1,0.1,1.6,0.1c3.1,0,5.9-1,8.1-2.8c-2.8-0.1-5.3-1.9-6.1-4.5c0.4,0.1,0.8,0.1,1.2,0.1
			c0.6,0,1.2-0.1,1.7-0.2c-3-0.6-5.2-3.2-5.2-6.4v-0.1c0.9,0.5,1.9,0.8,2.9,0.8c-1.7-1.2-2.9-3.2-2.9-5.4c0-1.2,0.3-2.3,0.9-3.3
			c3.2,3.8,8,6.5,13.4,6.8c-0.1-0.5-0.2-1-0.2-1.5c0-3.5,2.9-6.5,6.5-6.5c1.9,0,3.5,0.8,4.7,2.1c1.5-0.3,2.9-0.8,4.1-1.6
			c-0.5,1.5-1.5,2.8-2.9,3.5c1.3-0.2,2.6-0.5,3.6-1C-168.3,215.3-169.5,216.5-170.7,217.3z"/>
		<g>
			<path class="st1" d="M-170,269.6L-170,269.6L-170,269.6L-170,269.6z"/>
			<path class="st1" d="M-203.5,240.2v39.6h39.6v-39.6L-203.5,240.2L-203.5,240.2z M-189.1,269.5h-4.3v-12.8h4.3V269.5z M-191.3,255
				L-191.3,255c-1.5,0-2.4-1-2.4-2.2c0-1.3,1-2.2,2.4-2.2c1.5,0,2.4,1,2.4,2.2C-188.8,254-189.8,255-191.3,255z M-173.8,269.5h-4.2
				v-6.8c0-1.7-0.6-2.9-2.2-2.9c-1.2,0-1.9,0.8-2.2,1.6c-0.1,0.3-0.1,0.7-0.1,1v7.1h-4.3c0,0,0.1-11.5,0-12.8h4.3v1.8
				c0.6-0.9,1.6-2.1,3.7-2.1c2.8,0,4.9,1.8,4.9,5.8v7.3H-173.8z"/>
		</g>
		<g>
			<path class="st1" d="M-225.3,266.2c-3.7,0-6.9,2.4-6.9,5.2c0,2.9,2.7,5.2,6.5,5.2c5.3,0,7.1-2.2,7.1-5.1c0-0.3,0-0.7-0.1-1
				c-0.4-1.6-2.1-2.5-4.1-3.8C-223.6,266.3-224.4,266.2-225.3,266.2z"/>
			<path class="st1" d="M-242,240.2v39.6h39.6v-39.6L-242,240.2L-242,240.2z M-217.5,254c0,2.1-1.1,3.6-2.8,5
				c-1.6,1.2-1.9,1.8-1.9,2.8c0,0.9,1.9,2.2,2.8,2.9c3,2.3,3.5,3.6,3.5,6.5c0,3.4-3.7,7-10,7c-5.4,0-10-2.2-10-5.7
				c0-3.5,3.7-7.3,9.2-7.3c0.6,0,1.1,0,1.7,0c-0.7-0.7-1.3-1.3-1.3-2.4c0-0.6,0.2-1.3,0.5-1.8c-0.3,0-0.6,0-0.9,0
				c-4.5,0-7.1-3.1-7.1-7.1c0-3.7,4-7.3,8.7-7.3c2.4,0,9.3,0,9.3,0l-2.1,2.2h-2.5C-218.4,249.7-217.5,251.7-217.5,254z M-204,253.4
				h-4.3v4.3h-2.2v-4.3h-4.3v-2.2h4.3v-4.3h2.2v4.3h4.3V253.4z"/>
			<path class="st1" d="M-226.3,248c-2.5-0.1-4.2,2.5-3.7,5.8c0.4,3.3,2.8,5.6,5.3,5.7s4-2.1,3.4-5.4
				C-221.5,250.8-223.8,248.1-226.3,248z"/>
		</g>
	</g>
</g>
</svg>
