<?xml version="1.0" encoding="utf-8"?>
<!-- Generator: Adobe Illustrator 19.0.1, SVG Export Plug-In . SVG Version: 6.00 Build 0)  -->
<svg version="1.1" id="Layer_1" xmlns="http://www.w3.org/2000/svg" xmlns:xlink="http://www.w3.org/1999/xlink" x="0px" y="0px"
	 viewBox="-219 141 417.5 113.5" style="enable-background:new -219 141 417.5 113.5;" xml:space="preserve">
<style type="text/css">
	.st0{fill:#F1693C;}
	.st1{fill:#47A768;}
	.st2{fill:#46A667;}
	.st3{fill:#A3C73A;}
	.st4{fill:#676666;}
	.st5{fill:#8B8A8A;}
</style>
<g>
	<g>
		<path class="st0" d="M-80.9,199.3l-10.5-14.9h-4.3V180h14.6v4.4h-4.5l7.8,10.9l7.1-10.9h-4.4V180H-61v4.4h-4.7l-9.9,14.9v11.7h4.9
			v4.4h-14.9v-4.4h4.7V199.3z"/>
		<path class="st0" d="M-40.9,215.6h-8.6v-3c-3.1,2.5-5.2,3.4-7.9,3.4c-4.7,0-8.3-3.4-8.3-7.8c0-4.5,3.9-8,9-8
			c2.2,0,4.7,0.8,6.7,2.1v-3.2c0-3.5-2.6-4.7-5.5-4.7c-2.3,0-4.2,1-5.3,2.9l-4.6-1.2c2.1-3.8,5.6-5.7,10.6-5.7
			c7.2,0,9.7,3.6,9.7,7.6v13.5h4.2L-40.9,215.6L-40.9,215.6z M-50.1,206.4c-2.1-1.6-4.3-2.4-6.4-2.4c-2.7,0-4.7,1.8-4.7,4.2
			s1.8,4.1,4.4,4.1c2.2,0,4.6-1.1,6.6-2.9v-3H-50.1z"/>
		<path class="st0" d="M-32.6,184.3H-37V180h9.3v22.1l9.2-7.3v-0.1h-4.1v-4h13.7v4h-3.8l-9.2,7.7l8.7,8.7H-9v4.3h-6.3l-12.4-12.4
			v8.1h3.7v4.3h-13v-4.3h4.5v-26.8H-32.6z"/>
		<path class="st0" d="M-0.6,184.3H-5V180h9.3v22.1l9.2-7.3v-0.1H9.4v-4h13.7v4h-3.8l-9.2,7.7l8.7,8.7H23v4.3h-6.3L4.3,203.1v8.1H8
			v4.3H-5v-4.3h4.5v-26.8H-0.6z"/>
		<path class="st0" d="M31.4,204.4c0.7,4.8,3.9,7.6,8.4,7.6c3.2,0,6.2-1.4,8-4l4.3,1.9c-2.7,4.1-7.1,6.4-12.4,6.4
			c-8,0-13.7-5.4-13.7-13c0-8,6.5-13,12.9-13c6.8,0,13.1,5.2,13.1,14.2L31.4,204.4L31.4,204.4z M47.2,200.9
			c-0.8-3.9-4.2-6.8-8.1-6.8c-3.9,0-6.8,2.7-7.5,6.8H47.2z"/>
		<path class="st0" d="M54.6,190.8h3.2V187l4.9-4.4v8.2h4.5v4.3h-4.5v14.2c0,2.4,2.1,2.3,4.5,1.5v4.4c-1.1,0.4-2.5,0.7-3.6,0.7
			c-3.4,0-5.8-1.6-5.8-5.8v-14.9h-3.2L54.6,190.8L54.6,190.8z"/>
		<path class="st0" d="M75.4,195.1h-4.1v-4.3h12.2v4.3h-2.9l5.3,13.6l5.2-13.6h-3.3v-4.3h11.9v4.3H96l-12.2,31.4h-8.2v-4.3h4.8
			l3-7.2L75.4,195.1z"/>
	</g>
	<g>
		<path class="st0" d="M122.4,199.3l-10.5-14.9h-4.3V180h14.6v4.4h-4.4l7.8,10.9l7.1-10.9h-4.4V180h14.1v4.4h-4.7l-9.9,14.9v11.7
			h4.8v4.4h-14.9v-4.4h4.8L122.4,199.3L122.4,199.3z"/>
		<path class="st0" d="M163.4,215.6h-8.6v-3c-3.1,2.5-5.2,3.4-7.9,3.4c-4.7,0-8.3-3.4-8.3-7.8c0-4.5,3.9-8,9-8
			c2.2,0,4.8,0.8,6.7,2.1v-3.2c0-3.5-2.6-4.7-5.5-4.7c-2.3,0-4.2,1-5.3,2.9l-4.6-1.2c2.1-3.8,5.6-5.7,10.6-5.7
			c7.2,0,9.6,3.6,9.6,7.6v13.5h4.2L163.4,215.6L163.4,215.6z M154.3,206.4c-2.1-1.6-4.3-2.4-6.4-2.4c-2.7,0-4.7,1.8-4.7,4.2
			s1.8,4.1,4.4,4.1c2.2,0,4.6-1.1,6.6-2.9v-3H154.3z"/>
		<path class="st0" d="M171.8,184.3h-4.4V180h9.3v22.1l9.2-7.3v-0.1h-4.1v-4h13.7v4h-3.8l-9.2,7.7l8.7,8.7h4.2v4.3h-6.3l-12.4-12.4
			v8.1h3.7v4.3h-13v-4.3h4.5v-26.8H171.8z"/>
	</g>
</g>
<g>
	<circle class="st1" cx="-160.8" cy="198.5" r="54"/>
	<path class="st2" d="M-137.4,163.8h-51.2v18.3h51.2V163.8z M-184.9,167.5h10.4v2.2h-10.4V167.5z M-184.9,172.2h25.6v2.2h-25.6
		V172.2z M-168.8,179h-16.1v-2.2h16.1V179z M-141.2,179h-25.6v-2.2h25.6V179z M-141.2,174.4h-16.1v-2.2h16.1V174.4z"/>
	<g>
		<path class="st2" d="M-196.9,189.9h2.8c1.1-1.5,2.5-2.7,4.2-3.4c0.3-0.1,0.6-0.3,0.8-0.4l0,0c0.6-0.2,1.2-0.4,1.9-0.5
			c0.6-0.1,1.2-0.2,1.8-0.2h44.6c0.6,0,1.2,0.1,1.8,0.2c0.6,0.1,1.3,0.3,1.9,0.5l0,0l0.8,0.3v0.1c1.7,0.8,3.1,2,4.2,3.4h3.6v-6.4
			h-68.6v6.4H-196.9z"/>
		<circle class="st2" cx="-199.2" cy="194.2" r="0.9"/>
		<polygon class="st2" points="-201.2,189.9 -201.2,189.9 -201.2,195 -200.3,195 -200.3,189.9 -198.3,189.9 -198.3,183.5 
			-201.2,183.5 		"/>
		<rect x="-127.6" y="183.5" class="st2" width="2.9" height="6.4"/>
	</g>
	<path class="st3" d="M-163,142c-29.8,0-54,24.2-54,54c0,29.8,24.2,54,54,54s54-24.2,54-54C-109,166.2-133.2,142-163,142z
		 M-201.2,221.8c2.2,1.7,5.6,2.7,9.5,2.7h57.4c3.8,0,7.2-1.1,9.5-2.7c-0.7,3.6-5.5,6.4-11.3,6.4h-53.7
		C-195.7,228.2-200.5,225.4-201.2,221.8z M-124.7,183.5v6.4h-2.9v-6.4H-124.7z M-137.4,182.1h-51.2v-18.3h51.2V182.1z M-128.3,183.5
		v6.4h-3.6c-1.1-1.5-2.5-2.7-4.2-3.4c-0.3-0.1-0.6-0.3-0.8-0.4l0,0c-0.6-0.2-1.2-0.4-1.9-0.5c-0.6-0.1-1.2-0.2-1.8-0.2h-44.6
		c-0.6,0-1.2,0.1-1.8,0.2c-0.6,0.1-1.3,0.3-1.9,0.5l0,0c-0.3,0.1-0.6,0.3-0.8,0.4c-1.7,0.8-3.1,2-4.2,3.4h-2.8v-6.4H-128.3z
		 M-200.3,189.9v5.1h-0.9v-5.1l0,0v-6.4h3v6.4C-198.2,189.9-200.3,189.9-200.3,189.9z M-198.3,194.2c0,0.5-0.4,0.9-0.9,0.9
		s-0.9-0.4-0.9-0.9s0.4-0.9,0.9-0.9C-198.7,193.3-198.3,193.7-198.3,194.2z M-201.3,211.3c0-2.9,2.7-5.4,6.5-6.6v-4.2v-4.3
		c0-4.1,2.6-7.5,6.2-8.9c1-0.4,2.1-0.6,3.3-0.6h44.6c1.2,0,2.3,0.2,3.3,0.6c3.6,1.3,6.2,4.8,6.2,8.9v4.3v4.2
		c3.8,1.2,6.5,3.7,6.5,6.6v8.2c0,0.3,0,0.6-0.1,0.9c-2.2,1.7-5.6,2.7-9.5,2.7h-57.4c-3.8,0-7.2-1.1-9.5-2.7
		c-0.1-0.3-0.1-0.6-0.1-0.9V211.3z"/>
	<path class="st4" d="M-137,186.1L-137,186.1L-137,186.1c0.3,0.1,0.6,0.3,0.9,0.4v-0.1L-137,186.1z"/>
	<g>
		<path class="st2" d="M-191.7,224.5c-3.8,0-7.2-1.1-9.5-2.7c0.7,3.6,5.5,6.4,11.3,6.4h53.7c5.8,0,10.6-2.8,11.3-6.4
			c-2.2,1.7-5.6,2.7-9.5,2.7H-191.7z"/>
		<path class="st2" d="M-131.2,204.7v-4.2v-4.3c0-4.1-2.6-7.5-6.2-8.9v0.1c0,1.7-1.4,3.3-3.9,4.7l0.1,0.1v0.3c0,1.8,0.1,3.6,0,5.3
			c-0.1,1.8-0.2,3.6-0.5,5.3c-0.3-1.8-0.4-3.6-0.5-5.3c-0.1-1.7-0.1-3.4,0-5.1c0,0,0,0-0.1-0.1c-1.2,0.6-2.7,1.1-4.3,1.6v0.1
			c0.1,1.5,0.1,3,0,4.4c-0.1,1.5-0.2,3-0.5,4.4c-0.3-1.5-0.4-3-0.5-4.4s-0.1-2.8,0-4.2c-1.4,0.3-2.8,0.6-4.4,0.9v0.1
			c0.1,1.3,0.1,2.6,0,3.8c-0.1,1.3-0.2,2.6-0.5,3.8c-0.3-1.3-0.5-2.6-0.5-3.8c-0.1-1.3-0.1-2.5,0-3.8l0,0c-1.4,0.2-2.9,0.4-4.4,0.5
			c0,0.6,0.1,1.2,0.1,1.8s0,1.2,0,1.8c-0.1,1.2-0.2,2.4-0.5,3.6c-0.3-1.2-0.5-2.4-0.5-3.6c0-0.6,0-1.2,0-1.8s0-1.1,0.1-1.7
			c-1.4,0.1-2.9,0.1-4.3,0.1c0,1.7-0.1,3.4-0.2,4.7c-0.1,1.4-0.3,2.3-0.3,2.3s-0.2-0.9-0.3-2.3c-0.1-1.3-0.2-3-0.2-4.7
			c-1.4,0-2.8-0.1-4.1-0.2c0,0.6,0.1,1.1,0.1,1.7s0,1.2,0,1.8c-0.1,1.2-0.2,2.4-0.5,3.7c-0.3-1.2-0.5-2.4-0.5-3.7c0-0.6,0-1.2,0-1.8
			s0-1.2,0.1-1.7c-1.4-0.1-2.8-0.3-4.2-0.5c0.1,1.3,0.1,2.5,0,3.8c-0.1,1.3-0.2,2.6-0.5,3.9c-0.3-1.3-0.5-2.6-0.5-3.9
			c-0.1-1.3-0.1-2.6,0-3.9v-0.1c-1.5-0.2-2.9-0.5-4.2-0.9c0.1,1.4,0.1,2.9,0,4.3c-0.1,1.5-0.2,2.9-0.5,4.4c-0.3-1.5-0.5-2.9-0.5-4.4
			c-0.1-1.5-0.1-2.9,0-4.4v-0.2c-1.5-0.4-2.9-0.9-4.1-1.5l0,0c0,1.7,0,3.4,0,5.1c-0.1,1.8-0.2,3.6-0.5,5.3c-0.3-1.8-0.4-3.6-0.5-5.3
			c-0.1-1.8-0.1-3.6,0-5.3v-0.3h0.1c-2.5-1.3-3.9-2.9-3.9-4.6v-0.1c-3.6,1.3-6.2,4.8-6.2,8.9v4.3v4.2c-3.8,1.2-6.5,3.7-6.5,6.6v8.2
			c0,0.3,0,0.6,0.1,0.9c2.2,1.7,5.6,2.7,9.5,2.7h57.4c3.8,0,7.2-1.1,9.5-2.7c0.1-0.3,0.1-0.6,0.1-0.9v-8.2
			C-124.8,208.4-127.4,205.9-131.2,204.7z M-153.7,210v-2.3h15.1v2.5l0,0l0,0v0.1l0,0c-0.1,0.9-0.7,1.6-1.5,1.6h-12.2
			c-0.8,0-1.5-0.8-1.5-1.7C-153.7,210.1-153.7,210-153.7,210z M-170.7,210v-2.4h15.1v2.5l0,0l0,0v0.1l0,0c-0.1,0.9-0.7,1.6-1.5,1.6
			h-12.2c-0.8,0-1.5-0.8-1.5-1.7C-170.7,210.1-170.7,210-170.7,210z M-187.7,210v-2.3h15.1v2.5l0,0l0,0v0.1l0,0
			c-0.1,0.9-0.7,1.6-1.5,1.6h-12.2c-0.8,0-1.5-0.8-1.5-1.7C-187.7,210.1-187.7,210-187.7,210z M-181,216.6v0.1l0,0
			c-0.1,0.9-0.7,1.6-1.5,1.6h-12.2c-0.8,0-1.5-0.8-1.5-1.7c0-0.1,0-0.1,0-0.2V214h15.1v2.6C-181,216.6-181,216.6-181,216.6
			L-181,216.6z M-164,216.6v0.1l0,0c-0.1,0.9-0.7,1.6-1.5,1.6h-12.2c-0.8,0-1.5-0.8-1.5-1.7c0-0.1,0-0.1,0-0.2v-2.3h15.1v2.5
			C-164,216.6-164,216.6-164,216.6L-164,216.6z M-147.1,216.6v0.1l0,0c-0.1,0.9-0.7,1.6-1.5,1.6h-12.2c-0.8,0-1.5-0.8-1.5-1.7
			c0-0.1,0-0.1,0-0.2v-2.3h15.1v2.5C-147.1,216.6-147.1,216.6-147.1,216.6L-147.1,216.6z M-130.1,216.6v0.1l0,0
			c-0.1,0.9-0.7,1.6-1.5,1.6h-12.2c-0.8,0-1.5-0.8-1.5-1.7c0-0.1,0-0.1,0-0.2v-2.3h15.1v2.5C-130.1,216.6-130.1,216.6-130.1,216.6
			L-130.1,216.6z"/>
		<path class="st3" d="M-184.7,192.1l0.1-0.1c1.6-1.2,3.2-2.4,5-3.5c-1.3,1.5-2.7,2.8-4.1,4.1c1.2,0.5,2.5,1,4.1,1.5l0,0l0.1-0.1
			c0.6-0.9,1.3-1.9,1.9-2.8c0.7-0.9,1.3-1.8,2.1-2.7c-0.4,1-0.9,2.1-1.5,3.1c-0.5,1-1,1.9-1.5,2.8c1.3,0.3,2.7,0.6,4.2,0.9v-0.1l0,0
			c0.9-2.3,1.8-4.5,2.8-6.7c-0.5,2.3-1.1,4.6-1.8,6.9l0,0c1.3,0.2,2.7,0.4,4.2,0.5v-0.1v-0.1c0.5-2.4,1-4.9,1.7-7.3
			c-0.1,2.5-0.4,4.9-0.7,7.4v0.1c1.3,0.1,2.7,0.1,4.1,0.2c0-0.1,0-0.2,0-0.4c0-1.8,0.1-3.7,0.2-5.1s0.3-2.3,0.3-2.3s0.2,0.9,0.3,2.3
			c0.1,1.4,0.2,3.2,0.2,5.1c0,0.1,0,0.2,0,0.4c1.5,0,2.9,0,4.3-0.1c0,0,0,0,0-0.1c-0.3-2.5-0.6-5-0.7-7.5c0.7,2.4,1.2,4.9,1.7,7.4
			v0.1l0,0c1.5-0.1,3-0.3,4.4-0.5c-0.7-2.3-1.3-4.6-1.8-7c1.1,2.2,2,4.5,2.8,6.8l0,0l0,0c1.6-0.2,3-0.6,4.4-0.9c0,0,0,0,0-0.1
			c-0.5-0.9-1-1.9-1.5-2.8c-0.5-1-1-2-1.4-3.1c0.7,0.9,1.4,1.8,2,2.7c0.7,0.9,1.3,1.8,1.9,2.8l0.1,0.1v0.1c1.6-0.5,3.1-1,4.3-1.6
			c-1.4-1.3-2.8-2.6-4-4.1c1.8,1,3.4,2.2,5,3.5l0.1,0.1c2.5-1.3,3.9-2.9,3.9-4.7v-0.1c-1-0.4-2.1-0.6-3.3-0.6h-44.6
			c-1.2,0-2.3,0.2-3.3,0.6v0.1C-188.6,189.2-187.2,190.8-184.7,192.1z"/>
	</g>
	<path class="st5" d="M-179.6,188.5c-1.8,1-3.4,2.2-5,3.5l-0.1,0.1h-0.1v0.3c0,1.8-0.1,3.6,0,5.3c0.1,1.8,0.2,3.6,0.5,5.3
		c0.3-1.8,0.4-3.6,0.5-5.3c0.1-1.7,0.1-3.4,0-5.1l0,0C-182.2,191.4-180.9,190-179.6,188.5z"/>
	<path class="st5" d="M-175.6,188.5c-0.7,0.9-1.4,1.8-2.1,2.7c-0.7,0.9-1.3,1.8-1.9,2.8l-0.1,0.1l0,0v0.2c-0.1,1.5-0.1,2.9,0,4.4
		s0.2,2.9,0.5,4.4c0.3-1.5,0.4-2.9,0.5-4.4c0.1-1.4,0.1-2.9,0-4.3c0.5-0.9,1-1.9,1.5-2.8C-176.5,190.6-176,189.6-175.6,188.5z"/>
	<path class="st5" d="M-171.6,188.5c-1.1,2.2-2,4.4-2.8,6.7l0,0v0.1v0.1c-0.1,1.3-0.1,2.6,0,3.9s0.2,2.6,0.5,3.9
		c0.3-1.3,0.5-2.6,0.5-3.9c0.1-1.3,0.1-2.5,0-3.8l0,0C-172.7,193.1-172,190.9-171.6,188.5z"/>
	<path class="st5" d="M-167.5,188.5c-0.7,2.4-1.2,4.9-1.7,7.3v0.1v0.1c0,0.6-0.1,1.2-0.1,1.7c0,0.6,0,1.2,0,1.8
		c0.1,1.2,0.2,2.4,0.5,3.7c0.3-1.2,0.5-2.4,0.5-3.7c0-0.6,0-1.2,0-1.8s0-1.1-0.1-1.7v-0.1C-167.9,193.4-167.6,191-167.5,188.5z"/>
	<path class="st5" d="M-163.2,190.8c-0.1-1.4-0.3-2.3-0.3-2.3s-0.2,0.9-0.3,2.3c-0.1,1.4-0.2,3.2-0.2,5.1c0,0.1,0,0.2,0,0.4
		c0,1.7,0.1,3.4,0.2,4.7c0.1,1.4,0.3,2.3,0.3,2.3s0.2-0.9,0.3-2.3c0.1-1.3,0.2-3,0.2-4.7c0-0.1,0-0.2,0-0.4
		C-162.9,194-163,192.2-163.2,190.8z"/>
	<path class="st5" d="M-157.6,195.9c-0.5-2.5-1-5-1.7-7.4c0.1,2.5,0.4,5,0.7,7.5c0,0,0,0,0,0.1c0,0.6-0.1,1.1-0.1,1.7s0,1.2,0,1.8
		c0.1,1.2,0.2,2.4,0.5,3.6c0.3-1.2,0.5-2.4,0.5-3.6c0-0.6,0-1.2,0-1.8s0-1.2-0.1-1.8C-157.6,196-157.6,196-157.6,195.9L-157.6,195.9
		z"/>
	<path class="st5" d="M-152.2,195.3c-0.9-2.3-1.8-4.6-2.8-6.8c0.5,2.4,1.1,4.7,1.8,7l0,0c-0.1,1.3-0.1,2.5,0,3.8
		c0.1,1.3,0.2,2.6,0.5,3.8c0.3-1.3,0.5-2.6,0.5-3.8c0.1-1.3,0.1-2.6,0-3.8V195.3L-152.2,195.3L-152.2,195.3z"/>
	<path class="st5" d="M-146.8,194c-0.6-0.9-1.2-1.9-1.9-2.8c-0.6-0.9-1.3-1.8-2-2.7c0.4,1,0.9,2.1,1.4,3.1c0.5,0.9,1,1.9,1.5,2.8
		c0,0,0,0,0,0.1c-0.1,1.4-0.1,2.8,0,4.2c0.1,1.5,0.2,3,0.5,4.4c0.3-1.5,0.4-3,0.5-4.4c0.1-1.5,0.1-3,0-4.4v-0.1v-0.1V194z"/>
	<path class="st5" d="M-146.4,188.6c1.3,1.5,2.6,2.8,4,4.1c0,0,0,0,0.1,0.1c0,1.7,0,3.4,0,5.1c0.1,1.8,0.2,3.6,0.5,5.3
		c0.3-1.8,0.4-3.6,0.5-5.3c0.1-1.8,0.1-3.6,0-5.3v-0.3l-0.1-0.1l-0.1-0.1C-143,190.8-144.7,189.6-146.4,188.6z"/>
	<path class="st3" d="M-130.1,216.7v-0.1V216.7L-130.1,216.7z"/>
	<path class="st3" d="M-130.1,216.6L-130.1,216.6L-130.1,216.6z"/>
	<g>
		<path class="st3" d="M-186.2,211.9h12.2c0.8,0,1.4-0.7,1.5-1.6l0,0v-0.1l0,0l0,0v-2.5h-15.1v2.3c0,0.1,0,0.1,0,0.2
			C-187.7,211.1-187,211.9-186.2,211.9z"/>
		<path class="st3" d="M-169.2,211.9h12.2c0.8,0,1.4-0.7,1.5-1.6l0,0v-0.1l0,0l0,0v-2.5h-15.1v2.4c0,0.1,0,0.1,0,0.2
			C-170.7,211.1-170,211.9-169.2,211.9z"/>
		<path class="st3" d="M-152.2,211.9h12.2c0.8,0,1.4-0.7,1.5-1.6l0,0v-0.1l0,0l0,0v-2.5h-15.1v2.3c0,0.1,0,0.1,0,0.2
			C-153.7,211.1-153,211.9-152.2,211.9z"/>
		<path class="st3" d="M-181,214h-15.1v2.4c0,0.1,0,0.1,0,0.2c0,1,0.7,1.7,1.5,1.7h12.2c0.8,0,1.4-0.7,1.5-1.6l0,0v-0.1l0,0l0,0V214
			H-181z"/>
		<path class="st3" d="M-164,214h-15.1v2.3c0,0.1,0,0.1,0,0.2c0,1,0.7,1.7,1.5,1.7h12.2c0.8,0,1.4-0.7,1.5-1.6l0,0v-0.1l0,0l0,0V214
			H-164z"/>
		<path class="st3" d="M-147.1,214h-15.1v2.3c0,0.1,0,0.1,0,0.2c0,1,0.7,1.7,1.5,1.7h12.1c0.8,0,1.4-0.7,1.5-1.6l0,0v-0.1l0,0l0,0
			V214z"/>
		<path class="st3" d="M-130.1,214h-15.1v2.3c0,0.1,0,0.1,0,0.2c0,1,0.7,1.7,1.5,1.7h12.1c0.8,0,1.4-0.7,1.5-1.6v-0.1l0,0V214z"/>
	</g>
	<g>
		<rect x="-184.9" y="167.5" class="st3" width="10.4" height="2.2"/>
		<rect x="-184.9" y="172.2" class="st3" width="25.6" height="2.2"/>
		<rect x="-157.3" y="172.2" class="st3" width="16.1" height="2.2"/>
		<rect x="-166.8" y="176.8" class="st3" width="25.6" height="2.2"/>
		<rect x="-184.9" y="176.8" class="st3" width="16.1" height="2.2"/>
	</g>
</g>
</svg>
