<?xml version="1.0" encoding="utf-8"?>
<!-- Generator: Adobe Illustrator 19.0.1, SVG Export Plug-In . SVG Version: 6.00 Build 0)  -->
<svg version="1.1" id="Layer_1" xmlns="http://www.w3.org/2000/svg" xmlns:xlink="http://www.w3.org/1999/xlink" x="0px" y="0px"
	 viewBox="-215.3 144.7 192.7 192.7" style="enable-background:new -215.3 144.7 192.7 192.7;" xml:space="preserve">
<style type="text/css">
	.st0{fill:#F1693C;}
	.st1{fill:#47A768;}
	.st2{fill:#46A667;}
	.st3{fill:#A3C73A;}
	.st4{fill:#676666;}
	.st5{fill:#8B8A8A;}
</style>
<g>
	<g>
		<path class="st0" d="M173.7,268.6l-10.5-14.9h-4.3v-4.4h14.6v4.4H169l7.8,10.9l7.1-10.9h-4.4v-4.4h14.1v4.4h-4.7l-9.9,14.9v11.7
			h4.9v4.4H169v-4.4h4.7V268.6z"/>
		<path class="st0" d="M213.7,284.8h-8.6v-3c-3.1,2.5-5.2,3.4-7.9,3.4c-4.7,0-8.3-3.4-8.3-7.8c0-4.5,3.9-8,9-8
			c2.2,0,4.7,0.8,6.7,2.1v-3.2c0-3.5-2.6-4.7-5.5-4.7c-2.3,0-4.2,1-5.3,2.9l-4.6-1.2c2.1-3.8,5.6-5.7,10.6-5.7
			c7.2,0,9.7,3.6,9.7,7.6v13.5h4.2L213.7,284.8L213.7,284.8z M204.5,275.6c-2.1-1.6-4.3-2.4-6.4-2.4c-2.7,0-4.7,1.8-4.7,4.2
			s1.8,4.1,4.4,4.1c2.2,0,4.6-1.1,6.6-2.9v-3H204.5z"/>
		<path class="st0" d="M222,253.6h-4.4v-4.3h9.3v22.1l9.2-7.3V264H232v-4h13.7v4h-3.8l-9.2,7.7l8.7,8.7h4.2v4.3h-6.3l-12.4-12.4v8.1
			h3.7v4.3h-13v-4.3h4.5v-26.8H222z"/>
		<path class="st0" d="M254,253.6h-4.4v-4.3h9.3v22.1l9.2-7.3V264H264v-4h13.7v4h-3.8l-9.2,7.7l8.7,8.7h4.2v4.3h-6.3l-12.4-12.4v8.1
			h3.7v4.3h-13v-4.3h4.5v-26.8H254z"/>
		<path class="st0" d="M286,273.7c0.7,4.8,3.9,7.6,8.4,7.6c3.2,0,6.2-1.4,8-4l4.3,1.9c-2.7,4.1-7.1,6.4-12.4,6.4
			c-8,0-13.7-5.4-13.7-13c0-8,6.5-13,12.9-13c6.8,0,13.1,5.2,13.1,14.2L286,273.7L286,273.7z M301.8,270.1c-0.8-3.9-4.2-6.8-8.1-6.8
			c-3.9,0-6.8,2.7-7.5,6.8H301.8z"/>
		<path class="st0" d="M309.2,260.1h3.2v-3.8l4.9-4.4v8.2h4.5v4.3h-4.5v14.2c0,2.4,2.1,2.3,4.5,1.5v4.4c-1.1,0.4-2.5,0.7-3.6,0.7
			c-3.4,0-5.8-1.6-5.8-5.8v-14.9h-3.2L309.2,260.1L309.2,260.1z"/>
		<path class="st0" d="M330,264.4h-4.1v-4.3h12.2v4.3h-2.9l5.3,13.6l5.2-13.6h-3.3v-4.3h11.9v4.3h-3.7l-12.2,31.4h-8.2v-4.3h4.8
			l3-7.2L330,264.4z"/>
	</g>
	<g>
		<path class="st0" d="M377,268.6l-10.5-14.9h-4.3v-4.4h14.6v4.4h-4.4l7.8,10.9l7.1-10.9h-4.4v-4.4H397v4.4h-4.7l-9.9,14.9v11.7h4.8
			v4.4h-14.9v-4.4h4.8L377,268.6L377,268.6z"/>
		<path class="st0" d="M418,284.8h-8.6v-3c-3.1,2.5-5.2,3.4-7.9,3.4c-4.7,0-8.3-3.4-8.3-7.8c0-4.5,3.9-8,9-8c2.2,0,4.8,0.8,6.7,2.1
			v-3.2c0-3.5-2.6-4.7-5.5-4.7c-2.3,0-4.2,1-5.3,2.9l-4.6-1.2c2.1-3.8,5.6-5.7,10.6-5.7c7.2,0,9.6,3.6,9.6,7.6v13.5h4.2L418,284.8
			L418,284.8z M408.9,275.6c-2.1-1.6-4.3-2.4-6.4-2.4c-2.7,0-4.7,1.8-4.7,4.2s1.8,4.1,4.4,4.1c2.2,0,4.6-1.1,6.6-2.9v-3H408.9z"/>
		<path class="st0" d="M426.4,253.6H422v-4.3h9.3v22.1l9.2-7.3V264h-4.1v-4h13.7v4h-3.8l-9.2,7.7l8.7,8.7h4.2v4.3h-6.3l-12.4-12.4
			v8.1h3.7v4.3h-13v-4.3h4.5v-26.8H426.4z"/>
	</g>
</g>
<g>
	<circle class="st1" cx="93.8" cy="275.1" r="54"/>
	<path class="st2" d="M117.2,240.4H66v18.3h51.2V240.4z M69.7,244.1h10.4v2.2H69.7V244.1z M69.7,248.8h25.6v2.2H69.7V248.8z
		 M85.8,255.6H69.7v-2.2h16.1V255.6z M113.4,255.6H87.8v-2.2h25.6V255.6z M113.4,251H97.3v-2.2h16.1V251z"/>
	<g>
		<path class="st2" d="M57.7,266.5h2.8c1.1-1.5,2.5-2.7,4.2-3.4c0.3-0.1,0.6-0.3,0.8-0.4l0,0c0.6-0.2,1.2-0.4,1.9-0.5
			c0.6-0.1,1.2-0.2,1.8-0.2h44.6c0.6,0,1.2,0.1,1.8,0.2c0.6,0.1,1.3,0.3,1.9,0.5l0,0l0.8,0.3v0.1c1.7,0.8,3.1,2,4.2,3.4h3.6v-6.4
			H57.5v6.4H57.7z"/>
		<circle class="st2" cx="55.4" cy="270.8" r="0.9"/>
		<polygon class="st2" points="53.4,266.5 53.4,266.5 53.4,271.6 54.3,271.6 54.3,266.5 56.3,266.5 56.3,260.1 53.4,260.1 		"/>
		<rect x="127" y="260.1" class="st2" width="2.9" height="6.4"/>
	</g>
	<path class="st3" d="M91.6,218.6c-29.8,0-54,24.2-54,54s24.2,54,54,54s54-24.2,54-54S121.4,218.6,91.6,218.6z M53.4,298.4
		c2.2,1.7,5.6,2.7,9.5,2.7h57.4c3.8,0,7.2-1.1,9.5-2.7c-0.7,3.6-5.5,6.4-11.3,6.4H64.8C58.9,304.8,54.1,302,53.4,298.4z
		 M129.9,260.1v6.4H127v-6.4H129.9z M117.2,258.7H66v-18.3h51.2V258.7z M126.3,260.1v6.4h-3.6c-1.1-1.5-2.5-2.7-4.2-3.4
		c-0.3-0.1-0.6-0.3-0.8-0.4l0,0c-0.6-0.2-1.2-0.4-1.9-0.5c-0.6-0.1-1.2-0.2-1.8-0.2H69.4c-0.6,0-1.2,0.1-1.8,0.2
		c-0.6,0.1-1.3,0.3-1.9,0.5l0,0c-0.3,0.1-0.6,0.3-0.8,0.4c-1.7,0.8-3.1,2-4.2,3.4h-2.8v-6.4H126.3z M54.3,266.5v5.1h-0.9v-5.1l0,0
		v-6.4h3v6.4C56.4,266.5,54.3,266.5,54.3,266.5z M56.3,270.8c0,0.5-0.4,0.9-0.9,0.9s-0.9-0.4-0.9-0.9s0.4-0.9,0.9-0.9
		C55.9,269.9,56.3,270.3,56.3,270.8z M53.3,287.9c0-2.9,2.7-5.4,6.5-6.6v-4.2v-4.3c0-4.1,2.6-7.5,6.2-8.9c1-0.4,2.1-0.6,3.3-0.6
		h44.6c1.2,0,2.3,0.2,3.3,0.6c3.6,1.3,6.2,4.8,6.2,8.9v4.3v4.2c3.8,1.2,6.5,3.7,6.5,6.6v8.2c0,0.3,0,0.6-0.1,0.9
		c-2.2,1.7-5.6,2.7-9.5,2.7H62.9c-3.8,0-7.2-1.1-9.5-2.7c-0.1-0.3-0.1-0.6-0.1-0.9V287.9z"/>
	<path class="st4" d="M117.6,262.7L117.6,262.7L117.6,262.7c0.3,0.1,0.6,0.3,0.9,0.4V263L117.6,262.7z"/>
	<g>
		<path class="st2" d="M62.9,301.1c-3.8,0-7.2-1.1-9.5-2.7c0.7,3.6,5.5,6.4,11.3,6.4h53.7c5.8,0,10.6-2.8,11.3-6.4
			c-2.2,1.7-5.6,2.7-9.5,2.7H62.9z"/>
		<path class="st2" d="M123.4,281.3v-4.2v-4.3c0-4.1-2.6-7.5-6.2-8.9v0.1c0,1.7-1.4,3.3-3.9,4.7l0.1,0.1v0.3c0,1.8,0.1,3.6,0,5.3
			c-0.1,1.8-0.2,3.6-0.5,5.3c-0.3-1.8-0.4-3.6-0.5-5.3c-0.1-1.7-0.1-3.4,0-5.1c0,0,0,0-0.1-0.1c-1.2,0.6-2.7,1.1-4.3,1.6v0.1
			c0.1,1.5,0.1,3,0,4.4c-0.1,1.5-0.2,3-0.5,4.4c-0.3-1.5-0.4-3-0.5-4.4s-0.1-2.8,0-4.2c-1.4,0.3-2.8,0.6-4.4,0.9v0.1
			c0.1,1.3,0.1,2.6,0,3.8c-0.1,1.3-0.2,2.6-0.5,3.8c-0.3-1.3-0.5-2.6-0.5-3.8c-0.1-1.3-0.1-2.5,0-3.8l0,0c-1.4,0.2-2.9,0.4-4.4,0.5
			c0,0.6,0.1,1.2,0.1,1.8s0,1.2,0,1.8c-0.1,1.2-0.2,2.4-0.5,3.6c-0.3-1.2-0.5-2.4-0.5-3.6c0-0.6,0-1.2,0-1.8s0-1.1,0.1-1.7
			c-1.4,0.1-2.9,0.1-4.3,0.1c0,1.7-0.1,3.4-0.2,4.7c-0.1,1.4-0.3,2.3-0.3,2.3s-0.2-0.9-0.3-2.3c-0.1-1.3-0.2-3-0.2-4.7
			c-1.4,0-2.8-0.1-4.1-0.2c0,0.6,0.1,1.1,0.1,1.7s0,1.2,0,1.8c-0.1,1.2-0.2,2.4-0.5,3.7c-0.3-1.2-0.5-2.4-0.5-3.7c0-0.6,0-1.2,0-1.8
			s0-1.2,0.1-1.7c-1.4-0.1-2.8-0.3-4.2-0.5c0.1,1.3,0.1,2.5,0,3.8c-0.1,1.3-0.2,2.6-0.5,3.9c-0.3-1.3-0.5-2.6-0.5-3.9
			c-0.1-1.3-0.1-2.6,0-3.9v-0.1c-1.5-0.2-2.9-0.5-4.2-0.9c0.1,1.4,0.1,2.9,0,4.3c-0.1,1.5-0.2,2.9-0.5,4.4c-0.3-1.5-0.5-2.9-0.5-4.4
			c-0.1-1.5-0.1-2.9,0-4.4v-0.2c-1.5-0.4-2.9-0.9-4.1-1.5l0,0c0,1.7,0,3.4,0,5.1c-0.1,1.8-0.2,3.6-0.5,5.3c-0.3-1.8-0.4-3.6-0.5-5.3
			c-0.1-1.8-0.1-3.6,0-5.3v-0.3h0.1c-2.5-1.3-3.9-2.9-3.9-4.6V264c-3.6,1.3-6.2,4.8-6.2,8.9v4.3v4.2c-3.8,1.2-6.5,3.7-6.5,6.6v8.2
			c0,0.3,0,0.6,0.1,0.9c2.2,1.7,5.6,2.7,9.5,2.7h57.4c3.8,0,7.2-1.1,9.5-2.7c0.1-0.3,0.1-0.6,0.1-0.9V288
			C129.8,285,127.2,282.5,123.4,281.3z M100.9,286.6v-2.3H116v2.5l0,0l0,0v0.1l0,0c-0.1,0.9-0.7,1.6-1.5,1.6h-12.2
			c-0.8,0-1.5-0.8-1.5-1.7C100.9,286.7,100.9,286.6,100.9,286.6z M83.9,286.6v-2.4H99v2.5l0,0l0,0v0.1l0,0c-0.1,0.9-0.7,1.6-1.5,1.6
			H85.3c-0.8,0-1.5-0.8-1.5-1.7C83.9,286.7,83.9,286.6,83.9,286.6z M66.9,286.6v-2.3H82v2.5l0,0l0,0v0.1l0,0
			c-0.1,0.9-0.7,1.6-1.5,1.6H68.3c-0.8,0-1.5-0.8-1.5-1.7C66.9,286.7,66.9,286.6,66.9,286.6z M73.6,293.2v0.1l0,0
			c-0.1,0.9-0.7,1.6-1.5,1.6H59.9c-0.8,0-1.5-0.8-1.5-1.7c0-0.1,0-0.1,0-0.2v-2.4h15.1v2.6C73.6,293.2,73.6,293.2,73.6,293.2
			L73.6,293.2z M90.6,293.2v0.1l0,0c-0.1,0.9-0.7,1.6-1.5,1.6H76.9c-0.8,0-1.5-0.8-1.5-1.7c0-0.1,0-0.1,0-0.2v-2.3h15.1v2.5
			C90.6,293.2,90.6,293.2,90.6,293.2L90.6,293.2z M107.5,293.2v0.1l0,0c-0.1,0.9-0.7,1.6-1.5,1.6H93.8c-0.8,0-1.5-0.8-1.5-1.7
			c0-0.1,0-0.1,0-0.2v-2.3h15.1v2.5C107.5,293.2,107.5,293.2,107.5,293.2L107.5,293.2z M124.5,293.2v0.1l0,0
			c-0.1,0.9-0.7,1.6-1.5,1.6h-12.2c-0.8,0-1.5-0.8-1.5-1.7c0-0.1,0-0.1,0-0.2v-2.3h15.1v2.5C124.5,293.2,124.5,293.2,124.5,293.2
			L124.5,293.2z"/>
		<path class="st3" d="M69.9,268.7l0.1-0.1c1.6-1.2,3.2-2.4,5-3.5c-1.3,1.5-2.7,2.8-4.1,4.1c1.2,0.5,2.5,1,4.1,1.5l0,0l0.1-0.1
			c0.6-0.9,1.3-1.9,1.9-2.8c0.7-0.9,1.3-1.8,2.1-2.7c-0.4,1-0.9,2.1-1.5,3.1c-0.5,1-1,1.9-1.5,2.8c1.3,0.3,2.7,0.6,4.2,0.9v-0.1l0,0
			c0.9-2.3,1.8-4.5,2.8-6.7c-0.5,2.3-1.1,4.6-1.8,6.9l0,0c1.3,0.2,2.7,0.4,4.2,0.5v-0.1v-0.1c0.5-2.4,1-4.9,1.7-7.3
			c-0.1,2.5-0.4,4.9-0.7,7.4v0.1c1.3,0.1,2.7,0.1,4.1,0.2c0-0.1,0-0.2,0-0.4c0-1.8,0.1-3.7,0.2-5.1c0.1-1.4,0.3-2.3,0.3-2.3
			s0.2,0.9,0.3,2.3c0.1,1.4,0.2,3.2,0.2,5.1c0,0.1,0,0.2,0,0.4c1.5,0,2.9,0,4.3-0.1c0,0,0,0,0-0.1c-0.3-2.5-0.6-5-0.7-7.5
			c0.7,2.4,1.2,4.9,1.7,7.4v0.1l0,0c1.5-0.1,3-0.3,4.4-0.5c-0.7-2.3-1.3-4.6-1.8-7c1.1,2.2,2,4.5,2.8,6.8l0,0l0,0
			c1.6-0.2,3-0.6,4.4-0.9c0,0,0,0,0-0.1c-0.5-0.9-1-1.9-1.5-2.8c-0.5-1-1-2-1.4-3.1c0.7,0.9,1.4,1.8,2,2.7c0.7,0.9,1.3,1.8,1.9,2.8
			l0.1,0.1v0.1c1.6-0.5,3.1-1,4.3-1.6c-1.4-1.3-2.8-2.6-4-4.1c1.8,1,3.4,2.2,5,3.5l0.1,0.1c2.5-1.3,3.9-2.9,3.9-4.7v-0.1
			c-1-0.4-2.1-0.6-3.3-0.6H69.2c-1.2,0-2.3,0.2-3.3,0.6v0.1C66,265.8,67.4,267.4,69.9,268.7z"/>
	</g>
	<path class="st5" d="M75,265.1c-1.8,1-3.4,2.2-5,3.5l-0.1,0.1h-0.1v0.3c0,1.8-0.1,3.6,0,5.3c0.1,1.8,0.2,3.6,0.5,5.3
		c0.3-1.8,0.4-3.6,0.5-5.3c0.1-1.7,0.1-3.4,0-5.1l0,0C72.4,268,73.7,266.6,75,265.1z"/>
	<path class="st5" d="M79,265.1c-0.7,0.9-1.4,1.8-2.1,2.7c-0.7,0.9-1.3,1.8-1.9,2.8l-0.1,0.1l0,0v0.2c-0.1,1.5-0.1,2.9,0,4.4
		s0.2,2.9,0.5,4.4c0.3-1.5,0.4-2.9,0.5-4.4c0.1-1.4,0.1-2.9,0-4.3c0.5-0.9,1-1.9,1.5-2.8C78.1,267.2,78.6,266.2,79,265.1z"/>
	<path class="st5" d="M83,265.1c-1.1,2.2-2,4.4-2.8,6.7l0,0v0.1v0.1c-0.1,1.3-0.1,2.6,0,3.9s0.2,2.6,0.5,3.9
		c0.3-1.3,0.5-2.6,0.5-3.9c0.1-1.3,0.1-2.5,0-3.8l0,0C81.9,269.7,82.6,267.5,83,265.1z"/>
	<path class="st5" d="M87.1,265.1c-0.7,2.4-1.2,4.9-1.7,7.3v0.1v0.1c0,0.6-0.1,1.2-0.1,1.7c0,0.6,0,1.2,0,1.8
		c0.1,1.2,0.2,2.4,0.5,3.7c0.3-1.2,0.5-2.4,0.5-3.7c0-0.6,0-1.2,0-1.8s0-1.1-0.1-1.7v-0.1C86.7,270,87,267.6,87.1,265.1z"/>
	<path class="st5" d="M91.4,267.4c-0.1-1.4-0.3-2.3-0.3-2.3s-0.2,0.9-0.3,2.3c-0.1,1.4-0.2,3.2-0.2,5.1c0,0.1,0,0.2,0,0.4
		c0,1.7,0.1,3.4,0.2,4.7c0.1,1.4,0.3,2.3,0.3,2.3s0.2-0.9,0.3-2.3c0.1-1.3,0.2-3,0.2-4.7c0-0.1,0-0.2,0-0.4
		C91.7,270.6,91.6,268.8,91.4,267.4z"/>
	<path class="st5" d="M97,272.5c-0.5-2.5-1-5-1.7-7.4c0.1,2.5,0.4,5,0.7,7.5c0,0,0,0,0,0.1c0,0.6-0.1,1.1-0.1,1.7s0,1.2,0,1.8
		c0.1,1.2,0.2,2.4,0.5,3.6c0.3-1.2,0.5-2.4,0.5-3.6c0-0.6,0-1.2,0-1.8s0-1.2-0.1-1.8C97,272.6,97,272.6,97,272.5L97,272.5z"/>
	<path class="st5" d="M102.4,271.9c-0.9-2.3-1.8-4.6-2.8-6.8c0.5,2.4,1.1,4.7,1.8,7l0,0c-0.1,1.3-0.1,2.5,0,3.8
		c0.1,1.3,0.2,2.6,0.5,3.8c0.3-1.3,0.5-2.6,0.5-3.8c0.1-1.3,0.1-2.6,0-3.8V271.9L102.4,271.9L102.4,271.9z"/>
	<path class="st5" d="M107.8,270.6c-0.6-0.9-1.2-1.9-1.9-2.8c-0.6-0.9-1.3-1.8-2-2.7c0.4,1,0.9,2.1,1.4,3.1c0.5,0.9,1,1.9,1.5,2.8
		c0,0,0,0,0,0.1c-0.1,1.4-0.1,2.8,0,4.2c0.1,1.5,0.2,3,0.5,4.4c0.3-1.5,0.4-3,0.5-4.4c0.1-1.5,0.1-3,0-4.4v-0.1v-0.1V270.6z"/>
	<path class="st5" d="M108.2,265.2c1.3,1.5,2.6,2.8,4,4.1c0,0,0,0,0.1,0.1c0,1.7,0,3.4,0,5.1c0.1,1.8,0.2,3.6,0.5,5.3
		c0.3-1.8,0.4-3.6,0.5-5.3c0.1-1.8,0.1-3.6,0-5.3v-0.3l-0.1-0.1l-0.1-0.1C111.6,267.4,109.9,266.2,108.2,265.2z"/>
	<path class="st3" d="M124.5,293.3v-0.1V293.3L124.5,293.3z"/>
	<path class="st3" d="M124.5,293.2L124.5,293.2L124.5,293.2z"/>
	<g>
		<path class="st3" d="M68.4,288.5h12.2c0.8,0,1.4-0.7,1.5-1.6l0,0v-0.1l0,0l0,0v-2.5H67v2.3c0,0.1,0,0.1,0,0.2
			C66.9,287.7,67.6,288.5,68.4,288.5z"/>
		<path class="st3" d="M85.4,288.5h12.2c0.8,0,1.4-0.7,1.5-1.6l0,0v-0.1l0,0l0,0v-2.5H84v2.4c0,0.1,0,0.1,0,0.2
			C83.9,287.7,84.6,288.5,85.4,288.5z"/>
		<path class="st3" d="M102.4,288.5h12.2c0.8,0,1.4-0.7,1.5-1.6l0,0v-0.1l0,0l0,0v-2.5H101v2.3c0,0.1,0,0.1,0,0.2
			C100.9,287.7,101.6,288.5,102.4,288.5z"/>
		<path class="st3" d="M73.6,290.6H58.5v2.4c0,0.1,0,0.1,0,0.2c0,1,0.7,1.7,1.5,1.7h12.2c0.8,0,1.4-0.7,1.5-1.6l0,0v-0.1l0,0l0,0
			v-2.6H73.6z"/>
		<path class="st3" d="M90.6,290.6H75.5v2.3c0,0.1,0,0.1,0,0.2c0,1,0.7,1.7,1.5,1.7h12.2c0.8,0,1.4-0.7,1.5-1.6l0,0v-0.1l0,0l0,0
			v-2.5H90.6z"/>
		<path class="st3" d="M107.5,290.6H92.4v2.3c0,0.1,0,0.1,0,0.2c0,1,0.7,1.7,1.5,1.7H106c0.8,0,1.4-0.7,1.5-1.6l0,0v-0.1l0,0l0,0
			V290.6z"/>
		<path class="st3" d="M124.5,290.6h-15.1v2.3c0,0.1,0,0.1,0,0.2c0,1,0.7,1.7,1.5,1.7H123c0.8,0,1.4-0.7,1.5-1.6v-0.1l0,0V290.6z"/>
	</g>
	<g>
		<rect x="69.7" y="244.1" class="st3" width="10.4" height="2.2"/>
		<rect x="69.7" y="248.8" class="st3" width="25.6" height="2.2"/>
		<rect x="97.3" y="248.8" class="st3" width="16.1" height="2.2"/>
		<rect x="87.8" y="253.4" class="st3" width="25.6" height="2.2"/>
		<rect x="69.7" y="253.4" class="st3" width="16.1" height="2.2"/>
	</g>
</g>
<g>
	<circle class="st1" cx="107.3" cy="45.7" r="95.3"/>
	<path class="st2" d="M148.5-15.5H58.2v32.4h90.3L148.5-15.5L148.5-15.5z M64.6-9H83v3.9H64.6V-9z M64.6-0.7h45.3v3.9H64.6V-0.7z
		 M93,11.3H64.6V7.4H93V11.3z M141.9,11.3H96.7V7.4h45.3V11.3z M141.9,3.2h-28.4v-3.9h28.4V3.2z"/>
	<g>
		<path class="st2" d="M43.4,30.6h5c1.9-2.6,4.4-4.7,7.4-6.1c0.5-0.2,1-0.5,1.5-0.7l0,0c1.1-0.4,2.2-0.7,3.3-0.9
			c1.1-0.2,2.2-0.3,3.3-0.3h78.8c1.1,0,2.2,0.1,3.3,0.3c1.1,0.2,2.2,0.5,3.3,0.9l0,0l1.5,0.6v0.1c3,1.4,5.5,3.5,7.4,6.1h6.4V19.2
			H43.4V30.6z"/>
		<path class="st2" d="M39.4,36.5c-0.9,0-1.6,0.7-1.6,1.6s0.7,1.6,1.6,1.6S41,39,41,38.1C41,37.2,40.3,36.5,39.4,36.5z"/>
		<polygon class="st2" points="35.8,30.6 35.8,30.6 35.8,39.7 37.5,39.7 37.5,30.6 41.1,30.6 41.1,19.2 35.8,19.2 		"/>
		<rect x="165.8" y="19.2" class="st2" width="5.2" height="11.4"/>
	</g>
	<path class="st3" d="M103.3-54C50.7-54,8-11.3,8,41.3s42.7,95.3,95.3,95.3c52.7,0,95.3-42.7,95.3-95.3S156-54,103.3-54z M35.9,86.8
		c3.9,2.9,10,4.8,16.7,4.8h101.4c6.8,0,12.8-1.9,16.7-4.8c-1.2,6.4-9.7,11.4-20,11.4H55.8C45.5,98.2,37.1,93.2,35.9,86.8z
		 M170.9,19.2v11.4h-5.2V19.2H170.9z M148.5,16.8H58.2v-32.3h90.3L148.5,16.8L148.5,16.8z M164.6,19.2v11.4h-6.4
		c-1.9-2.6-4.4-4.7-7.4-6.1c-0.5-0.2-1-0.5-1.5-0.7l0,0c-1.1-0.4-2.2-0.7-3.3-0.9c-1.1-0.2-2.2-0.3-3.3-0.3H63.9
		c-1.1,0-2.2,0.1-3.3,0.3c-1.1,0.2-2.2,0.5-3.3,0.9l0,0c-0.5,0.2-1,0.5-1.5,0.7c-3,1.4-5.5,3.5-7.4,6.1h-5V19.2H164.6z M37.5,30.6
		v9.1h-1.7v-9.1l0,0V19.2h5.3v11.4H37.5z M41,38.1c0,0.9-0.7,1.6-1.6,1.6s-1.6-0.7-1.6-1.6s0.7-1.6,1.6-1.6S41,37.2,41,38.1z
		 M35.7,68.4c0-5.1,4.7-9.5,11.4-11.6v-7.4v-7.7c0-7.2,4.6-13.3,10.9-15.7c1.8-0.7,3.7-1,5.8-1h78.8c2,0,4,0.4,5.8,1
		c6.4,2.4,10.9,8.5,10.9,15.7v7.7v7.4c6.8,2.1,11.4,6.5,11.4,11.6V83c0,0.5-0.1,1-0.2,1.5c-3.9,2.9-10,4.8-16.7,4.8H52.6
		c-6.8,0-12.8-1.9-16.7-4.8c-0.1-0.5-0.2-1-0.2-1.5C35.7,83,35.7,68.4,35.7,68.4z"/>
	<path class="st4" d="M149.3,23.8L149.3,23.8L149.3,23.8c0.5,0.2,1,0.5,1.5,0.7v-0.1L149.3,23.8z"/>
	<g>
		<path class="st2" d="M52.6,91.6c-6.8,0-12.8-1.9-16.7-4.8c1.2,6.4,9.7,11.4,20,11.4h94.9c10.3,0,18.8-5,20-11.4
			c-3.9,2.9-10,4.8-16.7,4.8H52.6z"/>
		<path class="st2" d="M159.4,56.8v-7.4v-7.7c0-7.2-4.6-13.3-10.9-15.7c0,0.1,0,0.2,0,0.2c0,3-2.6,5.8-7,8.2l0.2,0.1V35
			c0.1,3.1,0.1,6.3,0,9.4s-0.4,6.3-0.9,9.4c-0.5-3.1-0.8-6.3-0.9-9.4c-0.1-3-0.1-6-0.1-9l-0.1-0.1c-2.2,1-4.7,1.9-7.6,2.7v0.2
			c0.1,2.6,0.1,5.2,0,7.8c-0.1,2.6-0.4,5.2-0.9,7.8c-0.6-2.6-0.8-5.2-0.9-7.8c-0.1-2.5-0.1-5,0-7.5c-2.4,0.6-5,1.1-7.8,1.6v0.2
			c0.2,2.3,0.2,4.5,0,6.8c-0.1,2.3-0.4,4.5-0.9,6.8c-0.6-2.3-0.8-4.5-0.9-6.8c-0.1-2.2-0.1-4.5,0-6.7l0,0c-2.5,0.4-5.1,0.6-7.8,0.8
			c0.1,1,0.1,2.1,0.1,3.1c0,1.1,0,2.1-0.1,3.2c-0.1,2.1-0.4,4.2-0.9,6.4c-0.6-2.1-0.8-4.2-1-6.4c-0.1-1.1-0.1-2.1-0.1-3.2
			c0-1,0.1-2,0.1-3c-2.5,0.1-5.1,0.2-7.7,0.2c0,3-0.2,6-0.4,8.3c-0.2,2.4-0.6,4.1-0.6,4.1s-0.3-1.6-0.6-4.1
			c-0.2-2.3-0.4-5.3-0.4-8.3c-2.5,0-4.9-0.1-7.2-0.3c0.1,1,0.1,2,0.1,2.9c0,1.1,0,2.1-0.1,3.2c-0.1,2.1-0.4,4.3-1,6.4
			c-0.6-2.2-0.8-4.3-0.9-6.4c-0.1-1.1-0.1-2.1-0.1-3.2c0-1,0.1-2.1,0.1-3.1c-2.5-0.2-5-0.5-7.4-0.9c0.1,2.2,0.1,4.5,0,6.7
			c-0.1,2.3-0.4,4.6-0.9,6.9c-0.6-2.3-0.8-4.6-0.9-6.9s-0.1-4.6,0-6.9v-0.1c-2.6-0.4-5.1-1-7.4-1.6c0.1,2.5,0.1,5,0,7.6
			s-0.4,5.2-0.9,7.8c-0.6-2.6-0.8-5.2-0.9-7.8c-0.1-2.6-0.1-5.2,0-7.8v-0.3c-2.7-0.8-5.1-1.7-7.2-2.6c0,0,0,0-0.1,0
			c0.1,3,0.1,6-0.1,9c-0.2,3.1-0.4,6.3-0.9,9.4c-0.5-3.1-0.8-6.3-0.9-9.4c-0.1-3.1-0.1-6.3-0.1-9.4v-0.5l0.1-0.1
			c-4.4-2.4-6.9-5.2-6.9-8.2c0-0.1,0-0.2,0-0.2c-6.4,2.4-10.9,8.5-10.9,15.7v7.7v7.4C40,58.6,35.4,63,35.4,68.1v14.6
			c0,0.5,0.1,1,0.2,1.5c3.9,2.9,10,4.8,16.7,4.8h101.4c6.8,0,12.8-1.9,16.7-4.8c0.1-0.5,0.2-1,0.2-1.5V68.1
			C170.8,63.3,166.1,58.8,159.4,56.8z M119.8,66v-4.1h26.7v4.4l0,0l0,0v0.2l0,0c-0.1,1.6-1.2,2.8-2.6,2.8h-21.6
			c-1.4,0-2.6-1.4-2.6-3.1C119.8,66.2,119.8,66.1,119.8,66z M89.8,66v-4.2h26.7v4.4l0,0c0,0,0,0,0,0.1v0.2l0,0
			c-0.1,1.6-1.2,2.8-2.6,2.8H92.3c-1.4,0-2.6-1.4-2.6-3.1C89.8,66.3,89.8,66.2,89.8,66z M59.7,66v-4.1h26.7v4.4c0,0,0,0,0,0.1
			c0,0,0,0,0,0.1v0.2l0,0c-0.1,1.6-1.2,2.8-2.6,2.8H62.3c-1.4,0-2.6-1.4-2.6-3.1C59.7,66.2,59.7,66.1,59.7,66z M71.5,77.7v0.2l0,0
			c-0.1,1.6-1.2,2.8-2.6,2.8H47.4c-1.4,0-2.6-1.4-2.6-3.1c0-0.1,0-0.2,0-0.3v-4.2h26.7V77.7L71.5,77.7L71.5,77.7z M101.5,77.7v0.2
			l0,0c-0.1,1.6-1.2,2.8-2.6,2.8H77.4c-1.4,0-2.6-1.4-2.6-3.1c0-0.1,0-0.2,0-0.3v-4.1h26.7V77.7L101.5,77.7L101.5,77.7z M131.4,77.8
			V78l0,0c-0.1,1.6-1.2,2.8-2.6,2.8h-21.5c-1.4,0-2.6-1.4-2.6-3.1c0-0.1,0-0.2,0-0.3v-4.1h26.7v4.4
			C131.4,77.7,131.4,77.7,131.4,77.8C131.4,77.7,131.4,77.7,131.4,77.8z M161.4,77.7V78l0,0c-0.1,1.6-1.2,2.8-2.6,2.8h-21.5
			c-1.4,0-2.6-1.4-2.6-3.1c0-0.1,0-0.2,0-0.3v-4.1h26.7L161.4,77.7C161.4,77.7,161.4,77.7,161.4,77.7L161.4,77.7z"/>
		<path class="st3" d="M65,34.5l0.2-0.2c2.8-2.2,5.7-4.3,8.8-6.1c-2.2,2.6-4.7,5-7.2,7.2c2.1,1,4.5,1.8,7.2,2.6l0,0l0.1-0.2
			c1.1-1.7,2.2-3.3,3.4-4.9c1.2-1.6,2.4-3.2,3.6-4.8c-0.8,1.8-1.7,3.6-2.6,5.4c-0.9,1.7-1.8,3.3-2.7,5c2.3,0.6,4.8,1.1,7.4,1.6V40
			v-0.1c1.5-4,3.1-8,5-11.8c-0.9,4.1-2,8.2-3.2,12.2c0,0,0,0,0,0.1c2.4,0.4,4.8,0.6,7.4,0.9v-0.1v-0.1c0.8-4.3,1.7-8.6,2.9-12.9
			c-0.2,4.4-0.6,8.7-1.2,13.1c0,0.1,0,0.2,0,0.3c2.3,0.2,4.8,0.3,7.2,0.3c0-0.2,0-0.4,0-0.6c0-3.3,0.2-6.5,0.4-8.9
			c0.2-2.4,0.6-4.1,0.6-4.1s0.3,1.6,0.6,4.1c0.3,2.4,0.4,5.7,0.4,8.9c0,0.2,0,0.4,0,0.6c2.6,0,5.2-0.1,7.7-0.2v-0.1
			c-0.5-4.4-1-8.8-1.2-13.2c1.2,4.3,2.1,8.7,2.9,13.1v0.1l0,0c2.7-0.2,5.3-0.5,7.8-0.8c-1.2-4.1-2.3-8.2-3.2-12.4
			c1.9,3.9,3.4,7.9,5,12v0.1l0,0c2.7-0.4,5.3-1,7.8-1.6v-0.1c-0.9-1.6-1.8-3.3-2.7-5c-0.9-1.8-1.8-3.6-2.6-5.4
			c1.3,1.5,2.5,3.1,3.6,4.7c1.2,1.6,2.3,3.2,3.3,4.9l0.1,0.2v0.1c2.8-0.8,5.4-1.7,7.6-2.7c-2.5-2.3-4.9-4.6-7.1-7.2
			c3.1,1.8,6,3.9,8.8,6.1l0.2,0.1c4.4-2.4,7-5.2,7-8.2c0-0.1,0-0.2,0-0.2c-1.8-0.7-3.7-1-5.8-1H63.9c-2,0-4,0.4-5.8,1
			c0,0.1,0,0.2,0,0.2C58.1,29.3,60.6,32.1,65,34.5z"/>
	</g>
	<path class="st5" d="M74,28.2c-3.1,1.8-6,3.9-8.8,6.1L65,34.5l-0.1,0.1v0.5c-0.1,3.1-0.1,6.3,0.1,9.4c0.1,3.1,0.4,6.3,0.9,9.4
		c0.5-3.1,0.8-6.3,0.9-9.4c0.1-3,0.1-6,0.1-9c0,0,0,0,0.1,0C69.3,33.2,71.8,30.8,74,28.2z"/>
	<path class="st5" d="M81.2,28.2c-1.3,1.5-2.5,3.1-3.6,4.8c-1.2,1.6-2.3,3.3-3.4,4.9l-0.1,0.2l0,0v0.3c-0.1,2.6-0.1,5.2,0,7.8
		c0.1,2.6,0.4,5.2,0.9,7.8c0.6-2.6,0.8-5.2,0.9-7.8c0.1-2.5,0.1-5,0-7.6c0.9-1.6,1.8-3.3,2.7-5C79.5,31.8,80.3,30,81.2,28.2z"/>
	<path class="st5" d="M88.2,28.1c-1.9,3.9-3.4,7.8-5,11.8V40v0.1v0.1c-0.2,2.3-0.2,4.6,0,6.9c0.1,2.3,0.4,4.6,0.9,6.9
		c0.6-2.3,0.8-4.6,0.9-6.9c0.1-2.2,0.1-4.5,0-6.7c0,0,0,0,0-0.1C86.2,36.3,87.4,32.3,88.2,28.1z"/>
	<path class="st5" d="M95.3,28.1c-1.2,4.3-2.1,8.6-2.9,12.9v0.1v0.1c-0.1,1-0.1,2.1-0.1,3.1c0,1.1,0,2.2,0.1,3.2
		c0.1,2.1,0.4,4.3,0.9,6.4c0.6-2.2,0.8-4.3,1-6.4c0.1-1.1,0.1-2.1,0.1-3.2c0-1-0.1-2-0.1-2.9c0-0.1,0-0.2,0-0.3
		C94.8,36.8,95.2,32.5,95.3,28.1z"/>
	<path class="st5" d="M103,32.1c-0.2-2.4-0.6-4.1-0.6-4.1s-0.3,1.6-0.6,4.1c-0.3,2.4-0.4,5.7-0.4,8.9c0,0.2,0,0.4,0,0.6
		c0,3,0.2,6,0.4,8.3c0.2,2.4,0.6,4.1,0.6,4.1s0.3-1.6,0.6-4.1c0.2-2.3,0.4-5.3,0.4-8.3c0-0.2,0-0.4,0-0.6
		C103.4,37.8,103.3,34.6,103,32.1z"/>
	<path class="st5" d="M112.9,41.2c-0.8-4.4-1.7-8.7-2.9-13.1c0.2,4.4,0.6,8.8,1.2,13.2v0.1c-0.1,1-0.1,2-0.1,3c0,1.1,0,2.1,0.1,3.2
		c0.1,2.1,0.4,4.2,1,6.4c0.6-2.1,0.8-4.2,0.9-6.4c0.1-1.1,0.1-2.1,0.1-3.2c0-1-0.1-2.1-0.1-3.1l0,0L112.9,41.2z"/>
	<path class="st5" d="M122.4,40.1c-1.5-4-3.1-8.1-5-12c0.9,4.2,2,8.3,3.2,12.4l0,0c-0.2,2.2-0.1,4.4,0,6.7c0.1,2.3,0.4,4.5,0.9,6.8
		c0.6-2.3,0.8-4.5,0.9-6.8s0.1-4.5,0-6.8V40.1L122.4,40.1L122.4,40.1z"/>
	<path class="st5" d="M132,37.9c-1.1-1.7-2.2-3.3-3.3-4.9c-1.1-1.6-2.3-3.2-3.6-4.7c0.8,1.8,1.6,3.6,2.6,5.4c0.9,1.7,1.8,3.3,2.7,5
		v0.1c-0.1,2.5-0.1,5,0,7.5c0.1,2.6,0.4,5.2,0.9,7.8c0.6-2.6,0.8-5.2,0.9-7.8c0.1-2.6,0.1-5.2,0-7.8v-0.2v-0.1L132,37.9z"/>
	<path class="st5" d="M132.5,28.3c2.2,2.6,4.6,4.9,7.1,7.2l0.1,0.1c-0.1,3-0.1,6,0.1,9c0.1,3.1,0.4,6.3,0.9,9.4
		c0.5-3.1,0.8-6.3,0.9-9.4c0.1-3.1,0.1-6.3,0-9.4v-0.5l-0.2-0.1l-0.2-0.1C138.6,32.2,135.7,30.1,132.5,28.3z"/>
	<path class="st3" d="M161.4,78v-0.3C161.4,77.8,161.4,77.9,161.4,78L161.4,78z"/>
	<path class="st3" d="M161.4,77.7L161.4,77.7L161.4,77.7L161.4,77.7z"/>
	<g>
		<path class="st3" d="M62.3,69.4h21.5c1.4,0,2.5-1.2,2.6-2.8l0,0v-0.2c0,0,0,0,0-0.1c0,0,0,0,0-0.1v-4.4H59.7v4.1
			c0,0.1,0,0.2,0,0.3C59.7,68.1,60.9,69.4,62.3,69.4z"/>
		<path class="st3" d="M92.3,69.4h21.5c1.4,0,2.5-1.2,2.6-2.8l0,0v-0.2c0,0,0,0,0-0.1l0,0v-4.4H89.8v4.2c0,0.1,0,0.2,0,0.3
			C89.8,68.1,90.9,69.4,92.3,69.4z"/>
		<path class="st3" d="M122.3,69.4h21.5c1.4,0,2.5-1.2,2.6-2.8l0,0v-0.2l0,0l0,0V62h-26.7v4.1c0,0.1,0,0.2,0,0.3
			C119.8,68.1,120.9,69.4,122.3,69.4z"/>
		<path class="st3" d="M71.5,73.2H44.8v4.2c0,0.1,0,0.2,0,0.3c0,1.7,1.2,3.1,2.6,3.1h21.5c1.4,0,2.5-1.2,2.6-2.8l0,0v-0.2l0,0l0,0
			V73.2z"/>
		<path class="st3" d="M101.5,73.2H74.8v4.1c0,0.1,0,0.2,0,0.3c0,1.7,1.2,3.1,2.6,3.1h21.5c1.4,0,2.5-1.2,2.6-2.8l0,0v-0.2l0,0l0,0
			V73.2z"/>
		<path class="st3" d="M131.4,73.2h-26.7v4.1c0,0.1,0,0.2,0,0.3c0,1.7,1.2,3.1,2.6,3.1h21.5c1.4,0,2.5-1.2,2.6-2.8l0,0v-0.2
			c0,0,0,0,0-0.1c0,0,0,0,0-0.1V73.2z"/>
		<path class="st3" d="M161.4,73.2h-26.7v4.1c0,0.1,0,0.2,0,0.3c0,1.7,1.2,3.1,2.6,3.1h21.5c1.4,0,2.5-1.2,2.6-2.8
			c0-0.1,0-0.2,0-0.3l0,0L161.4,73.2L161.4,73.2z"/>
	</g>
	<g>
		<rect x="64.6" y="-9" class="st3" width="18.4" height="3.9"/>
		<rect x="64.6" y="-0.7" class="st3" width="45.3" height="3.9"/>
		<rect x="113.5" y="-0.7" class="st3" width="28.4" height="3.9"/>
		<rect x="96.7" y="7.4" class="st3" width="45.3" height="3.9"/>
		<rect x="64.6" y="7.4" class="st3" width="28.4" height="3.9"/>
	</g>
</g>
<g>
	<circle class="st1" cx="-120" cy="241.4" r="84.5"/>
	<path class="st2" d="M-73.8,184.2h-90.3v32.4h90.3L-73.8,184.2L-73.8,184.2z M-157.7,190.7h18.4v3.9h-18.4V190.7z M-157.7,199h45.3
		v3.9h-45.3V199z M-129.3,211h-28.4v-3.9h28.4V211z M-80.4,211h-45.3v-3.9h45.3V211z M-80.4,202.9h-28.4V199h28.4V202.9z"/>
	<g>
		<path class="st2" d="M-178.9,230.3h5c1.9-2.6,4.4-4.7,7.4-6.1c0.5-0.2,1-0.5,1.5-0.7l0,0c1.1-0.4,2.2-0.7,3.3-0.9
			c1.1-0.2,2.2-0.3,3.3-0.3h78.8c1.1,0,2.2,0.1,3.3,0.3s2.2,0.5,3.3,0.9l0,0l1.5,0.6v0.1c3,1.4,5.5,3.5,7.4,6.1h6.4v-11.4h-121.2
			V230.3z"/>
		<path class="st2" d="M-182.9,236.2c-0.9,0-1.6,0.7-1.6,1.6c0,0.9,0.7,1.6,1.6,1.6s1.6-0.7,1.6-1.6
			C-181.3,236.9-182,236.2-182.9,236.2z"/>
		<polygon class="st2" points="-186.5,230.3 -186.5,230.3 -186.5,239.4 -184.8,239.4 -184.8,230.3 -181.2,230.3 -181.2,218.9 
			-186.5,218.9 		"/>
		<rect x="-56.5" y="218.9" class="st2" width="5.2" height="11.4"/>
	</g>
	<path class="st3" d="M-119,145.7c-52.6,0-95.3,42.7-95.3,95.3s42.7,95.3,95.3,95.3c52.7,0,95.3-42.7,95.3-95.3
		S-66.3,145.7-119,145.7z M-186.4,286.5c3.9,2.9,10,4.8,16.7,4.8h101.4c6.8,0,12.8-1.9,16.7-4.8c-1.2,6.4-9.7,11.4-20,11.4h-94.9
		C-176.8,297.9-185.2,292.9-186.4,286.5z M-51.4,218.9v11.4h-5.2v-11.4H-51.4z M-73.8,216.5h-90.3v-32.3h90.3L-73.8,216.5
		L-73.8,216.5z M-57.7,218.9v11.4h-6.4c-1.9-2.6-4.4-4.7-7.4-6.1c-0.5-0.2-1-0.5-1.5-0.7l0,0c-1.1-0.4-2.2-0.7-3.3-0.9
		c-1.1-0.2-2.2-0.3-3.3-0.3h-78.8c-1.1,0-2.2,0.1-3.3,0.3c-1.1,0.2-2.2,0.5-3.3,0.9l0,0c-0.5,0.2-1,0.5-1.5,0.7
		c-3,1.4-5.5,3.5-7.4,6.1h-5v-11.4H-57.7z M-184.8,230.3v9.1h-1.7v-9.1l0,0v-11.4h5.3v11.4H-184.8z M-181.3,237.8
		c0,0.9-0.7,1.6-1.6,1.6s-1.6-0.7-1.6-1.6c0-0.9,0.7-1.6,1.6-1.6S-181.3,236.9-181.3,237.8z M-186.6,268.1c0-5.1,4.7-9.5,11.4-11.6
		v-7.4v-7.7c0-7.2,4.6-13.3,10.9-15.7c1.8-0.7,3.7-1,5.8-1h78.8c2,0,4,0.4,5.8,1c6.4,2.4,10.9,8.5,10.9,15.7v7.7v7.4
		c6.8,2.1,11.4,6.5,11.4,11.6v14.6c0,0.5-0.1,1-0.2,1.5c-3.9,2.9-10,4.8-16.7,4.8h-101.2c-6.8,0-12.8-1.9-16.7-4.8
		c-0.1-0.5-0.2-1-0.2-1.5C-186.6,282.7-186.6,268.1-186.6,268.1z"/>
	<path class="st4" d="M-73,223.5L-73,223.5L-73,223.5c0.5,0.2,1,0.5,1.5,0.7v-0.1L-73,223.5z"/>
	<g>
		<path class="st2" d="M-169.7,291.3c-6.8,0-12.8-1.9-16.7-4.8c1.2,6.4,9.7,11.4,20,11.4h94.9c10.3,0,18.8-5,20-11.4
			c-3.9,2.9-10,4.8-16.7,4.8H-169.7z"/>
		<path class="st2" d="M-62.9,256.5v-7.4v-7.7c0-7.2-4.6-13.3-10.9-15.7c0,0.1,0,0.2,0,0.2c0,3-2.6,5.8-7,8.2l0.2,0.1v0.5
			c0.1,3.1,0.1,6.3,0,9.4c-0.1,3.1-0.4,6.3-0.9,9.4c-0.5-3.1-0.8-6.3-0.9-9.4c-0.1-3-0.1-6-0.1-9l-0.1-0.1c-2.2,1-4.7,1.9-7.6,2.7
			v0.2c0.1,2.6,0.1,5.2,0,7.8s-0.4,5.2-0.9,7.8c-0.6-2.6-0.8-5.2-0.9-7.8c-0.1-2.5-0.1-5,0-7.5c-2.4,0.6-5,1.1-7.8,1.6v0.2
			c0.2,2.3,0.2,4.5,0,6.8c-0.1,2.3-0.4,4.5-0.9,6.8c-0.6-2.3-0.8-4.5-0.9-6.8c-0.1-2.2-0.1-4.5,0-6.7l0,0c-2.5,0.4-5.1,0.6-7.8,0.8
			c0.1,1,0.1,2.1,0.1,3.1c0,1.1,0,2.1-0.1,3.2c-0.1,2.1-0.4,4.2-0.9,6.4c-0.6-2.1-0.8-4.2-1-6.4c-0.1-1.1-0.1-2.1-0.1-3.2
			c0-1,0.1-2,0.1-3c-2.5,0.1-5.1,0.2-7.7,0.2c0,3-0.2,6-0.4,8.3c-0.2,2.4-0.6,4.1-0.6,4.1s-0.3-1.6-0.6-4.1
			c-0.2-2.3-0.4-5.3-0.4-8.3c-2.5,0-4.9-0.1-7.2-0.3c0.1,1,0.1,2,0.1,2.9c0,1.1,0,2.1-0.1,3.2c-0.1,2.1-0.4,4.3-1,6.4
			c-0.6-2.2-0.8-4.3-0.9-6.4c-0.1-1.1-0.1-2.1-0.1-3.2c0-1,0.1-2.1,0.1-3.1c-2.5-0.2-5-0.5-7.4-0.9c0.1,2.2,0.1,4.5,0,6.7
			c-0.1,2.3-0.4,4.6-0.9,6.9c-0.6-2.3-0.8-4.6-0.9-6.9c-0.1-2.3-0.1-4.6,0-6.9v-0.1c-2.6-0.4-5.1-1-7.4-1.6c0.1,2.5,0.1,5,0,7.6
			c-0.1,2.6-0.4,5.2-0.9,7.8c-0.6-2.6-0.8-5.2-0.9-7.8c-0.1-2.6-0.1-5.2,0-7.8v-0.3c-2.7-0.8-5.1-1.7-7.2-2.6c0,0,0,0-0.1,0
			c0.1,3,0.1,6-0.1,9c-0.2,3.1-0.4,6.3-0.9,9.4c-0.5-3.1-0.8-6.3-0.9-9.4c-0.1-3.1-0.1-6.3-0.1-9.4v-0.5l0.1-0.1
			c-4.4-2.4-6.9-5.2-6.9-8.2c0-0.1,0-0.2,0-0.2c-6.4,2.4-10.9,8.5-10.9,15.7v7.7v7.4c-6.8,2.1-11.4,6.5-11.4,11.6v14.6
			c0,0.5,0.1,1,0.2,1.5c3.9,2.9,10,4.8,16.7,4.8h101.4c6.8,0,12.8-1.9,16.7-4.8c0.1-0.5,0.2-1,0.2-1.5v-14.6
			C-51.5,263-56.2,258.5-62.9,256.5z M-102.5,265.7v-4.1h26.7v4.4l0,0l0,0v0.2l0,0c-0.1,1.6-1.2,2.8-2.6,2.8H-100
			c-1.4,0-2.6-1.4-2.6-3.1C-102.6,265.9-102.5,265.8-102.5,265.7z M-132.5,265.7v-4.2h26.7v4.4l0,0c0,0,0,0,0,0.1v0.2l0,0
			c-0.1,1.6-1.2,2.8-2.6,2.8H-130c-1.4,0-2.6-1.4-2.6-3.1C-132.6,266-132.6,265.9-132.5,265.7z M-162.6,265.7v-4.1h26.7v4.4
			c0,0,0,0,0,0.1c0,0,0,0,0,0.1v0.2l0,0c-0.1,1.6-1.2,2.8-2.6,2.8H-160c-1.4,0-2.6-1.4-2.6-3.1
			C-162.6,265.9-162.6,265.8-162.6,265.7z M-150.8,277.4v0.2l0,0c-0.1,1.6-1.2,2.8-2.6,2.8h-21.5c-1.4,0-2.6-1.4-2.6-3.1
			c0-0.1,0-0.2,0-0.3v-4.2h26.7V277.4L-150.8,277.4L-150.8,277.4z M-120.8,277.4v0.2l0,0c-0.1,1.6-1.2,2.8-2.6,2.8h-21.5
			c-1.4,0-2.6-1.4-2.6-3.1c0-0.1,0-0.2,0-0.3v-4.1h26.7V277.4L-120.8,277.4L-120.8,277.4z M-90.9,277.5v0.2l0,0
			c-0.1,1.6-1.2,2.8-2.6,2.8H-115c-1.4,0-2.6-1.4-2.6-3.1c0-0.1,0-0.2,0-0.3V273h26.7v4.4C-90.9,277.4-90.9,277.4-90.9,277.5
			C-90.9,277.4-90.9,277.4-90.9,277.5z M-60.9,277.4v0.3l0,0c-0.1,1.6-1.2,2.8-2.6,2.8H-85c-1.4,0-2.6-1.4-2.6-3.1
			c0-0.1,0-0.2,0-0.3V273h26.7L-60.9,277.4C-60.9,277.4-60.9,277.4-60.9,277.4L-60.9,277.4z"/>
		<path class="st3" d="M-157.3,234.2l0.2-0.2c2.8-2.2,5.7-4.3,8.8-6.1c-2.2,2.6-4.7,5-7.2,7.2c2.1,1,4.5,1.8,7.2,2.6l0,0l0.1-0.2
			c1.1-1.7,2.2-3.3,3.4-4.9c1.2-1.6,2.4-3.2,3.6-4.8c-0.8,1.8-1.7,3.6-2.6,5.4c-0.9,1.7-1.8,3.3-2.7,5c2.3,0.6,4.8,1.1,7.4,1.6v-0.1
			v-0.1c1.5-4,3.1-8,5-11.8c-0.9,4.1-2,8.2-3.2,12.2c0,0,0,0,0,0.1c2.4,0.4,4.8,0.6,7.4,0.9v-0.1v-0.1c0.8-4.3,1.7-8.6,2.9-12.9
			c-0.2,4.4-0.6,8.7-1.2,13.1c0,0.1,0,0.2,0,0.3c2.3,0.2,4.8,0.3,7.2,0.3c0-0.2,0-0.4,0-0.6c0-3.3,0.2-6.5,0.4-8.9
			c0.2-2.4,0.6-4.1,0.6-4.1s0.3,1.6,0.6,4.1c0.3,2.4,0.4,5.7,0.4,8.9c0,0.2,0,0.4,0,0.6c2.6,0,5.2-0.1,7.7-0.2v-0.1
			c-0.5-4.4-1-8.8-1.2-13.2c1.2,4.3,2.1,8.7,2.9,13.1v0.1l0,0c2.7-0.2,5.3-0.5,7.8-0.8c-1.2-4.1-2.3-8.2-3.2-12.4
			c1.9,3.9,3.4,7.9,5,12v0.1l0,0c2.7-0.4,5.3-1,7.8-1.6v-0.1c-0.9-1.6-1.8-3.3-2.7-5c-0.9-1.8-1.8-3.6-2.6-5.4
			c1.3,1.5,2.5,3.1,3.6,4.7c1.2,1.6,2.3,3.2,3.3,4.9l0.1,0.2v0.1c2.8-0.8,5.4-1.7,7.6-2.7c-2.5-2.3-4.9-4.6-7.1-7.2
			c3.1,1.8,6,3.9,8.8,6.1l0.2,0.1c4.4-2.4,7-5.2,7-8.2c0-0.1,0-0.2,0-0.2c-1.8-0.7-3.7-1-5.8-1h-78.6c-2,0-4,0.4-5.8,1
			c0,0.1,0,0.2,0,0.2C-164.2,229-161.7,231.8-157.3,234.2z"/>
	</g>
	<path class="st5" d="M-148.3,227.9c-3.1,1.8-6,3.9-8.8,6.1l-0.2,0.2l-0.1,0.1v0.5c-0.1,3.1-0.1,6.3,0.1,9.4
		c0.1,3.1,0.4,6.3,0.9,9.4c0.5-3.1,0.8-6.3,0.9-9.4c0.1-3,0.1-6,0.1-9c0,0,0,0,0.1,0C-153,232.9-150.5,230.5-148.3,227.9z"/>
	<path class="st5" d="M-141.2,227.9c-1.3,1.5-2.5,3.1-3.6,4.8c-1.2,1.6-2.3,3.3-3.4,4.9l-0.1,0.2l0,0v0.3c-0.1,2.6-0.1,5.2,0,7.8
		c0.1,2.6,0.4,5.2,0.9,7.8c0.6-2.6,0.8-5.2,0.9-7.8c0.1-2.5,0.1-5,0-7.6c0.9-1.6,1.8-3.3,2.7-5C-142.8,231.5-142,229.7-141.2,227.9z
		"/>
	<path class="st5" d="M-134.1,227.8c-1.9,3.9-3.4,7.8-5,11.8v0.1v0.1v0.1c-0.2,2.3-0.2,4.6,0,6.9c0.1,2.3,0.4,4.6,0.9,6.9
		c0.6-2.3,0.8-4.6,0.9-6.9c0.1-2.2,0.1-4.5,0-6.7c0,0,0,0,0-0.1C-136.1,236-134.9,232-134.1,227.8z"/>
	<path class="st5" d="M-127,227.8c-1.2,4.3-2.1,8.6-2.9,12.9v0.1v0.1c-0.1,1-0.1,2.1-0.1,3.1c0,1.1,0,2.2,0.1,3.2
		c0.1,2.1,0.4,4.3,0.9,6.4c0.6-2.2,0.8-4.3,1-6.4c0.1-1.1,0.1-2.1,0.1-3.2c0-1-0.1-2-0.1-2.9c0-0.1,0-0.2,0-0.3
		C-127.6,236.5-127.1,232.2-127,227.8z"/>
	<path class="st5" d="M-119.3,231.8c-0.2-2.4-0.6-4.1-0.6-4.1s-0.3,1.6-0.6,4.1c-0.3,2.4-0.4,5.7-0.4,8.9c0,0.2,0,0.4,0,0.6
		c0,3,0.2,6,0.4,8.3c0.2,2.4,0.6,4.1,0.6,4.1s0.3-1.6,0.6-4.1c0.2-2.3,0.4-5.3,0.4-8.3c0-0.2,0-0.4,0-0.6
		C-118.9,237.5-119,234.3-119.3,231.8z"/>
	<path class="st5" d="M-109.4,240.9c-0.8-4.4-1.7-8.7-2.9-13.1c0.2,4.4,0.6,8.8,1.2,13.2v0.1c-0.1,1-0.1,2-0.1,3
		c0,1.1,0,2.1,0.1,3.2c0.1,2.1,0.4,4.2,1,6.4c0.6-2.1,0.8-4.2,0.9-6.4c0.1-1.1,0.1-2.1,0.1-3.2c0-1-0.1-2.1-0.1-3.1l0,0
		L-109.4,240.9z"/>
	<path class="st5" d="M-99.9,239.8c-1.5-4-3.1-8.1-5-12c0.9,4.2,2,8.3,3.2,12.4l0,0c-0.2,2.2-0.1,4.4,0,6.7s0.4,4.5,0.9,6.8
		c0.6-2.3,0.8-4.5,0.9-6.8s0.1-4.5,0-6.8v-0.2V239.8L-99.9,239.8z"/>
	<path class="st5" d="M-90.3,237.6c-1.1-1.7-2.2-3.3-3.3-4.9c-1.1-1.6-2.3-3.2-3.6-4.7c0.8,1.8,1.6,3.6,2.6,5.4
		c0.9,1.7,1.8,3.3,2.7,5v0.1c-0.1,2.5-0.1,5,0,7.5c0.1,2.6,0.4,5.2,0.9,7.8c0.6-2.6,0.8-5.2,0.9-7.8c0.1-2.6,0.1-5.2,0-7.8V238v-0.1
		L-90.3,237.6z"/>
	<path class="st5" d="M-89.8,228c2.2,2.6,4.6,4.9,7.1,7.2l0.1,0.1c-0.1,3-0.1,6,0.1,9c0.1,3.1,0.4,6.3,0.9,9.4
		c0.5-3.1,0.8-6.3,0.9-9.4c0.1-3.1,0.1-6.3,0-9.4v-0.5l-0.2-0.1l-0.2-0.1C-83.7,231.9-86.6,229.8-89.8,228z"/>
	<path class="st3" d="M-60.9,277.7v-0.3C-60.9,277.5-60.9,277.6-60.9,277.7L-60.9,277.7z"/>
	<path class="st3" d="M-60.9,277.4L-60.9,277.4L-60.9,277.4L-60.9,277.4z"/>
	<g>
		<path class="st3" d="M-160,269.1h21.5c1.4,0,2.5-1.2,2.6-2.8l0,0v-0.2c0,0,0,0,0-0.1c0,0,0,0,0-0.1v-4.4h-26.7v4.1
			c0,0.1,0,0.2,0,0.3C-162.6,267.8-161.4,269.1-160,269.1z"/>
		<path class="st3" d="M-130,269.1h21.5c1.4,0,2.5-1.2,2.6-2.8l0,0v-0.2c0,0,0,0,0-0.1l0,0v-4.4h-26.6v4.2c0,0.1,0,0.2,0,0.3
			C-132.6,267.8-131.4,269.1-130,269.1z"/>
		<path class="st3" d="M-100,269.1h21.5c1.4,0,2.5-1.2,2.6-2.8l0,0v-0.2l0,0l0,0v-4.4h-26.7v4.1c0,0.1,0,0.2,0,0.3
			C-102.6,267.8-101.4,269.1-100,269.1z"/>
		<path class="st3" d="M-150.8,272.9h-26.7v4.2c0,0.1,0,0.2,0,0.3c0,1.7,1.2,3.1,2.6,3.1h21.5c1.4,0,2.5-1.2,2.6-2.8l0,0v-0.2l0,0
			l0,0V272.9z"/>
		<path class="st3" d="M-120.8,272.9h-26.7v4.1c0,0.1,0,0.2,0,0.3c0,1.7,1.2,3.1,2.6,3.1h21.5c1.4,0,2.5-1.2,2.6-2.8l0,0v-0.2l0,0
			l0,0V272.9z"/>
		<path class="st3" d="M-90.9,272.9h-26.7v4.1c0,0.1,0,0.2,0,0.3c0,1.7,1.2,3.1,2.6,3.1h21.5c1.4,0,2.5-1.2,2.6-2.8l0,0v-0.2
			c0,0,0,0,0-0.1c0,0,0,0,0-0.1V272.9z"/>
		<path class="st3" d="M-60.9,272.9h-26.7v4.1c0,0.1,0,0.2,0,0.3c0,1.7,1.2,3.1,2.6,3.1h21.5c1.4,0,2.5-1.2,2.6-2.8
			c0-0.1,0-0.2,0-0.3l0,0L-60.9,272.9L-60.9,272.9z"/>
	</g>
	<g>
		<rect x="-157.7" y="190.7" class="st3" width="18.4" height="3.9"/>
		<rect x="-157.7" y="199" class="st3" width="45.3" height="3.9"/>
		<rect x="-108.8" y="199" class="st3" width="28.4" height="3.9"/>
		<rect x="-125.7" y="207.1" class="st3" width="45.3" height="3.9"/>
		<rect x="-157.7" y="207.1" class="st3" width="28.4" height="3.9"/>
	</g>
</g>
</svg>
