<?xml version="1.0" encoding="utf-8"?>
<!-- Generator: Adobe Illustrator 19.0.0, SVG Export Plug-In . SVG Version: 6.00 Build 0)  -->
<svg version="1.1" id="Layer_1" xmlns="http://www.w3.org/2000/svg" xmlns:xlink="http://www.w3.org/1999/xlink" x="0px" y="0px"
	 viewBox="0 0 200 200" enable-background="new 0 0 200 200" xml:space="preserve">
<g>
	<g>
		<path fill="#F1693C" d="M392.7,127.6l-10.5-14.9h-4.3v-4.4h14.6v4.4H388l7.8,10.9l7.1-10.9h-4.4v-4.4h14.1v4.4h-4.7l-9.9,14.9
			v11.7h4.9v4.4H388v-4.4h4.7V127.6z"/>
		<path fill="#F1693C" d="M432.7,143.8h-8.6v-3c-3.1,2.5-5.2,3.4-7.9,3.4c-4.7,0-8.3-3.4-8.3-7.8c0-4.5,3.9-8,9-8
			c2.2,0,4.7,0.8,6.7,2.1v-3.2c0-3.5-2.6-4.7-5.5-4.7c-2.3,0-4.2,1-5.3,2.9l-4.6-1.2c2.1-3.8,5.6-5.7,10.6-5.7
			c7.2,0,9.7,3.6,9.7,7.6v13.5h4.2V143.8z M423.5,134.6c-2.1-1.6-4.3-2.4-6.4-2.4c-2.7,0-4.7,1.8-4.7,4.2c0,2.4,1.8,4.1,4.4,4.1
			c2.2,0,4.6-1.1,6.6-2.9V134.6z"/>
		<path fill="#F1693C" d="M441,112.6h-4.4v-4.3h9.3v22.1l9.2-7.3v-0.1H451v-4h13.7v4h-3.8l-9.2,7.7l8.7,8.7h4.2v4.3h-6.3l-12.4-12.4
			v8.1h3.7v4.3h-13v-4.3h4.5V112.6z"/>
		<path fill="#F1693C" d="M473,112.6h-4.4v-4.3h9.3v22.1l9.2-7.3v-0.1H483v-4h13.7v4h-3.8l-9.2,7.7l8.7,8.7h4.2v4.3h-6.3l-12.4-12.4
			v8.1h3.7v4.3h-13v-4.3h4.5V112.6z"/>
		<path fill="#F1693C" d="M505,132.7c0.7,4.8,3.9,7.6,8.4,7.6c3.2,0,6.2-1.4,8-4l4.3,1.9c-2.7,4.1-7.1,6.4-12.4,6.4
			c-8,0-13.7-5.4-13.7-13c0-8,6.5-13,12.9-13c6.8,0,13.1,5.2,13.1,14.2H505z M520.8,129.1c-0.8-3.9-4.2-6.8-8.1-6.8
			c-3.9,0-6.8,2.7-7.5,6.8H520.8z"/>
		<path fill="#F1693C" d="M528.2,119.1h3.2v-3.8l4.9-4.4v8.2h4.5v4.3h-4.5v14.2c0,2.4,2.1,2.3,4.5,1.5v4.4c-1.1,0.4-2.5,0.7-3.6,0.7
			c-3.4,0-5.8-1.6-5.8-5.8v-14.9h-3.2V119.1z"/>
		<path fill="#F1693C" d="M549,123.4h-4.1v-4.3h12.2v4.3h-2.9l5.3,13.6l5.2-13.6h-3.3v-4.3h11.9v4.3h-3.7l-12.2,31.4h-8.2v-4.3h4.8
			l3-7.2L549,123.4z"/>
	</g>
	<g>
		<path fill="#F1693C" d="M596,127.6l-10.5-14.9h-4.3v-4.4h14.6v4.4h-4.4l7.8,10.9l7.1-10.9h-4.4v-4.4h14.1v4.4h-4.7l-9.9,14.9v11.7
			h4.8v4.4h-14.9v-4.4h4.8V127.6z"/>
		<path fill="#F1693C" d="M637,143.8h-8.6v-3c-3.1,2.5-5.2,3.4-7.9,3.4c-4.7,0-8.3-3.4-8.3-7.8c0-4.5,3.9-8,9-8
			c2.2,0,4.8,0.8,6.7,2.1v-3.2c0-3.5-2.6-4.7-5.5-4.7c-2.3,0-4.2,1-5.3,2.9l-4.6-1.2c2.1-3.8,5.6-5.7,10.6-5.7
			c7.2,0,9.6,3.6,9.6,7.6v13.5h4.2V143.8z M627.9,134.6c-2.1-1.6-4.3-2.4-6.4-2.4c-2.7,0-4.7,1.8-4.7,4.2c0,2.4,1.8,4.1,4.4,4.1
			c2.2,0,4.6-1.1,6.6-2.9V134.6z"/>
		<path fill="#F1693C" d="M645.4,112.6H641v-4.3h9.3v22.1l9.2-7.3v-0.1h-4.1v-4h13.7v4h-3.8l-9.2,7.7l8.7,8.7h4.2v4.3h-6.3
			l-12.4-12.4v8.1h3.7v4.3h-13v-4.3h4.5V112.6z"/>
	</g>
</g>
<g>
	<circle fill="#47A768" cx="312.8" cy="134.1" r="54"/>
	<path fill="#46A667" d="M336.2,99.4H285v18.3h51.2V99.4z M288.7,103.1h10.4v2.2h-10.4V103.1z M288.7,107.8h25.6v2.2h-25.6V107.8z
		 M304.8,114.6h-16.1v-2.2h16.1V114.6z M332.4,114.6h-25.6v-2.2h25.6V114.6z M332.4,110h-16.1v-2.2h16.1V110z"/>
	<g>
		<path fill="#46A667" d="M276.7,125.5h2.8c1.1-1.5,2.5-2.7,4.2-3.4c0.3-0.1,0.6-0.3,0.8-0.4l0,0c0.6-0.2,1.2-0.4,1.9-0.5
			c0.6-0.1,1.2-0.2,1.8-0.2h44.6c0.6,0,1.2,0.1,1.8,0.2c0.6,0.1,1.3,0.3,1.9,0.5c0,0,0,0,0,0l0.8,0.3l0,0.1c1.7,0.8,3.1,2,4.2,3.4
			h3.6v-6.4h-68.6V125.5z"/>
		<circle fill="#46A667" cx="274.4" cy="129.8" r="0.9"/>
		<polygon fill="#46A667" points="272.4,125.5 272.4,125.5 272.4,130.6 273.3,130.6 273.3,125.5 275.3,125.5 275.3,119.1 
			272.4,119.1 		"/>
		<rect x="346" y="119.1" fill="#46A667" width="2.9" height="6.4"/>
	</g>
	<path fill="#A3C73A" d="M310.6,77.6c-29.8,0-54,24.2-54,54c0,29.8,24.2,54,54,54c29.8,0,54-24.2,54-54
		C364.6,101.8,340.4,77.6,310.6,77.6z M272.4,157.4c2.2,1.7,5.6,2.7,9.5,2.7h57.4c3.8,0,7.2-1.1,9.5-2.7c-0.7,3.6-5.5,6.4-11.3,6.4
		h-53.7C277.9,163.8,273.1,161,272.4,157.4z M348.9,119.1v6.4H346v-6.4H348.9z M336.2,117.7H285V99.4h51.2V117.7z M345.3,119.1v6.4
		h-3.6c-1.1-1.5-2.5-2.7-4.2-3.4c-0.3-0.1-0.6-0.3-0.8-0.4l0,0c-0.6-0.2-1.2-0.4-1.9-0.5c-0.6-0.1-1.2-0.2-1.8-0.2h-44.6
		c-0.6,0-1.2,0.1-1.8,0.2c-0.6,0.1-1.3,0.3-1.9,0.5l0,0c-0.3,0.1-0.6,0.3-0.8,0.4c-1.7,0.8-3.1,2-4.2,3.4h-2.8v-6.4H345.3z
		 M273.3,125.5v5.1h-0.9v-5.1h0v-6.4h3v6.4H273.3z M275.3,129.8c0,0.5-0.4,0.9-0.9,0.9c-0.5,0-0.9-0.4-0.9-0.9
		c0-0.5,0.4-0.9,0.9-0.9C274.9,128.9,275.3,129.3,275.3,129.8z M272.3,146.9c0-2.9,2.7-5.4,6.5-6.6v-4.2v-4.3c0-4.1,2.6-7.5,6.2-8.9
		c1-0.4,2.1-0.6,3.3-0.6h44.6c1.2,0,2.3,0.2,3.3,0.6c3.6,1.3,6.2,4.8,6.2,8.9v4.3v4.2c3.8,1.2,6.5,3.7,6.5,6.6v8.2
		c0,0.3,0,0.6-0.1,0.9c-2.2,1.7-5.6,2.7-9.5,2.7h-57.4c-3.8,0-7.2-1.1-9.5-2.7c-0.1-0.3-0.1-0.6-0.1-0.9V146.9z"/>
	<path fill="#676666" d="M336.6,121.7C336.6,121.7,336.6,121.7,336.6,121.7L336.6,121.7c0.3,0.1,0.6,0.3,0.9,0.4l0-0.1L336.6,121.7z
		"/>
	<g>
		<path fill="#46A667" d="M281.9,160.1c-3.8,0-7.2-1.1-9.5-2.7c0.7,3.6,5.5,6.4,11.3,6.4h53.7c5.8,0,10.6-2.8,11.3-6.4
			c-2.2,1.7-5.6,2.7-9.5,2.7H281.9z"/>
		<path fill="#46A667" d="M342.4,140.3v-4.2v-4.3c0-4.1-2.6-7.5-6.2-8.9c0,0,0,0.1,0,0.1c0,1.7-1.4,3.3-3.9,4.7l0.1,0.1l0,0.3
			c0,1.8,0.1,3.6,0,5.3c-0.1,1.8-0.2,3.6-0.5,5.3c-0.3-1.8-0.4-3.6-0.5-5.3c-0.1-1.7-0.1-3.4,0-5.1c0,0,0,0-0.1-0.1
			c-1.2,0.6-2.7,1.1-4.3,1.6l0,0.1c0.1,1.5,0.1,3,0,4.4c-0.1,1.5-0.2,3-0.5,4.4c-0.3-1.5-0.4-3-0.5-4.4c-0.1-1.4-0.1-2.8,0-4.2
			c-1.4,0.3-2.8,0.6-4.4,0.9l0,0.1c0.1,1.3,0.1,2.6,0,3.8c-0.1,1.3-0.2,2.6-0.5,3.8c-0.3-1.3-0.5-2.6-0.5-3.8
			c-0.1-1.3-0.1-2.5,0-3.8c0,0,0,0,0,0c-1.4,0.2-2.9,0.4-4.4,0.5c0,0.6,0.1,1.2,0.1,1.8c0,0.6,0,1.2,0,1.8c-0.1,1.2-0.2,2.4-0.5,3.6
			c-0.3-1.2-0.5-2.4-0.5-3.6c0-0.6,0-1.2,0-1.8c0-0.6,0-1.1,0.1-1.7c-1.4,0.1-2.9,0.1-4.3,0.1c0,1.7-0.1,3.4-0.2,4.7
			c-0.1,1.4-0.3,2.3-0.3,2.3s-0.2-0.9-0.3-2.3c-0.1-1.3-0.2-3-0.2-4.7c-1.4,0-2.8-0.1-4.1-0.2c0,0.6,0.1,1.1,0.1,1.7
			c0,0.6,0,1.2,0,1.8c-0.1,1.2-0.2,2.4-0.5,3.7c-0.3-1.2-0.5-2.4-0.5-3.7c0-0.6,0-1.2,0-1.8c0-0.6,0-1.2,0.1-1.7
			c-1.4-0.1-2.8-0.3-4.2-0.5c0.1,1.3,0.1,2.5,0,3.8c-0.1,1.3-0.2,2.6-0.5,3.9c-0.3-1.3-0.5-2.6-0.5-3.9c-0.1-1.3-0.1-2.6,0-3.9
			l0-0.1c-1.5-0.2-2.9-0.5-4.2-0.9c0.1,1.4,0.1,2.9,0,4.3c-0.1,1.5-0.2,2.9-0.5,4.4c-0.3-1.5-0.5-2.9-0.5-4.4
			c-0.1-1.5-0.1-2.9,0-4.4l0-0.2c-1.5-0.4-2.9-0.9-4.1-1.5c0,0,0,0,0,0c0,1.7,0,3.4,0,5.1c-0.1,1.8-0.2,3.6-0.5,5.3
			c-0.3-1.8-0.4-3.6-0.5-5.3c-0.1-1.8-0.1-3.6,0-5.3l0-0.3l0.1,0c-2.5-1.3-3.9-2.9-3.9-4.6c0,0,0-0.1,0-0.1
			c-3.6,1.3-6.2,4.8-6.2,8.9v4.3v4.2c-3.8,1.2-6.5,3.7-6.5,6.6v8.2c0,0.3,0,0.6,0.1,0.9c2.2,1.7,5.6,2.7,9.5,2.7h57.4
			c3.8,0,7.2-1.1,9.5-2.7c0.1-0.3,0.1-0.6,0.1-0.9v-8.2C348.8,144,346.2,141.5,342.4,140.3z M319.9,145.6v-2.3H335v2.5c0,0,0,0,0,0
			s0,0,0,0v0.1h0c-0.1,0.9-0.7,1.6-1.5,1.6h-12.2c-0.8,0-1.5-0.8-1.5-1.7C319.9,145.7,319.9,145.6,319.9,145.6z M302.9,145.6v-2.4
			H318v2.5c0,0,0,0,0,0c0,0,0,0,0,0v0.1h0c-0.1,0.9-0.7,1.6-1.5,1.6h-12.2c-0.8,0-1.5-0.8-1.5-1.7
			C302.9,145.7,302.9,145.6,302.9,145.6z M285.9,145.6v-2.3H301v2.5c0,0,0,0,0,0c0,0,0,0,0,0v0.1h0c-0.1,0.9-0.7,1.6-1.5,1.6h-12.2
			c-0.8,0-1.5-0.8-1.5-1.7C285.9,145.7,285.9,145.6,285.9,145.6z M292.6,152.2v0.1h0c-0.1,0.9-0.7,1.6-1.5,1.6h-12.2
			c-0.8,0-1.5-0.8-1.5-1.7c0-0.1,0-0.1,0-0.2v-2.4h15.1V152.2C292.6,152.2,292.6,152.2,292.6,152.2
			C292.6,152.2,292.6,152.2,292.6,152.2z M309.6,152.2v0.1h0c-0.1,0.9-0.7,1.6-1.5,1.6h-12.2c-0.8,0-1.5-0.8-1.5-1.7
			c0-0.1,0-0.1,0-0.2v-2.3h15.1V152.2C309.6,152.2,309.6,152.2,309.6,152.2C309.6,152.2,309.6,152.2,309.6,152.2z M326.5,152.2v0.1
			h0c-0.1,0.9-0.7,1.6-1.5,1.6h-12.2c-0.8,0-1.5-0.8-1.5-1.7c0-0.1,0-0.1,0-0.2v-2.3h15.1V152.2
			C326.5,152.2,326.5,152.2,326.5,152.2C326.5,152.2,326.5,152.2,326.5,152.2z M343.5,152.2v0.1h0c-0.1,0.9-0.7,1.6-1.5,1.6h-12.2
			c-0.8,0-1.5-0.8-1.5-1.7c0-0.1,0-0.1,0-0.2v-2.3h15.1V152.2C343.5,152.2,343.5,152.2,343.5,152.2
			C343.5,152.2,343.5,152.2,343.5,152.2z"/>
		<path fill="#A3C73A" d="M288.9,127.7l0.1-0.1c1.6-1.2,3.2-2.4,5-3.5c-1.3,1.5-2.7,2.8-4.1,4.1c1.2,0.5,2.5,1,4.1,1.5v0l0.1-0.1
			c0.6-0.9,1.3-1.9,1.9-2.8c0.7-0.9,1.3-1.8,2.1-2.7c-0.4,1-0.9,2.1-1.5,3.1c-0.5,1-1,1.9-1.5,2.8c1.3,0.3,2.7,0.6,4.2,0.9l0-0.1
			l0,0c0.9-2.3,1.8-4.5,2.8-6.7c-0.5,2.3-1.1,4.6-1.8,6.9c0,0,0,0,0,0c1.3,0.2,2.7,0.4,4.2,0.5c0,0,0-0.1,0-0.1l0-0.1
			c0.5-2.4,1-4.9,1.7-7.3c-0.1,2.5-0.4,4.9-0.7,7.4c0,0,0,0.1,0,0.1c1.3,0.1,2.7,0.1,4.1,0.2c0-0.1,0-0.2,0-0.4
			c0-1.8,0.1-3.7,0.2-5.1c0.1-1.4,0.3-2.3,0.3-2.3s0.2,0.9,0.3,2.3c0.1,1.4,0.2,3.2,0.2,5.1c0,0.1,0,0.2,0,0.4c1.5,0,2.9,0,4.3-0.1
			c0,0,0,0,0-0.1c-0.3-2.5-0.6-5-0.7-7.5c0.7,2.4,1.2,4.9,1.7,7.4l0,0.1c0,0,0,0,0,0c1.5-0.1,3-0.3,4.4-0.5c-0.7-2.3-1.3-4.6-1.8-7
			c1.1,2.2,2,4.5,2.8,6.8l0,0l0,0c1.6-0.2,3-0.6,4.4-0.9c0,0,0,0,0-0.1c-0.5-0.9-1-1.9-1.5-2.8c-0.5-1-1-2-1.4-3.1
			c0.7,0.9,1.4,1.8,2,2.7c0.7,0.9,1.3,1.8,1.9,2.8l0.1,0.1l0,0.1c1.6-0.5,3.1-1,4.3-1.6c-1.4-1.3-2.8-2.6-4-4.1c1.8,1,3.4,2.2,5,3.5
			l0.1,0.1c2.5-1.3,3.9-2.9,3.9-4.7c0,0,0-0.1,0-0.1c-1-0.4-2.1-0.6-3.3-0.6h-44.6c-1.2,0-2.3,0.2-3.3,0.6c0,0,0,0.1,0,0.1
			C285,124.8,286.4,126.4,288.9,127.7z"/>
	</g>
	<path fill="#8B8A8A" d="M294,124.1c-1.8,1-3.4,2.2-5,3.5l-0.1,0.1l-0.1,0l0,0.3c0,1.8-0.1,3.6,0,5.3c0.1,1.8,0.2,3.6,0.5,5.3
		c0.3-1.8,0.4-3.6,0.5-5.3c0.1-1.7,0.1-3.4,0-5.1c0,0,0,0,0,0C291.4,127,292.7,125.6,294,124.1z"/>
	<path fill="#8B8A8A" d="M298,124.1c-0.7,0.9-1.4,1.8-2.1,2.7c-0.7,0.9-1.3,1.8-1.9,2.8l-0.1,0.1v0l0,0.2c-0.1,1.5-0.1,2.9,0,4.4
		c0.1,1.5,0.2,2.9,0.5,4.4c0.3-1.5,0.4-2.9,0.5-4.4c0.1-1.4,0.1-2.9,0-4.3c0.5-0.9,1-1.9,1.5-2.8C297.1,126.2,297.6,125.2,298,124.1
		z"/>
	<path fill="#8B8A8A" d="M302,124.1c-1.1,2.2-2,4.4-2.8,6.7l0,0l0,0.1l0,0.1c-0.1,1.3-0.1,2.6,0,3.9c0.1,1.3,0.2,2.6,0.5,3.9
		c0.3-1.3,0.5-2.6,0.5-3.9c0.1-1.3,0.1-2.5,0-3.8c0,0,0,0,0,0C300.9,128.7,301.6,126.5,302,124.1z"/>
	<path fill="#8B8A8A" d="M306.1,124.1c-0.7,2.4-1.2,4.9-1.7,7.3l0,0.1c0,0,0,0.1,0,0.1c0,0.6-0.1,1.2-0.1,1.7c0,0.6,0,1.2,0,1.8
		c0.1,1.2,0.2,2.4,0.5,3.7c0.3-1.2,0.5-2.4,0.5-3.7c0-0.6,0-1.2,0-1.8c0-0.6,0-1.1-0.1-1.7c0,0,0-0.1,0-0.1
		C305.7,129,306,126.6,306.1,124.1z"/>
	<path fill="#8B8A8A" d="M310.4,126.4c-0.1-1.4-0.3-2.3-0.3-2.3s-0.2,0.9-0.3,2.3c-0.1,1.4-0.2,3.2-0.2,5.1c0,0.1,0,0.2,0,0.4
		c0,1.7,0.1,3.4,0.2,4.7c0.1,1.4,0.3,2.3,0.3,2.3s0.2-0.9,0.3-2.3c0.1-1.3,0.2-3,0.2-4.7c0-0.1,0-0.2,0-0.4
		C310.7,129.6,310.6,127.8,310.4,126.4z"/>
	<path fill="#8B8A8A" d="M316,131.5c-0.5-2.5-1-5-1.7-7.4c0.1,2.5,0.4,5,0.7,7.5c0,0,0,0,0,0.1c0,0.6-0.1,1.1-0.1,1.7
		c0,0.6,0,1.2,0,1.8c0.1,1.2,0.2,2.4,0.5,3.6c0.3-1.2,0.5-2.4,0.5-3.6c0-0.6,0-1.2,0-1.8c0-0.6,0-1.2-0.1-1.8
		C316,131.6,316,131.6,316,131.5L316,131.5z"/>
	<path fill="#8B8A8A" d="M321.4,130.9c-0.9-2.3-1.8-4.6-2.8-6.8c0.5,2.4,1.1,4.7,1.8,7c0,0,0,0,0,0c-0.1,1.3-0.1,2.5,0,3.8
		c0.1,1.3,0.2,2.6,0.5,3.8c0.3-1.3,0.5-2.6,0.5-3.8c0.1-1.3,0.1-2.6,0-3.8L321.4,130.9L321.4,130.9L321.4,130.9z"/>
	<path fill="#8B8A8A" d="M326.8,129.6c-0.6-0.9-1.2-1.9-1.9-2.8c-0.6-0.9-1.3-1.8-2-2.7c0.4,1,0.9,2.1,1.4,3.1
		c0.5,0.9,1,1.9,1.5,2.8c0,0,0,0,0,0.1c-0.1,1.4-0.1,2.8,0,4.2c0.1,1.5,0.2,3,0.5,4.4c0.3-1.5,0.4-3,0.5-4.4c0.1-1.5,0.1-3,0-4.4
		l0-0.1l0-0.1L326.8,129.6z"/>
	<path fill="#8B8A8A" d="M327.2,124.2c1.3,1.5,2.6,2.8,4,4.1c0,0,0,0,0.1,0.1c0,1.7,0,3.4,0,5.1c0.1,1.8,0.2,3.6,0.5,5.3
		c0.3-1.8,0.4-3.6,0.5-5.3c0.1-1.8,0.1-3.6,0-5.3l0-0.3l-0.1-0.1l-0.1-0.1C330.6,126.4,328.9,125.2,327.2,124.2z"/>
	<path fill="#A3C73A" d="M343.5,152.3v-0.1C343.5,152.2,343.5,152.3,343.5,152.3L343.5,152.3z"/>
	<polygon fill="#A3C73A" points="343.5,152.2 343.5,152.2 343.5,152.2 	"/>
	<g>
		<path fill="#A3C73A" d="M287.4,147.5h12.2c0.8,0,1.4-0.7,1.5-1.6h0v-0.1c0,0,0,0,0,0c0,0,0,0,0,0v-2.5h-15.1v2.3
			c0,0.1,0,0.1,0,0.2C285.9,146.7,286.6,147.5,287.4,147.5z"/>
		<path fill="#A3C73A" d="M304.4,147.5h12.2c0.8,0,1.4-0.7,1.5-1.6h0v-0.1c0,0,0,0,0,0c0,0,0,0,0,0v-2.5h-15.1v2.4
			c0,0.1,0,0.1,0,0.2C302.9,146.7,303.6,147.5,304.4,147.5z"/>
		<path fill="#A3C73A" d="M321.4,147.5h12.2c0.8,0,1.4-0.7,1.5-1.6h0v-0.1c0,0,0,0,0,0s0,0,0,0v-2.5h-15.1v2.3c0,0.1,0,0.1,0,0.2
			C319.9,146.7,320.6,147.5,321.4,147.5z"/>
		<path fill="#A3C73A" d="M292.6,149.6h-15.1v2.4c0,0.1,0,0.1,0,0.2c0,1,0.7,1.7,1.5,1.7h12.2c0.8,0,1.4-0.7,1.5-1.6h0v-0.1
			c0,0,0,0,0,0c0,0,0,0,0,0V149.6z"/>
		<path fill="#A3C73A" d="M309.6,149.6h-15.1v2.3c0,0.1,0,0.1,0,0.2c0,1,0.7,1.7,1.5,1.7h12.2c0.8,0,1.4-0.7,1.5-1.6h0v-0.1
			c0,0,0,0,0,0c0,0,0,0,0,0V149.6z"/>
		<path fill="#A3C73A" d="M326.5,149.6h-15.1v2.3c0,0.1,0,0.1,0,0.2c0,1,0.7,1.7,1.5,1.7H325c0.8,0,1.4-0.7,1.5-1.6h0v-0.1
			c0,0,0,0,0,0c0,0,0,0,0,0V149.6z"/>
		<path fill="#A3C73A" d="M343.5,149.6h-15.1v2.3c0,0.1,0,0.1,0,0.2c0,1,0.7,1.7,1.5,1.7H342c0.8,0,1.4-0.7,1.5-1.6c0,0,0-0.1,0-0.1
			v0V149.6z"/>
	</g>
	<g>
		<rect x="288.7" y="103.1" fill="#A3C73A" width="10.4" height="2.2"/>
		<rect x="288.7" y="107.8" fill="#A3C73A" width="25.6" height="2.2"/>
		<rect x="316.3" y="107.8" fill="#A3C73A" width="16.1" height="2.2"/>
		<rect x="306.8" y="112.4" fill="#A3C73A" width="25.6" height="2.2"/>
		<rect x="288.7" y="112.4" fill="#A3C73A" width="16.1" height="2.2"/>
	</g>
</g>
<g>
	<circle fill="#47A768" cx="102" cy="102.4" r="95.3"/>
	<path fill="#46A667" d="M143.2,41.2H52.9v32.4h90.3V41.2z M59.3,47.7h18.4v3.9H59.3V47.7z M59.3,56h45.3v3.9H59.3V56z M87.7,68
		H59.3v-3.9h28.4V68z M136.6,68H91.3v-3.9h45.3V68z M136.6,59.9h-28.4V56h28.4V59.9z"/>
	<g>
		<path fill="#46A667" d="M38.1,87.3h5c1.9-2.6,4.4-4.7,7.4-6.1c0.5-0.2,1-0.5,1.5-0.7l0,0c1.1-0.4,2.2-0.7,3.3-0.9
			c1.1-0.2,2.2-0.3,3.3-0.3h78.8c1.1,0,2.2,0.1,3.3,0.3c1.1,0.2,2.2,0.5,3.3,0.9c0,0,0,0,0,0l1.5,0.6l0,0.1c3,1.4,5.5,3.5,7.4,6.1
			h6.4V75.9H38.1V87.3z"/>
		<path fill="#46A667" d="M34.1,93.2c-0.9,0-1.6,0.7-1.6,1.6c0,0.9,0.7,1.6,1.6,1.6s1.6-0.7,1.6-1.6C35.7,93.9,35,93.2,34.1,93.2z"
			/>
		<polygon fill="#46A667" points="30.5,87.3 30.5,87.3 30.5,96.4 32.2,96.4 32.2,87.3 35.8,87.3 35.8,75.9 30.5,75.9 		"/>
		<rect x="160.5" y="75.9" fill="#46A667" width="5.2" height="11.4"/>
	</g>
	<path fill="#A3C73A" d="M98,2.7C45.4,2.7,2.7,45.4,2.7,98s42.7,95.3,95.3,95.3c52.7,0,95.3-42.7,95.3-95.3S150.7,2.7,98,2.7z
		 M30.6,143.5c3.9,2.9,10,4.8,16.7,4.8h101.4c6.8,0,12.8-1.9,16.7-4.8c-1.2,6.4-9.7,11.4-20,11.4H50.5
		C40.2,154.9,31.8,149.9,30.6,143.5z M165.6,75.9v11.4h-5.2V75.9H165.6z M143.2,73.5H52.9V41.2h90.3V73.5z M159.3,75.9v11.4h-6.4
		c-1.9-2.6-4.4-4.7-7.4-6.1c-0.5-0.2-1-0.5-1.5-0.7l0,0c-1.1-0.4-2.2-0.7-3.3-0.9c-1.1-0.2-2.2-0.3-3.3-0.3H58.6
		c-1.1,0-2.2,0.1-3.3,0.3c-1.1,0.2-2.2,0.5-3.3,0.9l0,0c-0.5,0.2-1,0.5-1.5,0.7c-3,1.4-5.5,3.5-7.4,6.1h-5V75.9H159.3z M32.2,87.3
		v9.1h-1.7v-9.1h0V75.9h5.3v11.4H32.2z M35.7,94.8c0,0.9-0.7,1.6-1.6,1.6s-1.6-0.7-1.6-1.6c0-0.9,0.7-1.6,1.6-1.6
		S35.7,93.9,35.7,94.8z M30.4,125.1c0-5.1,4.7-9.5,11.4-11.6v-7.4v-7.7c0-7.2,4.6-13.3,10.9-15.7c1.8-0.7,3.7-1,5.8-1h78.8
		c2,0,4,0.4,5.8,1c6.4,2.4,10.9,8.5,10.9,15.7v7.7v7.4c6.8,2.1,11.4,6.5,11.4,11.6v14.6c0,0.5-0.1,1-0.2,1.5
		c-3.9,2.9-10,4.8-16.7,4.8H47.3c-6.8,0-12.8-1.9-16.7-4.8c-0.1-0.5-0.2-1-0.2-1.5V125.1z"/>
	<path fill="#676666" d="M144,80.5C144,80.5,144,80.5,144,80.5L144,80.5c0.5,0.2,1,0.5,1.5,0.7l0-0.1L144,80.5z"/>
	<g>
		<path fill="#46A667" d="M47.3,148.3c-6.8,0-12.8-1.9-16.7-4.8c1.2,6.4,9.7,11.4,20,11.4h94.9c10.3,0,18.8-5,20-11.4
			c-3.9,2.9-10,4.8-16.7,4.8H47.3z"/>
		<path fill="#46A667" d="M154.1,113.5v-7.4v-7.7c0-7.2-4.6-13.3-10.9-15.7c0,0.1,0,0.2,0,0.2c0,3-2.6,5.8-7,8.2l0.2,0.1l0,0.5
			c0.1,3.1,0.1,6.3,0,9.4c-0.1,3.1-0.4,6.3-0.9,9.4c-0.5-3.1-0.8-6.3-0.9-9.4c-0.1-3-0.1-6-0.1-9c0,0-0.1-0.1-0.1-0.1
			c-2.2,1-4.7,1.9-7.6,2.7l0,0.2c0.1,2.6,0.1,5.2,0,7.8c-0.1,2.6-0.4,5.2-0.9,7.8c-0.6-2.6-0.8-5.2-0.9-7.8c-0.1-2.5-0.1-5,0-7.5
			c-2.4,0.6-5,1.1-7.8,1.6l0,0.2c0.2,2.3,0.2,4.5,0,6.8c-0.1,2.3-0.4,4.5-0.9,6.8c-0.6-2.3-0.8-4.5-0.9-6.8c-0.1-2.2-0.1-4.5,0-6.7
			c0,0,0,0,0,0c-2.5,0.4-5.1,0.6-7.8,0.8c0.1,1,0.1,2.1,0.1,3.1c0,1.1,0,2.1-0.1,3.2c-0.1,2.1-0.4,4.2-0.9,6.4
			c-0.6-2.1-0.8-4.2-1-6.4c-0.1-1.1-0.1-2.1-0.1-3.2c0-1,0.1-2,0.1-3c-2.5,0.1-5.1,0.2-7.7,0.2c0,3-0.2,6-0.4,8.3
			c-0.2,2.4-0.6,4.1-0.6,4.1s-0.3-1.6-0.6-4.1c-0.2-2.3-0.4-5.3-0.4-8.3c-2.5,0-4.9-0.1-7.2-0.3c0.1,1,0.1,2,0.1,2.9
			c0,1.1,0,2.1-0.1,3.2c-0.1,2.1-0.4,4.3-1,6.4c-0.6-2.2-0.8-4.3-0.9-6.4c-0.1-1.1-0.1-2.1-0.1-3.2c0-1,0.1-2.1,0.1-3.1
			c-2.5-0.2-5-0.5-7.4-0.9c0.1,2.2,0.1,4.5,0,6.7c-0.1,2.3-0.4,4.6-0.9,6.9c-0.6-2.3-0.8-4.6-0.9-6.9c-0.1-2.3-0.1-4.6,0-6.9l0-0.1
			c-2.6-0.4-5.1-1-7.4-1.6c0.1,2.5,0.1,5,0,7.6c-0.1,2.6-0.4,5.2-0.9,7.8c-0.6-2.6-0.8-5.2-0.9-7.8c-0.1-2.6-0.1-5.2,0-7.8l0-0.3
			c-2.7-0.8-5.1-1.7-7.2-2.6c0,0,0,0-0.1,0c0.1,3,0.1,6-0.1,9c-0.2,3.1-0.4,6.3-0.9,9.4c-0.5-3.1-0.8-6.3-0.9-9.4
			c-0.1-3.1-0.1-6.3-0.1-9.4l0-0.5l0.1-0.1c-4.4-2.4-6.9-5.2-6.9-8.2c0-0.1,0-0.2,0-0.2c-6.4,2.4-10.9,8.5-10.9,15.7v7.7v7.4
			c-6.8,2.1-11.4,6.5-11.4,11.6v14.6c0,0.5,0.1,1,0.2,1.5c3.9,2.9,10,4.8,16.7,4.8h101.4c6.8,0,12.8-1.9,16.7-4.8
			c0.1-0.5,0.2-1,0.2-1.5v-14.6C165.5,120,160.8,115.5,154.1,113.5z M114.5,122.7v-4.1h26.7v4.4c0,0,0,0,0,0c0,0,0,0,0,0v0.2h0
			c-0.1,1.6-1.2,2.8-2.6,2.8H117c-1.4,0-2.6-1.4-2.6-3.1C114.4,122.9,114.5,122.8,114.5,122.7z M84.5,122.7v-4.2h26.7v4.4
			c0,0,0,0,0,0c0,0,0,0,0,0.1v0.2h0c-0.1,1.6-1.2,2.8-2.6,2.8H87c-1.4,0-2.6-1.4-2.6-3.1C84.4,123,84.4,122.9,84.5,122.7z
			 M54.4,122.7v-4.1h26.7v4.4c0,0,0,0,0,0.1c0,0,0,0,0,0.1v0.2h0c-0.1,1.6-1.2,2.8-2.6,2.8H57c-1.4,0-2.6-1.4-2.6-3.1
			C54.4,122.9,54.4,122.8,54.4,122.7z M66.2,134.4v0.2h0c-0.1,1.6-1.2,2.8-2.6,2.8H42.1c-1.4,0-2.6-1.4-2.6-3.1c0-0.1,0-0.2,0-0.3
			v-4.2h26.7V134.4C66.2,134.4,66.2,134.4,66.2,134.4C66.2,134.4,66.2,134.4,66.2,134.4z M96.2,134.4v0.2h0
			c-0.1,1.6-1.2,2.8-2.6,2.8H72.1c-1.4,0-2.6-1.4-2.6-3.1c0-0.1,0-0.2,0-0.3v-4.1h26.7V134.4C96.2,134.4,96.2,134.4,96.2,134.4
			C96.2,134.4,96.2,134.4,96.2,134.4z M126.1,134.5v0.2h0c-0.1,1.6-1.2,2.8-2.6,2.8H102c-1.4,0-2.6-1.4-2.6-3.1c0-0.1,0-0.2,0-0.3
			v-4.1h26.7v4.4C126.1,134.4,126.1,134.4,126.1,134.5C126.1,134.4,126.1,134.4,126.1,134.5z M156.1,134.4v0.3h0
			c-0.1,1.6-1.2,2.8-2.6,2.8H132c-1.4,0-2.6-1.4-2.6-3.1c0-0.1,0-0.2,0-0.3v-4.1h26.7V134.4C156.1,134.4,156.1,134.4,156.1,134.4
			C156.1,134.4,156.1,134.4,156.1,134.4z"/>
		<path fill="#A3C73A" d="M59.7,91.2l0.2-0.2c2.8-2.2,5.7-4.3,8.8-6.1c-2.2,2.6-4.7,5-7.2,7.2c2.1,1,4.5,1.8,7.2,2.6v0l0.1-0.2
			c1.1-1.7,2.2-3.3,3.4-4.9c1.2-1.6,2.4-3.2,3.6-4.8c-0.8,1.8-1.7,3.6-2.6,5.4c-0.9,1.7-1.8,3.3-2.7,5c2.3,0.6,4.8,1.1,7.4,1.6
			l0-0.1l0-0.1c1.5-4,3.1-8,5-11.8c-0.9,4.1-2,8.2-3.2,12.2c0,0,0,0,0,0.1c2.4,0.4,4.8,0.6,7.4,0.9c0,0,0-0.1,0-0.1l0-0.1
			c0.8-4.3,1.7-8.6,2.9-12.9c-0.2,4.4-0.6,8.7-1.2,13.1c0,0.1,0,0.2,0,0.3c2.3,0.2,4.8,0.3,7.2,0.3c0-0.2,0-0.4,0-0.6
			c0-3.3,0.2-6.5,0.4-8.9c0.2-2.4,0.6-4.1,0.6-4.1s0.3,1.6,0.6,4.1c0.3,2.4,0.4,5.7,0.4,8.9c0,0.2,0,0.4,0,0.6
			c2.6,0,5.2-0.1,7.7-0.2c0,0,0-0.1,0-0.1c-0.5-4.4-1-8.8-1.2-13.2c1.2,4.3,2.1,8.7,2.9,13.1l0,0.1c0,0,0,0,0,0
			c2.7-0.2,5.3-0.5,7.8-0.8c-1.2-4.1-2.3-8.2-3.2-12.4c1.9,3.9,3.4,7.9,5,12l0,0.1l0,0c2.7-0.4,5.3-1,7.8-1.6c0,0,0-0.1,0-0.1
			c-0.9-1.6-1.8-3.3-2.7-5c-0.9-1.8-1.8-3.6-2.6-5.4c1.3,1.5,2.5,3.1,3.6,4.7c1.2,1.6,2.3,3.2,3.3,4.9l0.1,0.2l0,0.1
			c2.8-0.8,5.4-1.7,7.6-2.7c-2.5-2.3-4.9-4.6-7.1-7.2c3.1,1.8,6,3.9,8.8,6.1l0.2,0.1c4.4-2.4,7-5.2,7-8.2c0-0.1,0-0.2,0-0.2
			c-1.8-0.7-3.7-1-5.8-1H58.6c-2,0-4,0.4-5.8,1c0,0.1,0,0.2,0,0.2C52.8,86,55.3,88.8,59.7,91.2z"/>
	</g>
	<path fill="#8B8A8A" d="M68.7,84.9c-3.1,1.8-6,3.9-8.8,6.1l-0.2,0.2l-0.1,0.1l0,0.5c-0.1,3.1-0.1,6.3,0.1,9.4
		c0.1,3.1,0.4,6.3,0.9,9.4c0.5-3.1,0.8-6.3,0.9-9.4c0.1-3,0.1-6,0.1-9c0,0,0,0,0.1,0C64,89.9,66.5,87.5,68.7,84.9z"/>
	<path fill="#8B8A8A" d="M75.8,84.9c-1.3,1.5-2.5,3.1-3.6,4.8c-1.2,1.6-2.3,3.3-3.4,4.9l-0.1,0.2v0l0,0.3c-0.1,2.6-0.1,5.2,0,7.8
		c0.1,2.6,0.4,5.2,0.9,7.8c0.6-2.6,0.8-5.2,0.9-7.8c0.1-2.5,0.1-5,0-7.6c0.9-1.6,1.8-3.3,2.7-5C74.2,88.5,75,86.7,75.8,84.9z"/>
	<path fill="#8B8A8A" d="M82.9,84.8c-1.9,3.9-3.4,7.8-5,11.8l0,0.1l0,0.1l0,0.1c-0.2,2.3-0.2,4.6,0,6.9c0.1,2.3,0.4,4.6,0.9,6.9
		c0.6-2.3,0.8-4.6,0.9-6.9c0.1-2.2,0.1-4.5,0-6.7c0,0,0,0,0-0.1C80.9,93,82.1,89,82.9,84.8z"/>
	<path fill="#8B8A8A" d="M90,84.8c-1.2,4.3-2.1,8.6-2.9,12.9l0,0.1c0,0,0,0.1,0,0.1c-0.1,1-0.1,2.1-0.1,3.1c0,1.1,0,2.2,0.1,3.2
		c0.1,2.1,0.4,4.3,0.9,6.4c0.6-2.2,0.8-4.3,1-6.4c0.1-1.1,0.1-2.1,0.1-3.2c0-1-0.1-2-0.1-2.9c0-0.1,0-0.2,0-0.3
		C89.4,93.5,89.9,89.2,90,84.8z"/>
	<path fill="#8B8A8A" d="M97.7,88.8c-0.2-2.4-0.6-4.1-0.6-4.1s-0.3,1.6-0.6,4.1c-0.3,2.4-0.4,5.7-0.4,8.9c0,0.2,0,0.4,0,0.6
		c0,3,0.2,6,0.4,8.3c0.2,2.4,0.6,4.1,0.6,4.1s0.3-1.6,0.6-4.1c0.2-2.3,0.4-5.3,0.4-8.3c0-0.2,0-0.4,0-0.6
		C98.1,94.5,98,91.3,97.7,88.8z"/>
	<path fill="#8B8A8A" d="M107.6,97.9c-0.8-4.4-1.7-8.7-2.9-13.1c0.2,4.4,0.6,8.8,1.2,13.2c0,0,0,0.1,0,0.1c-0.1,1-0.1,2-0.1,3
		c0,1.1,0,2.1,0.1,3.2c0.1,2.1,0.4,4.2,1,6.4c0.6-2.1,0.8-4.2,0.9-6.4c0.1-1.1,0.1-2.1,0.1-3.2c0-1-0.1-2.1-0.1-3.1c0,0,0,0,0,0
		L107.6,97.9z"/>
	<path fill="#8B8A8A" d="M117.1,96.8c-1.5-4-3.1-8.1-5-12c0.9,4.2,2,8.3,3.2,12.4c0,0,0,0,0,0c-0.2,2.2-0.1,4.4,0,6.7
		c0.1,2.3,0.4,4.5,0.9,6.8c0.6-2.3,0.8-4.5,0.9-6.8c0.1-2.3,0.1-4.5,0-6.8l0-0.2L117.1,96.8L117.1,96.8z"/>
	<path fill="#8B8A8A" d="M126.7,94.6c-1.1-1.7-2.2-3.3-3.3-4.9c-1.1-1.6-2.3-3.2-3.6-4.7c0.8,1.8,1.6,3.6,2.6,5.4
		c0.9,1.7,1.8,3.3,2.7,5c0,0,0,0.1,0,0.1c-0.1,2.5-0.1,5,0,7.5c0.1,2.6,0.4,5.2,0.9,7.8c0.6-2.6,0.8-5.2,0.9-7.8
		c0.1-2.6,0.1-5.2,0-7.8l0-0.2l0-0.1L126.7,94.6z"/>
	<path fill="#8B8A8A" d="M127.2,85c2.2,2.6,4.6,4.9,7.1,7.2c0,0,0.1,0.1,0.1,0.1c-0.1,3-0.1,6,0.1,9c0.1,3.1,0.4,6.3,0.9,9.4
		c0.5-3.1,0.8-6.3,0.9-9.4c0.1-3.1,0.1-6.3,0-9.4l0-0.5l-0.2-0.1l-0.2-0.1C133.3,88.9,130.4,86.8,127.2,85z"/>
	<path fill="#A3C73A" d="M156.1,134.7v-0.3C156.1,134.5,156.1,134.6,156.1,134.7L156.1,134.7z"/>
	<path fill="#A3C73A" d="M156.1,134.4C156.1,134.4,156.1,134.4,156.1,134.4C156.1,134.4,156.1,134.4,156.1,134.4L156.1,134.4z"/>
	<g>
		<path fill="#A3C73A" d="M57,126.1h21.5c1.4,0,2.5-1.2,2.6-2.8h0v-0.2c0,0,0,0,0-0.1c0,0,0,0,0-0.1v-4.4H54.4v4.1
			c0,0.1,0,0.2,0,0.3C54.4,124.8,55.6,126.1,57,126.1z"/>
		<path fill="#A3C73A" d="M87,126.1h21.5c1.4,0,2.5-1.2,2.6-2.8h0v-0.2c0,0,0,0,0-0.1c0,0,0,0,0,0v-4.4H84.5v4.2c0,0.1,0,0.2,0,0.3
			C84.4,124.8,85.6,126.1,87,126.1z"/>
		<path fill="#A3C73A" d="M117,126.1h21.5c1.4,0,2.5-1.2,2.6-2.8h0v-0.2c0,0,0,0,0,0c0,0,0,0,0,0v-4.4h-26.7v4.1c0,0.1,0,0.2,0,0.3
			C114.4,124.8,115.6,126.1,117,126.1z"/>
		<path fill="#A3C73A" d="M66.2,129.9H39.5v4.2c0,0.1,0,0.2,0,0.3c0,1.7,1.2,3.1,2.6,3.1h21.5c1.4,0,2.5-1.2,2.6-2.8h0v-0.2
			c0,0,0,0,0,0c0,0,0,0,0,0V129.9z"/>
		<path fill="#A3C73A" d="M96.2,129.9H69.5v4.1c0,0.1,0,0.2,0,0.3c0,1.7,1.2,3.1,2.6,3.1h21.5c1.4,0,2.5-1.2,2.6-2.8h0v-0.2
			c0,0,0,0,0,0c0,0,0,0,0,0V129.9z"/>
		<path fill="#A3C73A" d="M126.1,129.9H99.4v4.1c0,0.1,0,0.2,0,0.3c0,1.7,1.2,3.1,2.6,3.1h21.5c1.4,0,2.5-1.2,2.6-2.8h0v-0.2
			c0,0,0,0,0-0.1c0,0,0,0,0-0.1V129.9z"/>
		<path fill="#A3C73A" d="M156.1,129.9h-26.7v4.1c0,0.1,0,0.2,0,0.3c0,1.7,1.2,3.1,2.6,3.1h21.5c1.4,0,2.5-1.2,2.6-2.8
			c0-0.1,0-0.2,0-0.3v0V129.9z"/>
	</g>
	<g>
		<rect x="59.3" y="47.7" fill="#A3C73A" width="18.4" height="3.9"/>
		<rect x="59.3" y="56" fill="#A3C73A" width="45.3" height="3.9"/>
		<rect x="108.2" y="56" fill="#A3C73A" width="28.4" height="3.9"/>
		<rect x="91.3" y="64.1" fill="#A3C73A" width="45.3" height="3.9"/>
		<rect x="59.3" y="64.1" fill="#A3C73A" width="28.4" height="3.9"/>
	</g>
</g>
</svg>
