<?xml version="1.0" encoding="utf-8"?>
<!-- Generator: Adobe Illustrator 27.1.1, SVG Export Plug-In . SVG Version: 6.00 Build 0)  -->
<svg version="1.1" id="Слой_1" xmlns="http://www.w3.org/2000/svg" xmlns:xlink="http://www.w3.org/1999/xlink" x="0px" y="0px"
	 viewBox="0 0 1000 636.82" style="enable-background:new 0 0 1000 636.82;" xml:space="preserve">
<style type="text/css">
	.st0{fill:#245289;}
</style>
<g>
	<g>
		<path class="st0" d="M109.47,360.47H64.09c1.61-1.46,3.05-3.11,4.31-4.94c1.07-1.46,2.06-3.11,2.96-4.94
			c0.9-1.83,1.35-3.66,1.35-5.49v-2.74c0-7.13-1.6-12.44-4.8-15.91c-3.2-3.47-7.18-5.21-11.93-5.21c-4.94,0-9.01,1.74-12.21,5.21
			c-3.2,3.48-4.8,8.78-4.8,15.91c0,6.77,1.51,13.26,4.55,19.48c3.03,6.22,6.8,12.44,11.3,18.66c4.5,6.22,9.41,12.53,14.74,18.93
			c5.32,6.4,10.24,13.13,14.74,20.16c4.5,7.04,8.27,14.59,11.3,22.63c3.03,8.05,4.55,16.74,4.55,26.06
			c0,33.66-15.05,50.48-45.13,50.48c-7.71,0-14.45-0.82-20.22-2.47s-10.6-4.39-14.45-8.23c-3.85-3.84-6.74-9.01-8.67-15.5
			c-1.93-6.49-2.89-14.58-2.89-24.28v-5.49c0-1.83-0.46-3.66-1.37-5.49c-0.92-1.83-1.92-3.47-3.02-4.94
			c-1.28-1.83-2.74-3.47-4.39-4.94h45.65c-1.65,1.64-3.11,3.39-4.39,5.21c-1.1,1.47-2.11,3.11-3.02,4.94
			c-0.92,1.83-1.37,3.57-1.37,5.21v7.41c0,6.95,1.64,12.16,4.93,15.64c3.29,3.48,7.4,5.21,12.32,5.21c4.73,0,8.83-1.74,12.29-5.21
			c3.46-3.47,5.19-8.68,5.19-15.64c0-6.77-1.51-13.26-4.53-19.48c-3.02-6.22-6.82-12.43-11.39-18.66
			c-4.57-6.22-9.56-12.53-14.95-18.93c-5.4-6.4-10.38-13.17-14.95-20.3c-4.57-7.13-8.37-14.68-11.39-22.63
			c-3.02-7.96-4.53-16.6-4.53-25.93c0-17.74,3.76-30.59,11.28-38.55c7.52-7.96,18.9-11.94,34.12-11.94
			c15.04,0,26.37,3.98,33.99,11.94c7.61,7.96,11.42,20.81,11.42,38.55c0,2.38,0.45,4.53,1.37,6.45c0.91,1.92,1.92,3.61,3.02,5.08
			C106.35,357.64,107.82,359.19,109.47,360.47z"/>
		<path class="st0" d="M143.21,512.46c1.1-1.46,2.1-3.06,3.02-4.8c0.91-1.74,1.37-3.52,1.37-5.35v-179.7h-18.93
			c-2.19,0-4.62,0.78-7.27,2.33c-2.65,1.56-5.08,3.34-7.27,5.35c-2.74,2.19-5.39,4.66-7.96,7.41l7.68-41.7h97.39l7.68,41.7
			c-2.56-2.74-5.21-5.21-7.96-7.41c-2.38-2.01-4.9-3.79-7.54-5.35c-2.65-1.55-5.08-2.33-7.27-2.33h-20.03v180.25
			c0,1.65,0.45,3.34,1.37,5.08c0.91,1.74,1.92,3.34,3.02,4.8c1.28,1.83,2.83,3.48,4.66,4.94h-46.37
			C140.47,516.03,141.93,514.29,143.21,512.46z"/>
		<path class="st0" d="M318.52,500.39c0,2.19,0.41,4.35,1.23,6.45c0.82,2.11,1.78,3.98,2.88,5.62c1.28,2.01,2.74,3.75,4.39,5.21
			h-44.99c1.46-1.83,2.83-3.75,4.12-5.76c1.1-1.83,2.1-3.84,3.02-6.03c0.91-2.2,1.37-4.39,1.37-6.59v-0.27v0.27v-40.6
			c0-4.2-1.42-7.68-4.25-10.42c-2.84-2.74-6.27-4.12-10.29-4.12h-17.28v54.87c0,2.38,0.41,4.62,1.23,6.72
			c0.82,2.1,1.78,4.07,2.88,5.9c1.28,2.02,2.74,4.03,4.39,6.04H222.5c1.46-2.19,2.83-4.39,4.12-6.58c1.1-2.01,2.1-4.12,3.02-6.31
			c0.91-2.19,1.37-4.29,1.37-6.31V311.91c0-2.38-0.46-4.71-1.37-7c-0.92-2.28-1.92-4.34-3.02-6.17c-1.28-2.01-2.65-4.02-4.12-6.04
			h54.6c6.04,0,11.66,1.15,16.87,3.43c5.21,2.29,9.78,5.4,13.72,9.33c3.93,3.93,7.04,8.51,9.33,13.72
			c2.28,5.21,3.43,10.84,3.43,16.87v57.89c0,6.77-1.47,13.08-4.39,18.93c-2.93,5.86-6.95,10.79-12.07,14.81
			c4.39,3.84,7.91,8.51,10.56,13.99c2.65,5.49,3.98,11.43,3.98,17.83V500.39z M277.09,409.86c4.21,0,7.72-1.42,10.56-4.26
			c2.83-2.84,4.25-6.29,4.25-10.32V336.1c0-4.22-1.42-7.75-4.25-10.6c-2.84-2.84-6.36-4.27-10.56-4.27h-18.38v88.62H277.09z"/>
		<path class="st0" d="M418.93,488.18c2.19-1,4.02-1.96,5.49-2.88c1.83-1.1,3.38-2.38,4.66-3.84l-5.49,36.21h-85.32
			c1.46-2.19,2.83-4.39,4.12-6.58c1.1-2.01,2.1-4.16,3.02-6.45c0.91-2.28,1.37-4.53,1.37-6.72V311.91c0-1.83-0.46-3.75-1.37-5.76
			c-0.92-2.01-1.92-3.84-3.02-5.49c-1.28-2.01-2.65-3.93-4.12-5.76h84.77l5.49,36.21c-1.65-1.46-3.39-2.74-5.21-3.84
			c-1.65-0.91-3.48-1.83-5.49-2.74c-2.01-0.91-4.3-1.55-6.86-1.92h-0.82h-35.67V389h26.61h0.27c2.01,0,3.93-0.41,5.76-1.23
			c1.83-0.82,3.47-1.78,4.94-2.88c1.65-1.28,3.2-2.74,4.66-4.39v44.72c-1.1-1.46-2.38-2.83-3.84-4.12c-1.28-1.1-2.88-2.1-4.8-3.02
			c-1.92-0.91-4.16-1.37-6.72-1.37h-26.89v73.25h37.31C414.36,489.79,416.74,489.19,418.93,488.18z"/>
		<path class="st0" d="M524.01,488.18c2.19-1,4.02-1.96,5.49-2.88c1.83-1.1,3.38-2.38,4.66-3.84l-5.49,36.21h-85.32
			c1.46-2.19,2.83-4.39,4.12-6.58c1.1-2.01,2.1-4.16,3.02-6.45c0.91-2.28,1.37-4.53,1.37-6.72V311.91c0-1.83-0.46-3.75-1.37-5.76
			c-0.92-2.01-1.92-3.84-3.02-5.49c-1.28-2.01-2.65-3.93-4.12-5.76h84.77l5.49,36.21c-1.65-1.46-3.39-2.74-5.21-3.84
			c-1.65-0.91-3.48-1.83-5.49-2.74c-2.01-0.91-4.3-1.55-6.86-1.92h-0.82h-35.67V389h26.61h0.27c2.01,0,3.93-0.41,5.76-1.23
			c1.83-0.82,3.47-1.78,4.94-2.88c1.65-1.28,3.2-2.74,4.66-4.39v44.72c-1.1-1.46-2.38-2.83-3.84-4.12c-1.28-1.1-2.88-2.1-4.8-3.02
			c-1.92-0.91-4.16-1.37-6.72-1.37h-26.89v73.25h37.31C519.43,489.79,521.81,489.19,524.01,488.18z"/>
		<path class="st0" d="M582.44,512.46c1.1-1.46,2.1-3.06,3.02-4.8c0.91-1.74,1.37-3.52,1.37-5.35v-179.7H567.9
			c-2.2,0-4.62,0.78-7.27,2.33c-2.65,1.56-5.08,3.34-7.27,5.35c-2.74,2.19-5.39,4.66-7.96,7.41l7.68-41.7h97.39l7.68,41.7
			c-2.56-2.74-5.21-5.21-7.96-7.41c-2.38-2.01-4.9-3.79-7.54-5.35c-2.65-1.55-5.08-2.33-7.27-2.33h-20.03v180.25
			c0,1.65,0.45,3.34,1.37,5.08c0.91,1.74,1.92,3.34,3.02,4.8c1.28,1.83,2.83,3.48,4.66,4.94h-46.37
			C579.7,516.03,581.16,514.29,582.44,512.46z"/>
		<path class="st0" d="M731.41,456.77c-0.92-2.2-1.92-4.12-3.02-5.76c-1.28-2.01-2.65-3.84-4.12-5.49h45.54
			c-1.65,1.47-3.11,3.2-4.39,5.21c-1.1,1.65-2.06,3.52-2.88,5.62c-0.82,2.11-1.23,4.16-1.23,6.17v11.8c0,6.03-1.14,11.66-3.43,16.87
			c-2.29,5.21-5.4,9.79-9.33,13.72c-3.94,3.94-8.51,7.04-13.72,9.33c-5.21,2.29-10.84,3.43-16.87,3.43h-8.23
			c-6.03,0-11.66-1.14-16.87-3.43c-5.21-2.29-9.79-5.35-13.72-9.19c-3.94-3.84-7.04-8.37-9.33-13.58
			c-2.29-5.21-3.43-10.84-3.43-16.87V332.21c0-6.03,1.14-11.66,3.43-16.87c2.29-5.21,5.39-9.78,9.33-13.72
			c3.93-3.93,8.5-7.04,13.72-9.33c5.21-2.28,10.84-3.43,16.87-3.43h8.51c6.03,0,11.66,1.14,16.87,3.43
			c5.21,2.29,9.74,5.4,13.58,9.33c3.84,3.93,6.9,8.5,9.19,13.72c2.28,5.21,3.43,10.84,3.43,16.87v8.78c0,2.56,0.45,4.94,1.37,7.13
			c0.91,2.2,1.92,4.12,3.02,5.76c1.28,2.01,2.74,3.75,4.39,5.21h-45.82c1.65-1.46,3.11-3.11,4.39-4.94c1.1-1.46,2.1-3.2,3.02-5.21
			c0.91-2.01,1.37-4.29,1.37-6.86v-9.88c0-4.2-1.47-7.73-4.39-10.56c-2.93-2.83-6.4-4.25-10.42-4.25h-8.51
			c-4.21,0-7.73,1.42-10.56,4.25c-2.84,2.84-4.25,6.36-4.25,10.56V474.6c0,4.02,1.41,7.45,4.25,10.29
			c2.83,2.84,6.35,4.25,10.56,4.25h8.23c4.21,0,7.73-1.41,10.56-4.25c2.83-2.83,4.25-6.35,4.25-10.56V463.9
			C732.78,461.34,732.33,458.96,731.41,456.77z"/>
		<path class="st0" d="M842.25,517.68c1.83-2.01,3.38-4.02,4.66-6.04c1.1-1.83,2.06-3.93,2.88-6.31c0.82-2.38,1.05-4.84,0.69-7.41
			c-0.37-2.56-0.73-5.17-1.1-7.82c-0.37-2.65-0.73-4.98-1.1-7c-0.37-2.37-0.73-4.75-1.1-7.13H810.7l-3.02,22.5
			c-0.37,2.19-0.14,4.44,0.69,6.72c0.82,2.29,1.78,4.35,2.88,6.17c1.28,2.19,2.74,4.3,4.39,6.31h-44.72
			c1.47-1.46,2.74-3.02,3.84-4.66c0.92-1.46,1.78-2.97,2.61-4.53c0.82-1.55,1.41-3.06,1.78-4.53c0.18-0.73,0.59-3.93,1.23-9.6
			c0.64-5.67,1.55-12.98,2.74-21.95c1.19-8.96,2.47-19.07,3.84-30.32c1.37-11.25,2.79-22.72,4.25-34.43
			c1.46-11.7,2.88-23.14,4.25-34.29c1.37-11.15,2.65-21.17,3.84-30.04c1.19-8.87,2.1-16.09,2.74-21.67
			c0.64-5.58,1.05-8.64,1.23-9.19c0.36-2.01,0.09-4.07-0.82-6.17c-0.92-2.1-1.92-4.07-3.02-5.9c-1.28-2.01-2.74-4.12-4.39-6.31
			h68.04c-1.83,2.2-3.39,4.3-4.66,6.31c-1.1,1.83-2.06,3.8-2.88,5.9c-0.82,2.11-1.05,3.98-0.69,5.62c0,0.37,0.36,3.29,1.1,8.78
			c0.73,5.49,1.65,12.58,2.74,21.26c1.1,8.69,2.33,18.61,3.7,29.77c1.37,11.16,2.74,22.54,4.12,34.16c1.37,11.62,2.74,23,4.12,34.16
			c1.37,11.16,2.65,21.22,3.84,30.18c1.19,8.96,2.15,16.37,2.88,22.22c0.73,5.86,1.19,9.15,1.37,9.88c0.37,1.65,1,3.39,1.92,5.21
			c0.91,1.83,1.83,3.48,2.74,4.94c1.1,1.83,2.38,3.57,3.84,5.21H842.25z M843.35,448.26l-14.27-123.46l-14.27,123.46H843.35z"/>
		<path class="st0" d="M991.5,500.39c0,2.19,0.41,4.35,1.23,6.45c0.82,2.11,1.78,3.98,2.88,5.62c1.28,2.01,2.74,3.75,4.39,5.21
			h-44.99c1.46-1.83,2.83-3.75,4.12-5.76c1.1-1.83,2.1-3.84,3.02-6.03c0.91-2.2,1.37-4.39,1.37-6.59v-0.27v0.27v-40.6
			c0-4.2-1.42-7.68-4.25-10.42c-2.84-2.74-6.27-4.12-10.29-4.12h-17.29v54.87c0,2.38,0.41,4.62,1.24,6.72
			c0.82,2.1,1.78,4.07,2.88,5.9c1.28,2.02,2.74,4.03,4.39,6.04h-44.72c1.46-2.19,2.83-4.39,4.12-6.58c1.1-2.01,2.1-4.12,3.02-6.31
			c0.91-2.19,1.37-4.29,1.37-6.31V311.91c0-2.38-0.46-4.71-1.37-7c-0.92-2.28-1.92-4.34-3.02-6.17c-1.28-2.01-2.65-4.02-4.12-6.04
			h54.6c6.03,0,11.66,1.15,16.87,3.43c5.21,2.29,9.78,5.4,13.72,9.33c3.93,3.93,7.04,8.51,9.33,13.72
			c2.28,5.21,3.43,10.84,3.43,16.87v57.89c0,6.77-1.47,13.08-4.39,18.93c-2.93,5.86-6.95,10.79-12.07,14.81
			c4.39,3.84,7.91,8.51,10.56,13.99c2.65,5.49,3.98,11.43,3.98,17.83V500.39z M950.07,409.86c4.21,0,7.73-1.42,10.56-4.26
			c2.83-2.84,4.25-6.29,4.25-10.32V336.1c0-4.22-1.42-7.75-4.25-10.6c-2.84-2.84-6.36-4.27-10.56-4.27h-18.38v88.62H950.07z"/>
	</g>
	<g>
		<g>
			<g>
				<path class="st0" d="M308.62,226.61h-98.2v-18.07h-36.87v-15.79h13.01V50.89l5.01-8.66c12.08-20.87,34.56-33.83,58.67-33.83
					h249.73v3.5H250.25c-22.87,0-44.19,12.29-55.65,32.08l-4.54,7.84v144.42h-13.01v8.79h36.87v18.07h91.21V200.7h194.99v3.5H308.62
					V226.61z"/>
			</g>
			<g>
				<rect x="188.31" y="49.61" class="st0" width="311.67" height="3.5"/>
			</g>
			<g>
				<rect x="188.31" y="192.75" class="st0" width="23.86" height="3.5"/>
			</g>
			<g>
				<path class="st0" d="M208.05,135.27h-21.48V68.66h21.48V135.27z M190.06,131.77h14.49V72.16h-14.49V131.77z"/>
			</g>
			<g>
				<g>
					<path class="st0" d="M236,135.27h-17.09V68.66H236V135.27z M222.41,131.77h10.09V72.16h-10.09V131.77z"/>
				</g>
				<g>
					<path class="st0" d="M257.38,135.27H240.3V68.66h17.09V135.27z M243.79,131.77h10.09V72.16h-10.09V131.77z"/>
				</g>
				<g>
					<path class="st0" d="M278.77,135.27h-17.09V68.66h17.09V135.27z M265.18,131.77h10.09V72.16h-10.09V131.77z"/>
				</g>
				<g>
					<path class="st0" d="M300.16,135.27h-17.09V68.66h17.09V135.27z M286.57,131.77h10.09V72.16h-10.09V131.77z"/>
				</g>
			</g>
			<g>
				<g>
					<path class="st0" d="M236,189.33h-17.09V146.8H236V189.33z M222.41,185.83h10.09V150.3h-10.09V185.83z"/>
				</g>
				<g>
					<path class="st0" d="M257.38,189.33H240.3V146.8h17.09V189.33z M243.79,185.83h10.09V150.3h-10.09V185.83z"/>
				</g>
				<g>
					<path class="st0" d="M278.77,189.33h-17.09V146.8h17.09V189.33z M265.18,185.83h10.09V150.3h-10.09V185.83z"/>
				</g>
				<g>
					<path class="st0" d="M300.16,189.33h-17.09V146.8h17.09V189.33z M286.57,185.83h10.09V150.3h-10.09V185.83z"/>
				</g>
			</g>
			<g>
				<path class="st0" d="M308.65,226.61h-98.23v-177h98.23V226.61z M213.92,223.11h91.23v-170h-91.23V223.11z"/>
			</g>
			<g>
				<path class="st0" d="M359.56,134.88h-45.38l-9.03-7.58V67.22l9.03-7.58h45.38l9.04,7.58v60.08L359.56,134.88z M315.46,131.39
					h42.83l6.82-5.72V68.85l-6.82-5.71h-42.83l-6.81,5.71v56.82L315.46,131.39z"/>
			</g>
			<g>
				<path class="st0" d="M424.71,134.88h-45.38l-9.03-7.58V67.22l9.03-7.58h45.38l9.04,7.58v60.08L424.71,134.88z M380.6,131.39
					h42.83l6.82-5.72V68.85l-6.82-5.71H380.6l-6.81,5.71v56.82L380.6,131.39z"/>
			</g>
			<g>
				<path class="st0" d="M489.85,134.88h-45.38l-9.03-7.58V67.22l9.03-7.58h45.38l9.04,7.58v60.08L489.85,134.88z M445.75,131.39
					h42.83l6.82-5.72V68.85l-6.82-5.71h-42.83l-6.81,5.71v56.82L445.75,131.39z"/>
			</g>
			<g>
				<rect x="212.17" y="20.49" class="st0" width="287.81" height="3.5"/>
			</g>
			<g>
				<polygon class="st0" points="500.11,222 366.6,222 329.53,204.02 331.06,200.88 367.4,218.5 500.11,218.5 				"/>
			</g>
			<g>
				<path class="st0" d="M408.9,254.11c-16.13,0-29.25-13.12-29.25-29.25c0-1.62,0.13-3.25,0.4-4.83l3.45,0.57
					c-0.23,1.4-0.35,2.83-0.35,4.26c0,14.2,11.55,25.75,25.75,25.75c14.2,0,25.75-11.55,25.75-25.75c0-1.75-0.18-3.5-0.52-5.19
					l3.43-0.7c0.39,1.93,0.59,3.91,0.59,5.89C438.15,240.99,425.03,254.11,408.9,254.11z"/>
			</g>
			<g>
				<path class="st0" d="M591.32,254.11c-16.13,0-29.25-13.12-29.25-29.25c0-1.98,0.2-3.97,0.59-5.89l3.43,0.7
					c-0.35,1.7-0.52,3.44-0.52,5.19c0,14.2,11.55,25.75,25.75,25.75c14.2,0,25.75-11.55,25.75-25.75c0-1.43-0.12-2.86-0.35-4.26
					l3.45-0.58c0.26,1.58,0.4,3.21,0.4,4.83C620.57,240.99,607.45,254.11,591.32,254.11z"/>
			</g>
			<g>
				<path class="st0" d="M501.73,11.9h-67.07V0h67.07V11.9z M438.15,8.41h60.08V3.5h-60.08V8.41z"/>
			</g>
			<g>
				<rect x="466.44" y="1.75" class="st0" width="3.5" height="8.41"/>
			</g>
			<g>
				<path class="st0" d="M789.8,226.61h-98.2V204.2H500.11v-3.5H695.1v22.41h91.21v-18.07h36.87v-8.79h-13.01V51.83l-4.54-7.84
					C794.17,24.2,772.84,11.9,749.98,11.9H500.25v-3.5h249.73c24.11,0,46.59,12.96,58.67,33.83l5.01,8.66v141.86h13.01v15.79H789.8
					V226.61z"/>
			</g>
			<g>
				<rect x="500.25" y="49.61" class="st0" width="311.67" height="3.5"/>
			</g>
			<g>
				<rect x="788.05" y="192.75" class="st0" width="23.86" height="3.5"/>
			</g>
			<g>
				<path class="st0" d="M813.66,135.27h-21.48V68.66h21.48V135.27z M795.68,131.77h14.49V72.16h-14.49V131.77z"/>
			</g>
			<g>
				<g>
					<path class="st0" d="M781.31,135.27h-17.09V68.66h17.09V135.27z M767.72,131.77h10.09V72.16h-10.09V131.77z"/>
				</g>
				<g>
					<path class="st0" d="M759.93,135.27h-17.09V68.66h17.09V135.27z M746.34,131.77h10.09V72.16h-10.09V131.77z"/>
				</g>
				<g>
					<path class="st0" d="M738.54,135.27h-17.09V68.66h17.09V135.27z M724.95,131.77h10.09V72.16h-10.09V131.77z"/>
				</g>
				<g>
					<path class="st0" d="M717.15,135.27h-17.09V68.66h17.09V135.27z M703.56,131.77h10.09V72.16h-10.09V131.77z"/>
				</g>
			</g>
			<g>
				<g>
					<path class="st0" d="M781.31,189.33h-17.09V146.8h17.09V189.33z M767.72,185.83h10.09V150.3h-10.09V185.83z"/>
				</g>
				<g>
					<path class="st0" d="M759.93,189.33h-17.09V146.8h17.09V189.33z M746.34,185.83h10.09V150.3h-10.09V185.83z"/>
				</g>
				<g>
					<path class="st0" d="M738.54,189.33h-17.09V146.8h17.09V189.33z M724.95,185.83h10.09V150.3h-10.09V185.83z"/>
				</g>
				<g>
					<path class="st0" d="M717.15,189.33h-17.09V146.8h17.09V189.33z M703.56,185.83h10.09V150.3h-10.09V185.83z"/>
				</g>
			</g>
			<g>
				<path class="st0" d="M789.8,226.61h-98.23v-177h98.23V226.61z M695.07,223.11h91.23v-170h-91.23V223.11z"/>
			</g>
			<g>
				<path class="st0" d="M695.07,162.32H305.15V146.8h389.92V162.32z M308.65,158.83h382.93v-8.53H308.65V158.83z"/>
			</g>
			<g>
				<path class="st0" d="M686.04,134.88h-45.38l-9.04-7.58V67.22l9.04-7.58h45.38l9.03,7.58v60.08L686.04,134.88z M641.94,131.39
					h42.83l6.81-5.71V68.85l-6.81-5.71h-42.83l-6.82,5.71v56.82L641.94,131.39z"/>
			</g>
			<g>
				<path class="st0" d="M620.9,134.88h-45.38l-9.04-7.58V67.22l9.04-7.58h45.38l9.03,7.58v60.08L620.9,134.88z M576.79,131.39
					h42.83l6.81-5.71V68.85l-6.81-5.71h-42.83l-6.82,5.71v56.82L576.79,131.39z"/>
			</g>
			<g>
				<path class="st0" d="M555.75,134.88h-45.38l-9.04-7.58V67.22l9.04-7.58h45.38l9.03,7.58v60.08L555.75,134.88z M511.64,131.39
					h42.83l6.81-5.71V68.85l-6.81-5.71h-42.83l-6.82,5.71v56.82L511.64,131.39z"/>
			</g>
			<g>
				<rect x="500.25" y="20.49" class="st0" width="287.81" height="3.5"/>
			</g>
			<g>
				<polygon class="st0" points="633.63,222 500.11,222 500.11,218.5 632.83,218.5 669.16,200.88 670.69,204.02 				"/>
			</g>
			<g>
				<path class="st0" d="M565.57,11.9H498.5V0h67.07V11.9z M501.99,8.41h60.08V3.5h-60.08V8.41z"/>
			</g>
			<g>
				<rect x="530.28" y="1.75" class="st0" width="3.5" height="8.41"/>
			</g>
			<g>
				<rect x="306.9" y="80.69" class="st0" width="386.42" height="3.5"/>
			</g>
		</g>
		<g>
			<path class="st0" d="M417.53,240.14h-17.26V218.5h17.26V240.14z M403.77,236.65h10.27V222h-10.27V236.65z"/>
		</g>
		<g>
			<path class="st0" d="M599.95,240.14h-17.26V218.5h17.26V240.14z M586.19,236.65h10.27V222h-10.27V236.65z"/>
		</g>
	</g>
	<g>
		<g>
			<rect x="35.12" y="553.53" class="st0" width="929.77" height="2.95"/>
		</g>
		<g>
			<rect x="35.12" y="251.16" class="st0" width="929.77" height="2.95"/>
		</g>
	</g>
	<g>
		<path class="st0" d="M211.72,607.91l-0.11,0.05c-0.64-1.14-1.58-2.08-2.8-2.83c-1.23-0.75-2.61-1.12-4.14-1.12h-4.01v23.24
			c0,2.17,0.31,3.98,0.93,5.42c0.62,1.44,1.4,2.41,2.32,2.91v0.11h-13.84v-0.11c0.86-0.5,1.61-1.48,2.27-2.96
			c0.66-1.48,0.99-3.27,0.99-5.37v-23.24h-4.06c-1.53,0-2.91,0.37-4.14,1.12c-1.23,0.75-2.16,1.69-2.8,2.83l-0.11-0.05l0.91-9.78
			c2.17,0.28,4.61,0.43,7.32,0.43h13.04c2.71,0,5.15-0.14,7.32-0.43L211.72,607.91z"/>
		<path class="st0" d="M271.77,632.2c1,1.59,1.9,2.72,2.72,3.39v0.11h-12.07v-0.11c0.57-0.43,0.86-1.24,0.86-2.46
			c0-1.14-0.29-2.51-0.86-4.11l-0.48-1.28h-13.78l-0.48,1.28c-0.57,1.46-0.85,2.81-0.85,4.06s0.25,2.08,0.75,2.51v0.11h-11.22v-0.11
			c0.82-0.71,1.72-1.85,2.7-3.42c0.98-1.57,1.81-3.31,2.48-5.24l7.64-22.01c0.32-0.96,0.48-1.84,0.48-2.62
			c0-0.82-0.14-1.55-0.43-2.19c-0.29-0.64-0.62-1.12-1.02-1.44v-0.11h14.16v0.11c-0.39,0.36-0.73,0.85-1.02,1.47
			c-0.29,0.62-0.43,1.34-0.43,2.16c0,0.78,0.16,1.66,0.48,2.62l7.85,22.01C269.93,628.86,270.77,630.61,271.77,632.2z
			 M253.87,610.83c-0.46,1.62-1.12,3.62-1.98,6.01l-1.98,5.66h10.26l-1.98-5.66c-0.89-2.56-1.57-4.61-2.03-6.14
			c-0.46-1.53-0.82-3.21-1.07-5.02h-0.21C254.67,607.49,254.33,609.21,253.87,610.83z"/>
		<path class="st0" d="M327.92,601.72c2.35,2.1,3.53,5.08,3.53,8.92c0,4.27-1.16,7.48-3.47,9.62c-2.32,2.14-5.65,3.21-9.99,3.21
			h-4.38v4.43c0,1.96,0.28,3.61,0.85,4.94c0.57,1.33,1.25,2.25,2.03,2.75v0.11H303.4v-0.11c0.78-0.53,1.46-1.48,2.03-2.83
			c0.57-1.35,0.85-3.05,0.85-5.08v-21.32c0-1.96-0.29-3.61-0.85-4.94c-0.57-1.34-1.25-2.25-2.03-2.75v-0.11h14.59
			C322.25,598.57,325.57,599.62,327.92,601.72z M323.86,611.01c0-2.46-0.58-4.26-1.74-5.42c-1.16-1.16-2.95-1.74-5.37-1.74h-3.15
			v14.26l3.15,0.05C321.49,618.21,323.86,615.82,323.86,611.01z"/>
		<path class="st0" d="M367.69,635.94c-1.84-0.37-3.32-0.9-4.46-1.58l-0.91-8.97l0.11-0.05c1.5,1.99,3.11,3.43,4.84,4.3
			c1.73,0.87,3.66,1.31,5.8,1.31c4.42,0,6.62-1.6,6.62-4.81c0-1.14-0.3-2.11-0.91-2.91c-0.61-0.8-1.36-1.45-2.27-1.95
			s-2.15-1.07-3.71-1.71c-2.1-0.85-3.8-1.68-5.1-2.48c-1.3-0.8-2.41-1.93-3.34-3.39c-0.93-1.46-1.39-3.35-1.39-5.66
			c0-1.82,0.51-3.5,1.52-5.05c1.02-1.55,2.48-2.79,4.41-3.71c1.92-0.93,4.22-1.39,6.89-1.39c2.71,0,5.5,0.37,8.39,1.12l0.69,8.76
			h-0.11c-1.07-1.64-2.31-2.78-3.71-3.42c-1.41-0.64-2.98-0.96-4.73-0.96c-4.1,0-6.15,1.37-6.15,4.11c0,0.96,0.28,1.78,0.83,2.46
			c0.55,0.68,1.25,1.24,2.08,1.68c0.84,0.45,2.02,0.99,3.55,1.63c2.17,0.89,3.95,1.76,5.34,2.62c1.39,0.86,2.58,2.07,3.58,3.63
			c1,1.57,1.5,3.6,1.5,6.09c0,2.07-0.51,3.92-1.52,5.56c-1.02,1.64-2.54,2.94-4.57,3.9c-2.03,0.96-4.49,1.44-7.37,1.44
			C371.5,636.5,369.53,636.31,367.69,635.94z"/>
		<path class="st0" d="M500.75,615.82v0.11c-0.61,0.39-1.05,1.21-1.34,2.46c-0.29,1.25-0.43,3.06-0.43,5.45v8.82
			c-1.78,1.14-3.9,2.06-6.36,2.78c-2.46,0.71-4.76,1.07-6.89,1.07c-3.67,0-6.93-0.8-9.78-2.4c-2.85-1.6-5.07-3.83-6.65-6.68
			c-1.58-2.85-2.38-6.11-2.38-9.78c0-4.06,0.83-7.59,2.48-10.58c1.66-2.99,3.98-5.28,6.97-6.87c2.99-1.58,6.46-2.38,10.42-2.38
			c3.7,0,7.09,0.48,10.15,1.44l0.8,8.71l-0.11,0.05c-2.74-3.06-6.41-4.6-11.01-4.6c-3.7,0-6.6,1.22-8.68,3.66
			c-2.08,2.44-3.13,5.78-3.13,10.02c0,4.24,1.02,7.58,3.05,10.04c2.03,2.46,4.83,3.69,8.39,3.69c2.24,0,4.2-0.39,5.88-1.18v-8.71
			c-3.6,0.07-6.25,1-7.96,2.78l-0.11-0.05l0.85-8.17c1.18,0.21,3.35,0.32,6.52,0.32H500.75z"/>
		<path class="st0" d="M563.15,632.2c1,1.59,1.9,2.72,2.72,3.39v0.11H553.8v-0.11c0.57-0.43,0.86-1.24,0.86-2.46
			c0-1.14-0.29-2.51-0.86-4.11l-0.48-1.28h-13.78l-0.48,1.28c-0.57,1.46-0.85,2.81-0.85,4.06s0.25,2.08,0.75,2.51v0.11h-11.22v-0.11
			c0.82-0.71,1.72-1.85,2.7-3.42c0.98-1.57,1.81-3.31,2.48-5.24l7.64-22.01c0.32-0.96,0.48-1.84,0.48-2.62
			c0-0.82-0.14-1.55-0.43-2.19c-0.29-0.64-0.62-1.12-1.02-1.44v-0.11h14.16v0.11c-0.39,0.36-0.73,0.85-1.02,1.47
			c-0.29,0.62-0.43,1.34-0.43,2.16c0,0.78,0.16,1.66,0.48,2.62l7.85,22.01C561.31,628.86,562.15,630.61,563.15,632.2z
			 M545.25,610.83c-0.46,1.62-1.12,3.62-1.98,6.01l-1.98,5.66h10.26l-1.98-5.66c-0.89-2.56-1.57-4.61-2.03-6.14
			c-0.46-1.53-0.82-3.21-1.07-5.02h-0.21C546.05,607.49,545.71,609.21,545.25,610.83z"/>
		<path class="st0" d="M628.11,634.73v0.11l-10.95,1.98c-0.68-2.03-1.58-4.01-2.72-5.93l-8.28-14.16h2.57
			c2.35,0,4.13-0.53,5.34-1.58c1.21-1.05,1.82-2.73,1.82-5.05c0-1.96-0.62-3.51-1.87-4.65c-1.25-1.14-3.01-1.69-5.29-1.66
			l-3.74,0.05v24.04c0,1.92,0.27,3.55,0.8,4.89c0.53,1.34,1.16,2.27,1.87,2.8v0.11h-12.88v-0.11c0.78-0.5,1.46-1.43,2.03-2.8
			c0.57-1.37,0.85-3.07,0.85-5.1v-21.32c0-1.96-0.29-3.61-0.85-4.94c-0.57-1.34-1.25-2.25-2.03-2.75v-0.11h15.17
			c4.24,0,7.55,1.01,9.94,3.02c2.39,2.01,3.58,4.76,3.58,8.25c0,2.78-0.63,5.05-1.9,6.81c-1.26,1.76-3.05,3.02-5.37,3.77l4.97,8.07
			C623.23,631.8,625.55,633.88,628.11,634.73z"/>
		<path class="st0" d="M656.8,635.59c0.78-0.53,1.46-1.48,2.03-2.83c0.57-1.35,0.85-3.05,0.85-5.08v-21.1
			c0-1.85-0.29-3.51-0.88-4.97c-0.59-1.46-1.26-2.44-2-2.94v-0.11h15.49c3.74,0,7.01,0.74,9.8,2.22c2.79,1.48,4.96,3.61,6.49,6.38
			c1.53,2.78,2.3,6.09,2.3,9.94c0,5.95-1.62,10.53-4.86,13.76c-3.24,3.22-8.1,4.84-14.59,4.84H656.8V635.59z M671.98,630.41
			c3.56,0,6.29-1.14,8.17-3.42c1.89-2.28,2.83-5.57,2.83-9.88c0-4.52-0.93-7.86-2.78-10.02s-4.68-3.23-8.49-3.23h-4.7v26.55H671.98z
			"/>
		<path class="st0" d="M749.98,625.49l-1.5,10.63c-1-0.18-1.95-0.29-2.86-0.35c-0.91-0.05-2.13-0.08-3.66-0.08h-18.86v-0.11
			c0.78-0.53,1.46-1.48,2.03-2.83c0.57-1.35,0.85-3.05,0.85-5.08v-21.1c0-2.07-0.29-3.77-0.85-5.1c-0.57-1.34-1.25-2.27-2.03-2.8
			v-0.11h19.18c2.53,0,4.42-0.14,5.66-0.43l0.91,9.56l-0.11,0.05c-0.64-1.32-1.68-2.31-3.1-2.97c-1.43-0.66-3.19-0.99-5.29-0.99
			h-7.05v9.4h4.06c2.24,0,3.9-0.03,4.97-0.08c1.07-0.05,2.19-0.15,3.37-0.29l-1.55,8.98h-0.11c-0.43-1.18-1.12-2.03-2.08-2.56
			c-0.96-0.53-2.21-0.8-3.74-0.8h-4.92v12.02h5.82c2.35,0,4.44-0.43,6.28-1.28c1.84-0.85,3.32-2.1,4.46-3.74L749.98,625.49z"/>
		<path class="st0" d="M781.87,635.59c0.78-0.53,1.46-1.48,2.03-2.83c0.57-1.35,0.85-3.05,0.85-5.08v-21.37
			c0-1.57-0.25-3.07-0.75-4.52c-0.5-1.44-1.21-2.48-2.14-3.12v-0.11H794c0.07,0.61,0.25,1.27,0.53,2c0.29,0.73,0.84,1.77,1.66,3.13
			l7.69,12.93c1.5,2.53,3.13,6.06,4.92,10.58h0.21c-0.57-3.24-0.85-6.91-0.85-11v-9.62c0-2.07-0.26-3.77-0.78-5.13
			c-0.52-1.35-1.17-2.28-1.95-2.78v-0.11h12.34v0.11c-0.78,0.5-1.46,1.43-2.03,2.8c-0.57,1.37-0.86,3.07-0.86,5.1v21.1
			c0,2.03,0.29,3.73,0.86,5.1c0.57,1.37,1.25,2.31,2.03,2.8v0.11H806.5c-0.64-1.53-1.53-3.22-2.67-5.08l-7.53-12.23
			c-1.25-2.03-2.28-3.94-3.1-5.74c-0.82-1.8-1.64-3.94-2.46-6.44h-0.21c0.39,2.31,0.65,4.4,0.77,6.25c0.13,1.85,0.19,3.9,0.19,6.14
			v9.08c0,2.07,0.26,3.78,0.78,5.13c0.51,1.35,1.17,2.28,1.95,2.78v0.11h-12.34V635.59z"/>
		<circle class="st0" cx="426.54" cy="618.07" r="5.97"/>
	</g>
</g>
</svg>
